<svg xmlns="http://www.w3.org/2000/svg" width="749" height="589" viewBox="0 0 749 589" version="1.1"><path d="M 308.124 82.001 C 308.266 86.952, 308.740 91.564, 309.176 92.251 C 309.696 93.070, 310.005 92.638, 310.073 91 C 310.557 79.299, 311.095 76.430, 313.116 74.750 C 315.199 73.019, 315.182 73, 311.543 73 L 307.864 73 308.124 82.001 M 327.299 73.745 C 332.139 73.929, 339.789 73.928, 344.299 73.743 C 348.810 73.558, 344.850 73.408, 335.500 73.409 C 326.150 73.410, 322.460 73.562, 327.299 73.745 M 445.500 73.730 C 444.400 74.007, 442.306 75.081, 440.846 76.117 C 438.630 77.688, 436.356 78, 427.096 78 C 417.900 78, 416 78.257, 416 79.500 C 416 80.482, 415.017 81, 413.155 81 C 408.221 81, 404.134 88.065, 404.044 96.750 L 404 101 392.031 101 L 380.062 101 379.731 88.750 L 379.401 76.500 379.450 89.424 L 379.500 102.348 391.750 102.101 C 399.958 101.936, 404 102.208, 404 102.927 C 404 103.517, 404.567 104, 405.259 104 C 407.671 104, 409.067 108.130, 409.416 116.289 C 409.807 125.430, 411.132 129.300, 415.138 133 C 419.908 137.406, 420.636 137.792, 423.241 137.294 C 425.484 136.865, 425.880 137.216, 426.462 140.153 C 427.376 144.764, 429.084 149, 430.031 149 C 430.464 149, 430.190 146.637, 429.421 143.750 C 427.747 137.460, 427.695 136.694, 429 137.500 C 429.550 137.840, 430 137.641, 430 137.059 C 430 136.477, 430.538 136, 431.195 136 C 432.838 136, 438 130.927, 438 129.313 C 438 128.591, 438.599 128, 439.331 128 C 440.712 128, 441.864 129.872, 444.404 136.250 C 445.226 138.313, 446.329 140, 446.855 140 C 447.382 140, 447.591 140.849, 447.319 141.887 C 446.875 143.588, 448.547 145.787, 449.534 144.799 C 450.074 144.260, 447.767 136.634, 446.869 135.990 C 446.478 135.709, 445.879 134.359, 445.537 132.990 C 444.955 130.659, 445.166 130.497, 448.844 130.455 C 453.895 130.398, 459.566 126.251, 460.518 121.919 C 461.285 118.424, 460.288 110, 459.107 110 C 458.682 110, 457.816 108.313, 457.182 106.250 C 456.112 102.773, 456.245 102.197, 459.014 98.337 C 460.656 96.047, 462 93.234, 462 92.087 C 462 90.939, 462.509 90, 463.130 90 C 463.878 90, 464.089 88.478, 463.753 85.500 C 463.370 82.100, 463.582 81, 464.623 81 C 465.722 81, 466 83.626, 466 94 C 466 101.310, 466.405 107, 466.926 107 C 467.459 107, 467.778 100.954, 467.676 92.750 L 467.500 78.500 463.286 77.938 C 460.968 77.628, 458.213 76.598, 457.163 75.647 C 455.190 73.862, 449.009 72.846, 445.500 73.730 M 240 81.280 C 237.525 81.779, 228.300 82.483, 219.500 82.844 L 203.500 83.500 203.219 95.750 L 202.938 108 173.910 108 C 157.945 108, 145.109 108.367, 145.386 108.816 C 145.664 109.265, 159.190 109.742, 175.445 109.876 C 203.368 110.106, 205.003 110.019, 205.062 108.310 C 205.096 107.314, 205.070 102.108, 205.005 96.741 C 204.914 89.287, 205.211 86.856, 206.264 86.452 C 207.022 86.161, 212.080 86.053, 217.504 86.212 C 226.897 86.486, 227.282 86.583, 225.611 88.250 C 224.646 89.213, 222.572 90, 221.002 90 C 218.798 90, 217.788 90.719, 216.575 93.150 C 215.401 95.503, 215.286 96.640, 216.120 97.645 C 216.734 98.384, 217.017 99.828, 216.749 100.853 C 216.481 101.877, 216.675 103.455, 217.180 104.358 C 217.837 105.532, 217.705 106, 216.719 106 C 212.873 106, 211.915 117.002, 215.530 119.646 C 216.397 120.279, 216.745 120.956, 216.303 121.149 C 215.364 121.559, 210.489 131.379, 209.450 134.953 C 208.799 137.191, 208.875 137.268, 210.319 135.824 C 211.189 134.954, 212.189 133.095, 212.541 131.693 C 212.893 130.292, 213.815 128.901, 214.590 128.604 C 215.366 128.306, 216 127.342, 216 126.460 C 216 124.272, 218.747 121.689, 220.400 122.323 C 221.257 122.652, 221.912 125.108, 222.198 129.063 C 222.619 134.883, 222.924 135.534, 226.910 139.142 C 229.254 141.264, 231.808 143, 232.586 143 C 233.364 143, 234 143.675, 234 144.500 C 234 146.189, 235.650 146.551, 236.175 144.976 C 236.362 144.413, 238.312 143.678, 240.508 143.341 C 247.662 142.245, 250.488 137.864, 251.374 126.500 C 252.501 112.060, 253.358 106.499, 254.660 105.197 C 255.397 104.460, 256 102.196, 256 100.166 C 256 97.297, 256.501 96.254, 258.250 95.487 C 260.038 94.702, 260.550 93.577, 260.745 90 C 261.108 83.340, 259.280 81.515, 252.170 81.441 C 249.011 81.408, 245.993 81.154, 245.463 80.877 C 244.933 80.599, 242.475 80.780, 240 81.280 M 421 81.841 C 424.616 83.531, 430 87.274, 430 88.099 C 430 88.594, 430.585 89, 431.299 89 C 432.397 89, 435 83.851, 435 81.679 C 435 81.306, 431.512 81.032, 427.250 81.070 C 422.988 81.109, 420.175 81.456, 421 81.841 M 551.502 82.004 C 551.843 82.556, 553.226 82.730, 554.574 82.392 C 555.923 82.054, 557.583 82.218, 558.263 82.757 C 558.943 83.296, 562.425 83.564, 566 83.351 C 573.695 82.893, 573.463 82.887, 587.500 83.836 C 593.550 84.245, 598.841 84.421, 599.258 84.226 C 599.674 84.032, 599.290 83.147, 598.404 82.261 C 597.038 80.896, 596.470 80.850, 594.691 81.961 C 593.180 82.905, 592.485 82.954, 592.212 82.136 C 591.946 81.337, 585.756 81, 571.358 81 C 557.912 81, 551.095 81.345, 551.502 82.004 M 526.196 98.750 C 526.069 106.683, 525.622 111, 524.927 111 C 524.208 111, 523.935 115.042, 524.100 123.250 L 524.347 135.500 521.423 136.132 C 518.607 136.740, 518.633 136.768, 522.142 136.882 L 525.783 137 526.473 118.750 C 526.853 108.713, 526.990 97.350, 526.777 93.500 C 526.509 88.631, 526.332 90.228, 526.196 98.750 M 73 152.634 L 73 208 112.500 208 C 138.167 208, 152 207.650, 152 207 C 152 206.400, 148 206, 142 206 L 132 206 132 175 L 132 144 139.500 144 L 147 144 146.921 138.250 C 146.838 132.166, 146.554 132.166, 145.537 138.250 L 144.909 142 138.497 142 L 132.084 142 131.792 134.261 C 131.563 128.184, 131.163 126.457, 129.933 126.223 C 128.609 125.970, 128.436 126.895, 128.812 132.212 C 129.057 135.670, 129.580 138.725, 129.973 139 C 130.366 139.275, 130.790 147.103, 130.916 156.397 C 131.093 169.504, 130.847 173.484, 129.822 174.147 C 128.748 174.840, 128.781 175.184, 130 175.985 C 131.003 176.643, 131.086 176.974, 130.250 176.985 C 129.563 176.993, 129 177.675, 129 178.500 C 129 179.325, 129.450 180, 130 180 C 131.364 180, 131.284 192.707, 129.915 193.553 C 129.273 193.949, 128.967 196.527, 129.165 199.862 L 129.500 205.500 102.365 205.679 L 75.230 205.859 74.706 199.679 C 74.418 196.281, 74.254 172.162, 74.341 146.082 L 74.500 98.663 82 98.792 C 91.160 98.950, 90.143 98.323, 80.250 97.713 L 73 97.267 73 152.634 M 112 98 L 107.500 98.700 111.691 98.850 C 113.996 98.932, 116.160 98.550, 116.500 98 C 116.840 97.450, 116.979 97.068, 116.809 97.150 C 116.639 97.233, 114.475 97.615, 112 98 M 244.500 103 C 243.400 103.473, 241.121 103.891, 239.435 103.930 C 236.942 103.987, 236.056 104.659, 234.685 107.534 C 232.679 111.741, 232.552 116.826, 234.392 119.250 C 235.439 120.629, 237.233 121, 242.860 121 L 250 121 250 117.500 C 250 115.575, 250.341 114, 250.757 114 C 251.837 114, 250.988 104.749, 249.770 103.250 C 248.616 101.828, 247.365 101.769, 244.500 103 M 421 107.629 C 418.525 108.416, 415.654 108.849, 414.619 108.590 C 413.585 108.331, 412.122 108.735, 411.369 109.488 C 409.800 111.057, 409.492 119, 411 119 C 411.550 119, 412 120.104, 412 121.453 C 412 124.333, 413.954 129, 415.161 129 C 415.622 129, 416 129.663, 416 130.474 C 416 132.423, 421.659 135.352, 425.777 135.535 C 429.155 135.684, 430.875 134.464, 436.160 128.168 C 437.623 126.426, 439.760 125, 440.910 125 C 442.059 125, 443 124.580, 443 124.067 C 443 123.554, 443.850 122.865, 444.890 122.535 C 447.317 121.765, 448.197 117.340, 446.301 115.444 C 444.293 113.436, 442.240 113.642, 440.768 116 C 438.716 119.286, 434.003 118.630, 430.797 114.613 C 429.311 112.750, 427.800 110.050, 427.439 108.613 C 427.078 107.176, 426.494 106.044, 426.142 106.099 C 425.789 106.153, 423.475 106.842, 421 107.629 M 215.735 109.750 C 214.359 111.279, 214.334 111.913, 215.538 114.765 C 216.296 116.561, 217.630 118.304, 218.501 118.639 C 220.967 119.585, 221.173 118.563, 218.989 116.219 C 216.193 113.217, 216.413 111.826, 219.500 113 C 221.585 113.793, 222 113.656, 222 112.175 C 222 110.162, 220.164 108, 218.455 108 C 217.825 108, 216.601 108.787, 215.735 109.750 M 613 130 C 613 142, 613.368 149, 614 149 C 614.632 149, 615 142, 615 130 C 615 118, 614.632 111, 614 111 C 613.368 111, 613 118, 613 130 M 662.769 158.500 L 663.038 206 656.519 206 L 650 206 650 197.500 C 650 192.014, 649.612 189, 648.906 189 C 648.169 189, 648.036 187.372, 648.500 184 C 648.943 180.778, 648.820 179, 648.153 179 C 646.045 179, 645.801 181.399, 647 190.339 C 648.137 198.820, 648.068 200.094, 646.071 207.500 C 642.639 220.228, 642.677 220, 643.967 220 C 644.627 220, 644.993 219.478, 644.780 218.839 C 644.567 218.201, 645.403 216.589, 646.638 215.257 C 647.872 213.925, 649.021 211.859, 649.191 210.667 C 649.488 208.585, 650.021 208.489, 662.750 208.221 C 670.461 208.059, 676 207.536, 676 206.971 C 676 206.437, 673.300 206, 670 206 L 664 206 664 158.500 C 664 132.375, 663.663 111, 663.250 111 C 662.837 111, 662.621 132.375, 662.769 158.500 M 558.694 114.313 C 557.335 115.516, 555.918 117.513, 555.544 118.750 C 555.171 119.987, 554.393 121, 553.816 121 C 553.239 121, 553.002 121.900, 553.290 123 C 553.577 124.100, 553.405 125, 552.906 125 C 552.408 125, 552 125.675, 552 126.500 C 552 129.495, 553.982 128.086, 555.515 124 C 557.646 118.321, 558.523 116.790, 560.143 115.923 C 562.660 114.576, 566.073 115.645, 565.342 117.551 C 565.036 118.348, 565.284 119, 565.893 119 C 566.502 119, 567 119.914, 567 121.031 C 567 122.149, 567.625 123.303, 568.389 123.596 C 569.193 123.904, 569.565 124.946, 569.273 126.065 C 568.994 127.129, 569.269 128, 569.883 128 C 570.498 128, 571 129.098, 571 130.441 C 571 131.784, 571.468 133.171, 572.041 133.525 C 572.613 133.879, 572.790 135.087, 572.434 136.209 C 572.002 137.570, 572.155 138.022, 572.893 137.566 C 574.224 136.744, 574.371 132.347, 573.094 131.558 C 572.596 131.250, 572.423 130.098, 572.711 128.999 C 573.003 127.882, 572.741 127, 572.117 127 C 571.502 127, 571.071 126.662, 571.159 126.250 C 571.246 125.838, 570.979 124.600, 570.565 123.500 C 570.151 122.400, 569.364 120.295, 568.815 118.822 C 566.738 113.248, 562.188 111.220, 558.694 114.313 M 440.571 118.571 C 439.044 120.098, 438.401 123, 439.590 123 C 440.358 123, 443.924 118.723, 443.967 117.750 C 444.023 116.482, 442.226 116.917, 440.571 118.571 M 180.136 135.250 C 180.280 142.885, 180.727 142.052, 181.211 133.249 C 181.370 130.362, 181.162 127.999, 180.750 127.999 C 180.338 128, 180.061 131.262, 180.136 135.250 M 551 131.741 C 551 133.313, 550.503 135.097, 549.896 135.704 C 549.105 136.495, 549.097 137.330, 549.866 138.654 C 550.819 140.294, 550.943 140.193, 550.970 137.750 C 550.986 136.238, 551.450 135, 552 135 C 552.550 135, 553 133.902, 553 132.559 C 553 131.216, 552.550 129.840, 552 129.500 C 551.422 129.143, 551 130.090, 551 131.741 M 456 144 C 456 144.550, 457.313 145, 458.918 145 C 460.523 145, 462.548 145.273, 463.418 145.607 C 464.456 146.005, 465 145.662, 465 144.607 C 465 143.369, 463.966 143, 460.500 143 C 458.025 143, 456 143.450, 456 144 M 632.033 146.689 C 628.121 149.430, 625.885 152.005, 626.523 153.036 C 626.850 153.566, 626.681 154, 626.147 154 C 625.613 154, 624.872 155.798, 624.501 157.995 C 624.130 160.192, 623.397 162.255, 622.872 162.579 C 622.348 162.903, 622.210 164.087, 622.566 165.209 C 622.925 166.338, 622.711 167.560, 622.090 167.945 C 620.635 168.844, 619.324 185, 620.705 185 C 621.256 185, 621.999 181.538, 622.357 177.307 C 622.715 173.076, 623.416 169.361, 623.915 169.053 C 624.414 168.744, 625.332 165.683, 625.955 162.250 C 627.184 155.469, 630.412 149.447, 633.360 148.434 C 635.405 147.732, 641 152.952, 641 155.562 C 641 156.353, 641.681 157, 642.513 157 C 643.863 157, 643.862 156.606, 642.504 153.356 C 641.066 149.913, 636.754 145, 635.171 145 C 634.772 145, 633.360 145.760, 632.033 146.689 M 547.517 153.244 C 546.077 169.213, 546.896 187, 549.072 187 C 550.439 187, 550.201 182.613, 548.750 181.075 C 547.989 180.268, 547.891 179.603, 548.500 179.374 C 549.653 178.941, 549.641 160.475, 548.486 157.683 C 548.058 156.647, 548.221 155.379, 548.867 154.733 C 550.222 153.378, 550.383 147.354, 549.086 146.553 C 548.583 146.242, 547.877 149.253, 547.517 153.244 M 573.455 151.634 C 574.701 162.821, 575.125 179.145, 574.200 180.321 C 573.690 180.969, 572.980 183.419, 572.622 185.764 C 572.003 189.822, 569.151 194, 567 194 C 566.450 194, 566 194.450, 566 195 C 566 195.550, 565.550 196, 565 196 C 564.393 196, 564 191.583, 564 184.750 L 564 173.500 567.750 170.343 C 571.977 166.785, 571.420 164.649, 566.935 167.222 L 564 168.907 564 158.453 C 564 149.828, 563.738 148, 562.500 148 C 561.459 148, 561 149.046, 561 151.417 C 561 153.296, 560.438 155.037, 559.750 155.286 C 558.750 155.648, 558.750 156.162, 559.750 157.856 C 560.572 159.248, 561 164.288, 561 172.568 L 561 185.163 557.250 182.874 C 555.188 181.615, 553.350 180.229, 553.167 179.793 C 552.610 178.469, 551 178.907, 551 180.381 C 551 181.815, 556.194 186.166, 559.250 187.292 C 560.442 187.732, 561 189.010, 561 191.302 C 561 193.153, 560.743 194.923, 560.429 195.237 C 559.630 196.037, 555.223 193.617, 552.859 191.080 C 550.237 188.265, 548.568 189.411, 550.654 192.594 C 551.657 194.125, 553.963 195.533, 556.642 196.249 C 560.928 197.396, 561 197.486, 561 201.707 L 561 206 538.500 206 L 516 206 516 202.500 C 516 200.575, 515.550 199, 515 199 C 514.450 199, 514 198.073, 514 196.941 C 514 195.809, 513.550 195.160, 513 195.500 C 511.638 196.342, 511.729 200, 513.111 200 C 513.848 200, 513.992 201.228, 513.539 203.646 C 513.070 206.143, 513.254 207.539, 514.121 208.074 C 515.248 208.772, 515.658 212.169, 515.971 223.429 C 516.016 225.040, 516.436 226.840, 516.905 227.429 C 518.275 229.151, 517.877 240.294, 516.367 242.473 C 515.615 243.557, 515 245.164, 515 246.042 C 515 249.031, 503.941 259, 500.626 259 C 499.797 259, 498.840 259.450, 498.500 260 C 497.742 261.226, 490 261.343, 490 260.128 C 490 259.648, 488.313 258.978, 486.250 258.639 C 482.612 258.041, 473.160 253.755, 472.049 252.200 C 471.445 251.354, 460.232 243.799, 458.395 243 C 457.028 242.405, 448.645 235.423, 445.538 232.291 C 443.483 230.220, 438 227.480, 438 228.525 C 438 230.037, 451.101 241, 452.908 241 C 453.509 241, 454 241.407, 454 241.905 C 454 242.891, 466.562 252.399, 469 253.259 C 469.825 253.550, 467.688 253.800, 464.250 253.813 C 460.813 253.827, 458 253.521, 458 253.132 C 458 252.744, 452.150 252.609, 445 252.831 C 435.477 253.128, 432 252.922, 432 252.061 C 432 251.226, 429.032 250.935, 421.750 251.054 L 411.500 251.223 411.732 246.712 C 411.895 243.559, 411.535 242.035, 410.536 241.652 C 409.370 241.205, 409.215 242.016, 409.693 246.052 L 410.279 251 392.639 251 C 380.387 251, 375 251.339, 375 252.109 C 375 252.788, 373.645 253.061, 371.516 252.812 C 369.599 252.588, 367.894 252.818, 367.726 253.323 C 367.557 253.828, 365.705 254.345, 363.610 254.473 C 361.515 254.600, 359.508 255.134, 359.150 255.659 C 358.793 256.184, 356.925 257.237, 355 257.998 C 353.075 258.760, 351.140 259.971, 350.700 260.691 C 350.260 261.411, 349.509 262, 349.030 262 C 348.550 262, 346.243 263.897, 343.901 266.215 C 341.367 268.724, 339.479 269.936, 339.236 269.209 C 339.012 268.537, 338.367 268.273, 337.803 268.622 C 337.238 268.971, 336.489 268.805, 336.138 268.254 C 335.214 266.803, 329 265.602, 329 266.875 C 329 267.444, 330.575 268.205, 332.500 268.566 C 334.425 268.927, 336 269.592, 336 270.044 C 336 270.496, 337.012 271.178, 338.250 271.559 C 340.815 272.351, 341.381 272.811, 349.250 280.508 C 352.413 283.601, 355 286.585, 355 287.138 C 355 287.691, 355.677 288.820, 356.505 289.648 C 357.332 290.475, 358.513 293.151, 359.128 295.593 C 360.303 300.261, 361.431 301.730, 362.505 299.993 C 363.714 298.036, 358.785 287.299, 354.231 281.966 C 353.542 281.160, 352.050 279.262, 350.917 277.750 C 349.783 276.238, 348.325 274.992, 347.677 274.983 C 347.030 274.973, 345.455 273.864, 344.179 272.518 L 341.857 270.070 343.929 267.846 C 345.068 266.623, 346 265.928, 346 266.302 C 346 266.927, 348.549 265.080, 351.408 262.382 C 352.060 261.767, 353.585 260.949, 354.797 260.565 C 356.008 260.180, 357 259.419, 357 258.874 C 357 258.328, 357.453 258.162, 358.008 258.505 C 358.562 258.847, 359.719 258.424, 360.579 257.564 C 361.439 256.704, 363.434 256, 365.012 256 C 366.591 256, 368.161 255.549, 368.501 254.998 C 368.858 254.421, 370.793 254.263, 373.060 254.626 C 375.690 255.046, 377 254.881, 377 254.128 C 377 253.329, 382.693 253, 396.500 253 C 407.998 253, 416 253.386, 416 253.940 C 416 254.456, 417.688 255.019, 419.750 255.190 L 423.500 255.500 418.714 257.857 C 412.954 260.693, 404.004 268.681, 399.895 274.652 C 398.250 277.043, 397.206 279, 397.574 279 C 397.943 279, 397.627 279.744, 396.872 280.654 C 396.118 281.563, 395.644 282.351, 395.820 282.404 C 395.996 282.457, 395.614 283.850, 394.969 285.500 C 394.246 287.352, 393.895 293.094, 394.052 300.500 C 394.527 322.945, 394.230 331, 392.928 331 C 392.430 331, 392.052 332.012, 392.088 333.250 C 392.124 334.488, 391.680 337.300, 391.101 339.500 C 390.522 341.700, 390.037 345.600, 390.024 348.167 C 390.011 350.733, 389.523 352.992, 388.940 353.187 C 388.357 353.381, 387.795 356.456, 387.690 360.020 C 387.583 363.672, 386.940 367.092, 386.216 367.855 C 385.473 368.640, 385.209 370.114, 385.590 371.355 C 387.115 376.324, 387.589 375.294, 388.948 364.048 C 389.576 358.850, 390.578 354.009, 391.174 353.290 C 391.784 352.556, 392.039 350.035, 391.757 347.533 C 391.481 345.085, 391.656 342.948, 392.146 342.785 C 392.636 342.621, 393.316 340.128, 393.658 337.244 C 393.999 334.360, 394.666 332, 395.139 332 C 395.613 332, 396 331.100, 396 330 C 396 328.900, 396.435 328, 396.967 328 C 397.500 328, 397.799 330.239, 397.635 332.992 C 397.413 336.701, 397.795 338.476, 399.120 339.899 C 400.417 341.290, 400.751 342.760, 400.343 345.275 C 400.027 347.219, 400.487 351.162, 401.391 354.272 C 402.276 357.317, 403 360.976, 403 362.404 C 403 363.832, 403.470 365, 404.045 365 C 404.698 365, 404.844 366.313, 404.434 368.500 C 403.828 371.730, 405.029 373.380, 406.387 371.183 C 407.118 370, 404.696 358, 403.726 358 C 403.277 358, 403.205 356.425, 403.566 354.500 C 403.943 352.490, 403.817 351, 403.270 351 C 402.746 351, 402.344 349.762, 402.377 348.250 C 402.475 343.755, 400.811 335, 399.859 335 C 399.374 335, 399.250 333.288, 399.585 331.195 C 399.955 328.882, 399.567 325.282, 398.597 322.013 C 397.718 319.056, 397 315.369, 397 313.818 C 397 312.268, 396.663 311, 396.250 311 C 395.837 311, 395.500 305.825, 395.500 299.500 C 395.500 293.175, 395.802 288, 396.171 288 C 396.539 288, 397.158 286.538, 397.546 284.750 C 397.934 282.962, 398.532 281.275, 398.876 281 C 399.219 280.725, 400.307 278.925, 401.293 277 C 403.782 272.140, 410.137 265.600, 413.874 264.052 C 415.593 263.340, 417 262.433, 417 262.037 C 417 261.641, 418.913 260.746, 421.250 260.048 C 423.587 259.350, 425.761 258.363, 426.081 257.854 C 426.400 257.345, 428.425 256.684, 430.581 256.385 C 432.736 256.085, 435.441 255.388, 436.592 254.836 C 439.885 253.255, 473.818 256.093, 475.030 258.051 C 475.322 258.521, 478.584 259.480, 482.280 260.181 C 485.976 260.882, 489 261.803, 489 262.228 C 489 262.653, 491.250 263, 494 263 C 496.750 263, 499 262.608, 499 262.128 C 499 261.648, 500.710 260.982, 502.800 260.648 C 507.315 259.926, 515.561 252.598, 516.624 248.363 C 517.001 246.862, 517.912 244.478, 518.648 243.067 C 520.205 240.084, 520.474 227.411, 519 226.500 C 518.450 226.160, 518 224.424, 518 222.641 C 518 220.858, 517.624 218.972, 517.165 218.450 C 516.706 217.928, 516.527 215.354, 516.767 212.731 L 517.204 207.962 538.852 208.231 L 560.500 208.500 560.787 218.321 C 560.996 225.472, 561.404 228.033, 562.287 227.740 C 563.099 227.471, 563.595 224.139, 563.786 217.669 L 564.072 208 572.473 208 L 580.874 208 580.352 211.750 C 580.065 213.813, 579.572 216.175, 579.257 217 C 578.942 217.825, 578.775 219.063, 578.886 219.750 C 578.997 220.438, 578.663 221, 578.145 221 C 577.626 221, 577.039 223.037, 576.841 225.527 C 576.553 229.149, 576.783 229.995, 577.991 229.758 C 578.998 229.561, 579.393 228.554, 579.178 226.731 C 579.002 225.229, 579.297 224, 579.835 224 C 580.372 224, 581.165 221.637, 581.596 218.750 C 582.379 213.503, 582.536 212.658, 582.993 211.250 C 583.127 210.838, 583.184 210.162, 583.118 209.750 C 583.053 209.338, 583.410 209, 583.912 209 C 584.414 209, 585.130 207.191, 585.503 204.980 C 585.877 202.769, 586.816 200.326, 587.591 199.552 C 588.366 198.777, 589 197.661, 589 197.071 C 589 195.167, 591.159 195.932, 593.235 198.571 C 594.783 200.539, 595.521 200.862, 596.379 199.946 C 597.211 199.059, 597.173 198.630, 596.232 198.286 C 595.535 198.030, 594.329 197.187, 593.554 196.411 C 592.778 195.635, 591.243 195, 590.144 195 C 587.894 195, 584 199.395, 584 201.935 C 584 205.196, 581.786 206, 572.800 206 L 564 206 564 201.608 C 564 197.682, 564.283 197.146, 566.674 196.546 C 570 195.711, 573.960 192.061, 573.983 189.809 C 573.992 188.879, 574.430 187.852, 574.956 187.527 C 575.482 187.202, 575.659 186.275, 575.349 185.468 C 575.040 184.661, 575.172 184, 575.643 184 C 576.114 184, 576.500 177.475, 576.500 169.500 C 576.500 161.525, 576.124 155, 575.664 155 C 575.204 155, 574.979 153.128, 575.164 150.841 C 575.393 148.003, 575.071 146.537, 574.151 146.225 C 573.073 145.859, 572.933 146.946, 573.455 151.634 M 421 148.500 C 421 149.530, 421.655 150.020, 422.750 149.810 C 424.858 149.404, 424.725 147.629, 422.553 147.177 C 421.647 146.988, 421 147.539, 421 148.500 M 643.579 166.250 C 644.347 169.137, 644.982 172.689, 644.988 174.143 C 644.999 176.572, 647.526 178.807, 648.810 177.524 C 649.098 177.236, 648.858 177, 648.278 177 C 647.697 177, 647.259 176.438, 647.304 175.750 C 647.496 172.821, 645.669 164, 644.871 164 C 644.392 164, 644 163.325, 644 162.500 C 644 161.675, 643.591 161, 643.091 161 C 642.590 161, 642.810 163.363, 643.579 166.250 M 356.667 163.667 C 355.418 164.916, 355.995 165.939, 357.601 165.323 C 358.481 164.985, 359.494 165.113, 359.851 165.607 C 360.208 166.101, 362.497 167.854, 364.939 169.503 C 370.362 173.165, 373.074 175.817, 374.862 179.206 C 376.585 182.472, 384.829 191.504, 385.486 190.847 C 386.128 190.205, 383.720 185.018, 382.776 185.008 C 382.377 185.004, 381.398 183.762, 380.600 182.250 C 377.986 177.298, 364.939 165.042, 362.250 165.013 C 361.563 165.006, 361 164.550, 361 164 C 361 162.883, 357.704 162.629, 356.667 163.667 M 344.554 170.087 C 344.923 170.685, 346.047 170.959, 347.051 170.697 C 348.367 170.353, 349.312 171.137, 350.438 173.511 C 351.297 175.321, 352 177.297, 352 177.901 C 352 179.363, 353.729 179.313, 354.221 177.837 C 354.900 175.800, 351.725 170.162, 349.574 169.584 C 346.179 168.672, 343.825 168.908, 344.554 170.087 M 323 173.917 C 323 174.421, 323.510 175.003, 324.134 175.211 C 324.877 175.459, 324.705 176.152, 323.634 177.223 C 322.735 178.122, 322 179.708, 322 180.748 C 322 183.091, 326.343 187, 328.946 187 C 330.416 187, 330.832 187.633, 330.688 189.653 C 330.537 191.787, 331.054 192.459, 333.335 193.089 C 336.353 193.923, 339 193.364, 339 191.893 C 339 191.402, 337.425 191, 335.500 191 C 331.878 191, 330.812 189.670, 333.582 188.607 C 334.452 188.273, 336.964 188, 339.165 188 C 344.188 188, 343.942 185.542, 338.906 185.412 C 329.013 185.158, 326.930 184.922, 327.430 184.114 C 327.731 183.626, 327.083 182.993, 325.989 182.707 C 324.895 182.421, 324 181.695, 324 181.094 C 324 180.383, 327.153 180, 333 180 C 338.333 180, 342 179.593, 342 179 C 342 178.450, 339.503 178, 336.450 178 C 330.998 178, 325 175.891, 325 173.974 C 325 173.438, 324.550 173, 324 173 C 323.450 173, 323 173.412, 323 173.917 M 387.314 177.888 C 386.893 179.564, 387.301 180.756, 388.683 181.888 C 392.459 184.981, 397.729 193.460, 397.792 196.546 C 397.840 198.888, 399.357 201.162, 404.355 206.386 C 407.930 210.124, 411.099 213.816, 411.396 214.591 C 411.756 215.527, 413.517 216, 416.640 216 C 419.545 216, 422.018 216.611, 423.108 217.598 C 425.173 219.466, 427.756 218.573, 425.758 216.682 C 425.066 216.027, 421.238 213.925, 417.250 212.009 C 409.797 208.429, 408.107 206.915, 412.500 207.755 C 413.875 208.018, 415 208.617, 415 209.085 C 415 209.554, 415.675 209.678, 416.500 209.362 C 417.325 209.045, 418 209.284, 418 209.893 C 418 210.502, 418.675 211, 419.500 211 C 420.325 211, 421 210.647, 421 210.216 C 421 209.138, 415.541 206, 413.667 206 C 412.829 206, 411.527 205.384, 410.775 204.632 C 410.022 203.879, 408.303 202.914, 406.953 202.487 C 404.092 201.581, 400.077 198.833, 400.031 197.750 C 400.014 197.338, 401.800 197, 404 197 C 406.200 197, 408 197.407, 408 197.905 C 408 199.087, 415.723 203.530, 419.250 204.377 C 425.678 205.922, 419.846 201.842, 405.274 194.600 C 402.950 193.445, 401.037 192.162, 401.024 191.750 C 400.984 190.484, 404.869 190.915, 408.782 192.612 C 414.351 195.026, 428.366 198.030, 429.373 197.025 C 429.870 196.529, 429.267 194.780, 427.974 192.964 L 425.703 189.774 430.101 190.497 C 432.521 190.895, 436.975 192.586, 440 194.254 C 451.866 200.799, 452.996 201.337, 453.603 200.730 C 454.486 199.847, 448.844 195.070, 446.872 195.032 C 445.977 195.014, 444.663 194.299, 443.952 193.442 C 442.198 191.329, 436.393 189, 432.878 189 C 431.295 189, 430 188.550, 430 188 C 430 187.450, 428.687 187, 427.082 187 C 423.503 187, 421 186.106, 421 184.826 C 421 183.134, 415.812 177, 414.381 177 C 413.622 177, 413 176.662, 413 176.250 C 413 175.838, 407.356 175.500, 400.457 175.500 C 388.069 175.500, 387.907 175.530, 387.314 177.888 M 635 181.441 C 635 184.333, 634.625 185, 633 185 C 631.900 185, 631 185.244, 631 185.542 C 631 185.840, 631.900 187.050, 633 188.230 C 634.744 190.102, 635 191.759, 635 201.172 L 635 211.968 631.250 210.234 C 629.188 209.280, 627.350 208.162, 627.167 207.750 C 626.983 207.338, 626.158 207, 625.333 207 C 622.833 207, 624.399 209.251, 628.311 211.282 C 630.340 212.335, 632 213.602, 632 214.098 C 632 214.594, 632.675 215, 633.500 215 C 635.575 215, 635.388 218.674, 633.250 219.920 C 631.583 220.891, 631.583 220.941, 633.250 220.970 C 635.161 221.003, 635.402 223.587, 635.140 241.250 C 635.056 246.874, 635.392 250, 636.079 250 C 636.803 250, 637.043 245.325, 636.824 235.499 C 636.646 227.523, 636.864 220.998, 637.309 220.999 C 637.754 220.999, 637.811 220.504, 637.437 219.897 C 637.062 219.291, 636.753 214.569, 636.750 209.404 C 636.744 199.570, 637.650 197, 641.122 197 C 642.155 197, 643 196.325, 643 195.500 C 643 193.692, 641.833 193.567, 640.200 195.200 C 639.540 195.860, 638.993 195.972, 638.985 195.450 C 638.976 194.928, 638.533 195.175, 638 196 C 637.335 197.029, 637.026 194.612, 637.015 188.309 C 637.007 183.254, 636.550 178.840, 636 178.500 C 635.405 178.132, 635 179.323, 635 181.441 M 208.256 185.500 C 208.234 188.250, 208.552 193.200, 208.962 196.500 L 209.706 202.500 209.744 197.500 C 209.766 194.750, 209.448 189.800, 209.038 186.500 L 208.294 180.500 208.256 185.500 M 355.613 190.720 C 355.217 191.116, 353.291 191.303, 351.334 191.134 C 348.708 190.908, 347.899 191.178, 348.247 192.164 C 348.526 192.957, 349.938 193.405, 351.718 193.265 C 353.664 193.113, 355.349 193.728, 356.514 195.015 C 357.502 196.107, 358.038 197, 357.706 197 C 357.374 197, 357.754 198.561, 358.551 200.468 C 359.348 202.375, 360 204.400, 360 204.968 C 360 206.087, 306.443 206.491, 303.582 205.393 C 302.712 205.059, 301.986 204.047, 301.970 203.143 C 301.944 201.751, 301.773 201.786, 300.853 203.369 C 300.118 204.634, 300.099 205.443, 300.792 205.871 C 301.355 206.220, 302.133 208.191, 302.520 210.252 C 303.259 214.193, 305 215.420, 305 212 C 305 210.900, 304.438 209.993, 303.750 209.985 C 302.917 209.974, 303 209.646, 304 209 C 304.877 208.433, 317.238 208.024, 333.750 208.015 C 357.379 208.003, 362 208.230, 362 209.408 C 362 211.377, 367.098 221, 368.142 221 C 369.484 221, 369.151 219.293, 367.482 217.625 C 366.647 216.790, 366.056 215.746, 366.168 215.304 C 366.280 214.862, 365.566 212.700, 364.581 210.500 C 363.596 208.300, 362.693 205.825, 362.575 205 C 362.456 204.175, 362.009 202.600, 361.582 201.500 C 358.145 192.656, 358.008 192.066, 359.524 192.648 C 360.448 193.002, 361 192.613, 361 191.607 C 361 189.961, 357.026 189.307, 355.613 190.720 M 386.001 192.749 C 386 193.436, 387.800 195.852, 390 198.119 C 392.200 200.386, 394 202.637, 394 203.121 C 394 203.604, 394.675 204, 395.500 204 C 396.325 204, 396.986 203.662, 396.969 203.250 C 396.914 201.909, 386.001 191.461, 386.001 192.749 M 467.206 198.568 C 465.974 199.431, 465.212 200.533, 465.511 201.018 C 466.361 202.392, 459.034 203.434, 457.725 202.125 C 456.347 200.747, 455 200.665, 455 201.960 C 455 203.539, 460.151 207.821, 462.874 208.504 C 464.269 208.855, 466.019 210.009, 466.762 211.071 C 467.505 212.132, 468.763 213, 469.557 213 C 470.351 213, 471 213.441, 471 213.981 C 471 214.520, 472.131 215.246, 473.513 215.593 C 474.895 215.939, 476.411 216.911, 476.881 217.752 C 477.352 218.593, 478.246 218.966, 478.868 218.581 C 480.211 217.751, 480.395 211.362, 479.098 210.561 C 478.603 210.254, 477.883 207.303, 477.500 204.002 C 477.117 200.701, 476.398 198, 475.902 198 C 474.850 198, 474.847 201.403, 475.894 208.750 C 476.660 214.134, 476.172 215.029, 473.775 212.632 C 473.022 211.879, 471.486 210.972, 470.362 210.615 C 469.237 210.258, 467.312 208.897, 466.085 207.591 C 463.856 205.218, 463.856 205.214, 465.880 203.797 C 466.994 203.016, 468.366 201.168, 468.928 199.689 C 470.126 196.538, 470.115 196.530, 467.206 198.568 M 596.390 205.250 C 596.615 207.248, 599.177 215.954, 600.731 220 C 601.048 220.825, 601.217 222.248, 601.106 223.161 C 600.995 224.075, 601.379 225.116, 601.959 225.475 C 603.564 226.466, 604.472 222.985, 603.158 220.881 C 602.521 219.861, 602 218.121, 602 217.014 C 602 215.906, 601.640 215, 601.201 215 C 600.761 215, 600.587 213.409, 600.814 211.464 L 601.227 207.928 610.325 208.214 L 619.423 208.500 620.038 211.521 C 620.834 215.425, 623.843 220, 625.615 220 C 627.587 220, 627.332 218.734, 624.818 216.035 C 623.617 214.746, 622.373 212.074, 622.052 210.096 L 621.469 206.500 610.191 206.217 C 601.390 205.996, 598.788 205.611, 598.349 204.467 C 597.476 202.191, 596.107 202.738, 596.390 205.250 M 270 209.632 C 270 209.979, 271.607 211.779, 273.571 213.632 C 275.535 215.484, 276.860 217, 276.514 217 C 276.169 217, 276.587 218, 277.443 219.223 C 278.299 220.445, 279 223.107, 279 225.139 C 279 227.171, 279.563 229.062, 280.250 229.341 C 281.164 229.711, 281.196 230.070, 280.368 230.674 C 279.746 231.128, 279.223 233.075, 279.205 235 C 279.159 240.201, 278.008 243, 275.915 243 C 274.679 243, 274.254 242.501, 274.638 241.500 C 274.955 240.675, 274.749 240, 274.180 240 C 273.612 240, 272.954 239.438, 272.719 238.750 C 272.484 238.063, 272.435 238.414, 272.610 239.530 C 273.169 243.098, 271.891 246, 269.761 246 C 268.067 246, 267.954 246.240, 269.035 247.542 C 270.005 248.711, 270.034 249.366, 269.158 250.242 C 268.521 250.879, 268 252.252, 268 253.294 C 268 254.346, 267.112 255.420, 266 255.710 C 264.900 255.998, 264 256.842, 264 257.585 C 264 258.376, 263.378 258.698, 262.500 258.362 C 261.675 258.045, 261 258.312, 261 258.956 C 261 259.599, 261.879 259.985, 262.952 259.813 C 264.026 259.641, 265.489 260.275, 266.202 261.222 C 268.173 263.836, 284.234 264.004, 287.067 261.439 C 289.019 259.673, 289.147 259.692, 291.577 262.122 C 293.955 264.501, 294.003 264.766, 292.545 267.561 C 291.702 269.178, 291.010 271.486, 291.006 272.691 C 291.003 273.896, 290.547 275.162, 289.993 275.505 C 289.439 275.847, 288.159 277.786, 287.149 279.814 C 284.075 285.986, 281.564 290.338, 280.250 291.776 C 279.563 292.528, 279 293.927, 279 294.884 C 279 295.842, 277.647 297.922, 275.993 299.506 C 271.671 303.648, 270.252 301.922, 271.905 294.533 C 272.586 291.490, 273.540 289, 274.025 289 C 274.509 289, 275.375 287.313, 275.947 285.250 C 277.231 280.628, 277.245 280, 276.067 280 C 275.118 280, 273.441 283.885, 273.802 285.250 C 273.911 285.663, 273.523 286, 272.941 286 C 272.359 286, 272.129 286.399, 272.430 286.887 C 272.731 287.374, 272.308 288.329, 271.489 289.009 C 270.670 289.689, 270 291.315, 270 292.622 C 270 293.930, 269.512 295, 268.917 295 C 268.321 295, 268.019 295.558, 268.247 296.240 C 268.824 297.971, 264.516 301.135, 262.589 300.396 C 260.827 299.720, 260.292 293, 262 293 C 262.550 293, 263 292.094, 263 290.986 C 263 289.121, 264.741 285.162, 266.073 284 C 266.388 283.725, 266.936 282.712, 267.292 281.750 C 268.238 279.184, 265.763 279.563, 264.026 282.250 C 259.658 289.006, 258.910 291.268, 259.203 296.835 L 259.500 302.500 264 302.605 C 266.475 302.663, 269.249 303.034, 270.166 303.430 C 273.806 305.002, 277.441 303.622, 279.197 300 C 280.130 298.075, 281.280 296.050, 281.752 295.500 C 282.225 294.950, 283.259 293.038, 284.050 291.250 C 284.841 289.462, 285.814 288, 286.213 288 C 286.611 288, 286.678 287.325, 286.362 286.500 C 286.045 285.675, 286.246 285, 286.809 285 C 288.219 285, 293.362 291.798, 294.943 295.750 C 295.658 297.538, 296.623 299, 297.087 299 C 297.551 299, 298.230 301.250, 298.594 304 C 298.959 306.750, 299.698 309, 300.237 309 C 300.783 309, 300.939 310.108, 300.589 311.500 C 300.228 312.942, 300.393 314, 300.981 314 C 301.541 314, 302 315.800, 302 318 C 302 320.200, 302.450 322, 303 322 C 304.278 322, 304.318 312.315, 303.044 311.527 C 302.518 311.202, 302.341 310.275, 302.651 309.468 C 302.960 308.661, 302.774 308, 302.236 308 C 301.698 308, 300.959 305.750, 300.594 303 C 300.230 300.250, 299.515 298, 299.006 298 C 298.497 298, 297.541 296.200, 296.882 294 C 296.223 291.800, 295.385 290, 295.019 290 C 294.654 290, 293.136 288.138, 291.647 285.863 C 289.163 282.070, 289.069 281.581, 290.512 279.987 C 291.377 279.031, 292.350 276.617, 292.674 274.624 C 292.997 272.631, 293.622 271, 294.063 271 C 294.504 271, 295.155 270.088, 295.508 268.974 C 295.862 267.860, 297.316 265.170, 298.739 262.996 C 301.528 258.736, 302.710 258.579, 309.500 261.572 C 311.150 262.300, 315.142 263.767, 318.371 264.833 L 324.241 266.771 321.465 264.386 C 319.938 263.073, 317.859 262, 316.844 262 C 315.830 262, 315 261.502, 315 260.893 C 315 260.284, 314.419 260.009, 313.708 260.282 C 312.998 260.554, 311.562 260.153, 310.517 259.389 C 309.472 258.625, 307.616 258, 306.392 258 C 305.168 258, 303.975 257.438, 303.741 256.750 C 303.335 255.557, 304.424 250.186, 305.718 247 C 306.053 246.175, 306.373 245.275, 306.429 245 C 306.485 244.725, 306.906 243.908, 307.364 243.185 C 307.823 242.462, 307.908 240.324, 307.554 238.435 C 307.154 236.301, 307.305 235, 307.955 235 C 308.530 235, 309 232.975, 309 230.500 C 309 227.833, 308.542 226, 307.875 226 C 307.162 226, 306.967 224.917, 307.342 223.039 C 307.668 221.410, 307.499 219.809, 306.967 219.480 C 306.435 219.151, 305.986 217.896, 305.970 216.691 C 305.941 214.632, 305.874 214.613, 304.853 216.369 C 304.054 217.744, 304.081 218.432, 304.955 218.972 C 306.494 219.923, 306.589 241.304, 305.056 241.815 C 304.471 242.010, 304.273 243.239, 304.610 244.583 C 304.946 245.922, 304.775 247, 304.225 247 C 303.680 247, 302.986 247.946, 302.684 249.101 L 302.134 251.203 299.879 249.101 C 297.368 246.763, 296.413 246.523, 295.500 248 C 295.160 248.550, 295.348 249, 295.918 249 C 296.488 249, 297.663 250.082, 298.530 251.405 C 299.928 253.538, 299.942 254.204, 298.655 257.283 C 296.673 262.027, 295.293 262.608, 292.687 259.796 C 290.569 257.511, 290.540 257.236, 292.005 253.272 C 292.846 250.995, 293.864 248.803, 294.267 248.400 C 294.670 247.997, 295 246.617, 295 245.333 C 295 243.117, 294.659 243, 288.167 243 C 284.408 243, 281.069 242.736, 280.746 242.413 C 280.424 242.090, 280.839 239.539, 281.668 236.745 C 282.498 233.950, 282.950 230.501, 282.671 229.082 C 281.576 223.499, 280.105 218.679, 279.322 218.104 C 278.870 217.772, 278.500 216.980, 278.500 216.345 C 278.500 214.578, 273.179 209, 271.492 209 C 270.672 209, 270 209.284, 270 209.632 M 368.715 222.651 C 367.661 224.357, 371.406 230.602, 376.120 235 C 380.869 239.430, 384.496 240.904, 386.273 239.127 C 387.109 238.291, 386.832 238, 385.200 238 C 383.990 238, 383 237.523, 383 236.941 C 383 236.359, 382.649 236.099, 382.221 236.364 C 381.097 237.058, 370.827 225.980, 369.835 223.004 C 369.536 222.109, 369.130 221.981, 368.715 222.651 M 270 227.941 C 270 230.723, 270.393 233, 270.873 233 C 272.075 233, 272.157 224.215, 270.963 223.477 C 270.394 223.126, 270 224.953, 270 227.941 M 404.946 229.609 C 400.955 233.789, 394.719 238, 392.520 238 C 391.684 238, 391 238.509, 391 239.131 C 391 241.535, 398.300 239.060, 403.067 235.041 C 405.702 232.818, 408.038 231, 408.256 231 C 408.475 231, 408.518 232.463, 408.351 234.250 C 408.076 237.212, 408.127 237.278, 408.925 235 C 410.059 231.764, 410.232 226, 409.196 226 C 408.754 226, 406.842 227.624, 404.946 229.609 M 262.280 234.609 C 262.210 237.587, 262.597 240, 263.144 240 C 263.689 240, 263.849 239.100, 263.500 238 C 263.136 236.853, 263.320 236, 263.933 236 C 265.463 236, 265.255 230.312, 263.703 229.716 C 262.748 229.350, 262.373 230.639, 262.280 234.609 M 591 232.418 C 591 237.001, 590.132 238.988, 588.417 238.330 C 586.345 237.535, 586.687 239.687, 589 242 C 590.768 243.768, 591 245.333, 591 255.519 L 591 267.038 588.250 266.400 C 586.737 266.049, 584.448 265.105, 583.163 264.301 C 581.878 263.498, 580.587 263.080, 580.294 263.372 C 579.689 263.977, 582.458 267, 583.617 267 C 585.763 267, 590.987 271.721, 590.993 273.667 C 591.008 278.348, 584.851 277.157, 580.909 271.716 C 578.649 268.596, 578 266.618, 578 262.850 C 578 260.182, 577.550 258, 577 258 C 576.450 258, 576 255.750, 576 253 C 576 250.250, 576.450 248, 577 248 C 578.247 248, 578.350 233.335, 577.109 232.567 C 576.224 232.021, 575.063 242.915, 574.984 252.500 C 574.928 259.304, 576.630 271.146, 577.771 271.892 C 578.282 272.226, 579.234 273.512, 579.885 274.750 C 580.537 275.988, 581.730 277, 582.535 277 C 583.341 277, 584 277.459, 584 278.019 C 584 278.618, 585.075 278.768, 586.607 278.384 C 588.333 277.951, 589.511 278.198, 590.092 279.115 C 590.575 279.877, 590.976 287.137, 590.985 295.250 C 591.006 315.516, 592.867 314.685, 593.225 294.250 C 593.499 278.584, 593.512 278.501, 595.750 278.738 C 596.987 278.869, 598 278.532, 598 277.988 C 598 277.445, 598.572 277, 599.271 277 C 601.060 277, 605.446 268.606, 604.689 266.631 C 604.344 265.734, 604.499 265, 605.031 265 C 606.408 265, 606.309 238.309, 604.929 237.456 C 604.264 237.045, 604.116 235.275, 604.538 232.778 C 605.070 229.628, 604.923 228.861, 603.858 229.222 C 602.881 229.553, 602.640 230.920, 603 234.091 C 603.275 236.516, 603.500 244.575, 603.500 252 C 603.500 264.010, 603.251 266, 601.241 270.034 C 599.722 273.084, 598.004 274.938, 595.991 275.697 L 593 276.826 593.015 266.163 C 593.031 255.020, 593.239 254.198, 596.500 252.393 C 597.600 251.784, 598.662 250.462, 598.859 249.456 C 599.201 247.718, 599.091 247.711, 596.644 249.313 C 595.229 250.241, 593.830 251, 593.535 251 C 593.241 251, 593 246.050, 593 240 C 593 233.333, 592.606 229, 592 229 C 591.450 229, 591 230.538, 591 232.418 M 255.795 232 C 254.613 234.838, 254.023 243, 255 243 C 255.529 243, 256.227 241.945, 256.551 240.655 C 257.304 237.651, 256.635 229.983, 255.795 232 M 245.861 238.967 L 243.500 240.933 246.250 240.967 C 248.344 240.992, 249 240.523, 249 239 C 249 236.525, 248.794 236.523, 245.861 238.967 M 272.120 251.560 C 270.287 255.169, 268.948 258.271, 269.144 258.454 C 269.340 258.638, 272.845 258.948, 276.933 259.144 L 284.366 259.500 287.679 254 C 292.758 245.568, 292.477 245, 283.226 245 L 275.453 245 272.120 251.560 M 513.654 256.214 C 513.336 257.432, 513.483 258.680, 513.981 258.988 C 515.307 259.807, 515.763 287.004, 514.451 287.002 C 513.874 287.001, 512.792 288.688, 512.047 290.750 C 510.340 295.477, 506.275 301.681, 504.417 302.394 C 503.638 302.693, 503 303.626, 503 304.469 C 503 305.311, 502.438 306.001, 501.750 306.001 C 500.415 306.003, 495 310.306, 495 311.366 C 495 311.715, 495.675 312, 496.500 312 C 497.325 312, 498 311.523, 498 310.941 C 498 310.359, 498.372 310.112, 498.827 310.393 C 499.281 310.674, 501.869 308.493, 504.577 305.547 C 511.089 298.461, 512.232 297.003, 511.289 296.985 C 510.855 296.976, 510.981 296.639, 511.569 296.235 C 512.157 295.831, 513.668 293.345, 514.927 290.712 C 516.742 286.914, 517.077 285, 516.547 281.462 C 516.112 278.562, 516.249 277, 516.939 277 C 518.295 277, 518.335 270.325, 516.984 269.490 C 516.425 269.144, 516.301 268.330, 516.709 267.681 C 517.493 266.432, 517.488 266.202, 516.504 258.750 C 515.836 253.684, 514.603 252.587, 513.654 256.214 M 257.349 263.905 C 256.363 265.057, 254.736 266, 253.734 266 C 252.732 266, 252.020 266.563, 252.152 267.250 C 252.506 269.092, 251.018 273.003, 248.449 276.987 C 245.722 281.214, 243.903 288.276, 246.141 285.943 C 248.753 283.221, 251.083 278.943, 250.483 277.972 C 250.152 277.437, 250.339 277, 250.897 277 C 252.100 277, 260.414 263.081, 259.661 262.328 C 259.376 262.043, 258.336 262.753, 257.349 263.905 M 254.740 281.750 C 254.071 283.262, 252.955 285.095, 252.261 285.822 C 251.434 286.688, 251.216 288.496, 251.627 291.072 C 252.075 293.870, 251.899 295, 251.014 295 C 250.224 295, 249.922 296.016, 250.184 297.797 C 250.560 300.364, 250.364 300.560, 247.797 300.184 C 245.789 299.889, 245 300.199, 245 301.281 C 245 303.527, 253.080 304.235, 254.771 302.137 C 255.832 300.821, 255.730 300.444, 254.160 299.863 C 252.545 299.266, 252.349 298.408, 252.778 293.834 C 253.053 290.900, 253.589 288.275, 253.969 288 C 254.349 287.725, 255.297 286.038, 256.074 284.250 C 256.852 282.462, 257.855 281, 258.303 281 C 258.751 281, 258.840 280.550, 258.500 280 C 257.419 278.252, 255.995 278.915, 254.740 281.750 M 163 285.333 C 163 286.067, 163.338 287.004, 163.750 287.417 C 164.162 287.829, 164.520 288.467, 164.545 288.833 C 164.667 290.662, 167.504 297, 168.201 297 C 168.640 297, 169 297.628, 169 298.395 C 169 299.162, 170.117 300.850, 171.483 302.145 C 172.848 303.440, 173.973 304.993, 173.983 305.594 C 174.031 308.661, 187.324 318, 191.641 318 C 192.388 318, 193 318.445, 193 318.988 C 193 319.532, 194.800 320.264, 197 320.616 C 199.200 320.968, 201 321.675, 201 322.187 C 201 322.699, 201.419 322.859, 201.931 322.543 C 202.443 322.226, 203.144 322.425, 203.490 322.984 C 203.835 323.543, 205.147 324, 206.404 324 C 207.661 324, 209.447 324.836, 210.371 325.858 C 211.542 327.151, 214.073 327.904, 218.704 328.337 C 222.363 328.678, 225.676 329.475, 226.066 330.107 C 226.457 330.739, 227.277 330.947, 227.888 330.569 C 228.500 330.191, 229 330.359, 229 330.941 C 229 331.523, 229.787 332, 230.750 332 C 232.396 332, 232.511 335.657, 232.692 393.250 C 232.798 426.938, 233.182 456.670, 233.546 459.321 C 233.915 462.013, 234.824 464.379, 235.604 464.678 C 236.372 464.973, 237 465.987, 237 466.933 C 237 467.878, 238.012 469.596, 239.250 470.752 C 241.977 473.297, 247 474.771, 247 473.025 C 247 472.370, 246.492 472.003, 245.870 472.210 C 243.635 472.955, 236 463.262, 236 459.679 C 236 458.847, 235.470 457.990, 234.823 457.774 C 234.176 457.559, 233.966 456.864, 234.357 456.231 C 234.974 455.234, 235.225 367.203, 234.690 339.750 C 234.507 330.363, 234.416 330.001, 232.250 330 C 231.012 330, 230 329.523, 230 328.941 C 230 328.359, 229.581 328.141, 229.069 328.457 C 228.557 328.774, 227.880 328.614, 227.564 328.103 C 227.248 327.592, 225.079 326.858, 222.745 326.472 C 220.410 326.085, 218.050 325.491, 217.500 325.150 C 216.950 324.809, 216.275 324.485, 216 324.429 C 215.725 324.373, 214.825 324.064, 214 323.742 C 213.175 323.419, 210.813 322.875, 208.750 322.533 C 206.688 322.190, 205 321.519, 205 321.043 C 205 320.566, 203.126 319.859, 200.835 319.472 C 196.970 318.819, 189.365 315.378, 186.460 312.967 C 185.773 312.397, 184.817 312.058, 184.336 312.215 C 183.855 312.372, 182.373 311.488, 181.042 310.250 C 179.712 309.012, 178.302 308, 177.909 308 C 177.517 308, 176.725 306.650, 176.150 305 C 175.575 303.350, 174.679 302, 174.161 302 C 173.642 302, 172.471 300.313, 171.558 298.250 C 169.455 293.495, 167.540 290.140, 166.116 288.716 C 165.502 288.102, 165 286.790, 165 285.800 C 165 284.810, 164.550 284, 164 284 C 163.450 284, 163 284.600, 163 285.333 M 459.667 290.667 C 458.620 291.714, 458.888 296, 460 296 C 460.550 296, 461 294.650, 461 293 C 461 289.893, 460.796 289.537, 459.667 290.667 M 460 301.500 C 460 303.426, 460.506 305, 461.125 305 C 461.842 305, 462.032 306.089, 461.650 308 C 461.320 309.650, 461.424 311, 461.881 311 C 462.338 311, 463.021 314.697, 463.398 319.217 C 463.775 323.736, 464.575 327.737, 465.177 328.109 C 465.811 328.501, 465.996 329.880, 465.616 331.393 C 465.169 333.176, 465.363 334.001, 466.231 334.005 C 467.138 334.008, 467.548 336.329, 467.667 342.145 C 467.771 347.185, 468.287 350.560, 469.024 351.015 C 469.791 351.489, 469.970 352.862, 469.527 354.875 C 469.140 356.638, 469.249 358, 469.777 358 C 470.291 358, 471.020 361.688, 471.396 366.195 C 471.772 370.703, 472.531 374.935, 473.083 375.600 C 473.635 376.265, 473.793 377.977, 473.435 379.404 C 472.936 381.393, 473.159 382, 474.392 382 C 476.221 382, 476.640 377.065, 475.062 374.115 C 474.546 373.151, 473.604 367.443, 472.968 361.431 C 472.333 355.419, 471.405 350.073, 470.907 349.550 C 470.408 349.028, 470 347.640, 470 346.467 C 470 345.293, 469.663 343.995, 469.250 343.582 C 468.575 342.907, 468.207 338.539, 468.046 329.306 C 468.015 327.549, 467.542 325.835, 466.995 325.497 C 466.448 325.159, 466 323.821, 466 322.524 C 466 321.228, 465.469 319.990, 464.820 319.773 C 464.161 319.554, 463.927 318.634, 464.289 317.690 C 464.777 316.417, 466.164 316, 469.910 316 C 472.644 316, 475.177 315.522, 475.538 314.938 C 475.899 314.354, 478.288 314.016, 480.847 314.188 C 483.406 314.360, 485.607 314.050, 485.737 313.500 C 485.995 312.411, 480.274 312.427, 470.235 313.545 C 464.702 314.161, 464.042 314.053, 464.592 312.621 C 464.934 311.730, 464.872 310.212, 464.453 309.250 C 464.035 308.288, 463.790 306.712, 463.909 305.750 C 464.028 304.788, 463.647 304, 463.063 304 C 462.478 304, 462 302.650, 462 301 C 462 299.350, 461.550 298, 461 298 C 460.450 298, 460 299.575, 460 301.500 M 362.435 308.225 C 362.817 311.099, 363.507 313.911, 363.971 314.475 C 364.434 315.039, 364.708 336.200, 364.581 361.500 C 364.454 386.800, 364.665 404.350, 365.051 400.500 C 365.436 396.650, 365.807 382.363, 365.876 368.750 C 365.955 352.999, 366.364 344, 367 344 C 368.252 344, 368.334 334.288, 367.086 333.833 C 365.878 333.393, 365.475 326.353, 366.420 322.223 C 367.199 318.825, 365.278 309, 363.836 309 C 363.404 309, 363.320 307.650, 363.650 306 C 364.061 303.943, 363.856 303, 362.996 303 C 362.063 303, 361.919 304.335, 362.435 308.225 M 303 344.500 C 303 345.875, 303.450 347, 304 347 C 304.550 347, 305 345.875, 305 344.500 C 305 343.125, 304.550 342, 304 342 C 303.450 342, 303 343.125, 303 344.500 M 303.015 351.250 C 303.024 351.938, 303.467 353.175, 304 354 C 304.755 355.169, 304.973 354.893, 304.985 352.750 C 304.993 351.238, 304.550 350, 304 350 C 303.450 350, 303.007 350.563, 303.015 351.250 M 404.279 374.323 C 404.519 374.970, 405.327 377.975, 406.075 381 C 406.823 384.025, 407.746 386.726, 408.127 387.003 C 408.508 387.280, 409.025 388.630, 409.276 390.003 C 409.528 391.376, 409.530 390.025, 409.281 387 C 409.033 383.975, 408.442 381.097, 407.969 380.604 C 407.496 380.111, 407.352 378.488, 407.651 376.996 C 408.088 374.811, 407.771 374.173, 406.018 373.715 C 404.589 373.341, 403.992 373.550, 404.279 374.323 M 384.245 381.500 C 384.508 382.875, 384.335 384, 383.861 384 C 383.388 384, 383 386.223, 383 388.941 C 383 391.659, 382.610 394.123, 382.134 394.417 C 381.658 394.711, 381.494 396.136, 381.771 397.583 C 382.048 399.029, 381.783 400.516, 381.184 400.886 C 380.585 401.257, 379.577 405.821, 378.945 411.030 C 378.313 416.238, 377.386 420.755, 376.885 421.067 C 376.385 421.378, 375.768 424.753, 375.514 428.567 C 375.068 435.260, 374.184 440, 373.380 440 C 373.167 440, 371.314 439.100, 369.261 438 C 366.448 436.492, 363.619 436, 357.765 436 C 352.887 436, 350 436.400, 350 437.077 C 350 437.683, 348.574 438.030, 346.736 437.872 C 344.940 437.717, 343.028 437.856, 342.486 438.181 C 341.944 438.506, 339.025 439.102, 336 439.507 C 332.975 439.911, 330.252 440.632, 329.948 441.109 C 329.645 441.586, 326.968 442.437, 324 443 C 321.032 443.563, 318.355 444.407, 318.052 444.877 C 316.993 446.514, 312.924 447.182, 311.452 445.960 C 310.653 445.297, 310 444.995, 310 445.287 C 310 445.580, 308.650 444.635, 307 443.187 L 304 440.555 304 417.336 C 304 402.936, 303.620 393.883, 303 393.500 C 302.345 393.095, 302 400.656, 302 415.441 C 302 432.813, 301.713 438.004, 300.750 438.015 C 299.917 438.026, 300 438.354, 301 439 C 302.282 439.828, 302.246 439.972, 300.750 439.985 C 299.788 439.993, 299 440.506, 299 441.125 C 299 441.906, 296.396 442.114, 290.500 441.805 C 285.825 441.559, 282 441.728, 282 442.179 C 282 442.631, 279.863 443.003, 277.250 443.006 C 271.932 443.012, 265 444.659, 265 445.917 C 265 446.370, 263.001 446.965, 260.558 447.241 C 255.421 447.820, 251.678 450.555, 254.527 451.649 C 255.448 452.002, 256.494 451.828, 256.851 451.262 C 257.208 450.696, 260.200 449.678, 263.500 449 C 266.800 448.322, 269.774 447.332, 270.110 446.801 C 270.445 446.270, 273.595 445.588, 277.110 445.285 C 280.624 444.982, 283.950 444.386, 284.500 443.960 C 285.050 443.534, 289.836 443.516, 295.134 443.919 C 304.023 444.595, 305.209 444.944, 310.453 448.425 C 313.578 450.500, 316.378 451.955, 316.675 451.659 C 316.971 451.363, 317.728 451.552, 318.357 452.079 C 322.976 455.951, 324.393 457, 325 457 C 326.606 457, 330.189 461.059, 330.887 463.671 C 331.425 465.683, 331.093 467.498, 329.728 469.996 C 328.675 471.923, 328.467 472.712, 329.267 471.750 C 330.066 470.788, 331.233 470, 331.860 470 C 332.539 470, 333 468.238, 333 465.646 C 333 459.601, 329.843 456.190, 319.520 451.083 C 316.039 449.362, 315.788 449.021, 317.520 448.376 C 318.609 447.971, 320.175 446.933, 321 446.069 C 321.838 445.192, 324.447 444.409, 326.914 444.294 C 329.341 444.181, 331.591 443.731, 331.914 443.294 C 332.664 442.278, 334.519 441.770, 339.500 441.218 C 341.700 440.974, 343.998 440.374, 344.607 439.884 C 345.216 439.394, 347.128 439.276, 348.857 439.621 C 350.891 440.028, 352 439.853, 352 439.125 C 352 438.428, 354.093 438, 357.500 438 C 360.525 438, 363 438.450, 363 439 C 363 439.550, 363.909 440, 365.019 440 C 367.311 440, 377.176 445.033, 379.564 447.421 C 380.432 448.289, 381.754 449, 382.500 449 C 383.246 449, 384.536 449.678, 385.365 450.508 C 386.194 451.337, 387.128 451.601, 387.441 451.095 C 388.121 449.995, 381.465 444.568, 378.180 443.544 C 375.960 442.852, 375.890 442.532, 376.551 436.160 C 376.932 432.497, 377.646 428.995, 378.139 428.377 C 378.631 427.759, 378.736 426.476, 378.372 425.526 C 378.007 424.576, 378.197 423.496, 378.795 423.127 C 379.392 422.757, 380.337 418.005, 380.893 412.566 C 381.449 407.127, 382.367 402.392, 382.931 402.043 C 383.495 401.694, 384.259 397.476, 384.629 392.671 C 384.998 387.865, 385.640 383.722, 386.056 383.465 C 387.101 382.820, 385.998 379, 384.767 379 C 384.217 379, 383.982 380.125, 384.245 381.500 M 475.384 391.250 C 475.753 395.238, 476.492 398.650, 477.026 398.833 C 477.573 399.020, 477.732 400.824, 477.391 402.957 C 477.026 405.239, 477.214 407.014, 477.863 407.415 C 479.889 408.667, 480.285 402.824, 478.637 395.995 C 477.736 392.265, 477 388.041, 477 386.607 C 477 385.173, 476.485 384, 475.856 384 C 475.042 384, 474.906 386.085, 475.384 391.250 M 408.454 400.750 C 408.831 402.262, 409.681 406.616, 410.341 410.424 C 411.008 414.271, 412.116 417.539, 412.836 417.779 C 413.815 418.105, 413.974 417.273, 413.487 414.355 C 413.133 412.235, 412.585 409.825, 412.268 409 C 411.952 408.175, 411.790 406.712, 411.909 405.750 C 412.028 404.788, 411.647 404, 411.063 404 C 410.478 404, 410 402.650, 410 401 C 410 399.350, 409.498 398, 408.883 398 C 408.166 398, 408.012 398.982, 408.454 400.750 M 479.407 420.668 C 479.783 424.336, 480.390 427.822, 480.756 428.414 C 481.122 429.006, 481.536 431.293, 481.675 433.495 C 481.815 435.698, 482.211 440.063, 482.554 443.196 C 482.961 446.908, 482.779 449.347, 482.030 450.196 C 481.398 450.913, 479.986 453.010, 478.891 454.856 C 477.797 456.701, 475.573 458.712, 473.951 459.325 C 470.787 460.519, 470.011 462, 472.550 462 C 475.008 462, 480.126 459.012, 479.474 457.957 C 479.148 457.431, 479.307 457, 479.826 457 C 482.094 457, 484.258 451.444, 484.559 444.847 C 484.731 441.081, 484.482 438, 484.006 438 C 483.529 438, 483.154 435.863, 483.173 433.250 C 483.219 426.718, 480.939 414, 479.721 414 C 479.089 414, 478.974 416.445, 479.407 420.668 M 412.381 420.449 C 412.049 421.316, 412.063 423.482, 412.414 425.262 C 412.765 427.043, 413.181 429.278, 413.339 430.230 C 413.497 431.181, 413.935 432.268, 414.313 432.646 C 415.579 433.912, 415.017 438.056, 413.500 438.638 C 412.675 438.955, 412 439.825, 412 440.572 C 412 441.319, 411.087 442.418, 409.972 443.015 C 408.857 443.612, 408.199 444.512, 408.510 445.016 C 408.821 445.520, 407.202 447.698, 404.911 449.856 C 402.587 452.044, 401.049 454.270, 401.432 454.890 C 402.410 456.473, 404 456.263, 404 454.550 C 404 453.752, 404.610 452.740, 405.354 452.300 C 406.099 451.860, 407.905 449.588, 409.366 447.251 C 410.828 444.914, 412.918 442.443, 414.012 441.761 C 415.105 441.078, 416 439.952, 416 439.259 C 416 438.567, 417.125 438, 418.500 438 C 419.875 438, 421 438.455, 421 439.012 C 421 439.627, 422.520 439.781, 424.874 439.404 C 427.276 439.020, 429.009 439.206, 429.433 439.892 C 430.275 441.254, 450 441.426, 450 440.071 C 450 439.212, 437.201 438.094, 427.250 438.084 C 424.913 438.082, 423 437.612, 423 437.040 C 423 436.468, 421.678 436, 420.061 436 C 417.345 436, 417.071 435.659, 416.448 431.500 C 416.077 429.025, 415.315 427, 414.756 427 C 414.152 427, 413.968 425.583, 414.303 423.518 C 414.886 419.930, 413.456 417.648, 412.381 420.449 M 469.250 438.798 C 460.707 439.205, 461.318 441, 470 441 C 473.850 441, 477 440.577, 477 440.059 C 477 438.632, 476.035 438.475, 469.250 438.798 M 244.306 453.415 C 240.319 456.847, 241.936 457.510, 247.316 454.649 C 249.829 453.313, 251.611 451.945, 251.276 451.610 C 249.989 450.323, 246.999 451.097, 244.306 453.415 M 389 451.548 C 389 451.849, 390.125 453.138, 391.500 454.412 C 393.464 456.233, 394 457.709, 394 461.300 C 394 465.616, 393.805 465.941, 390.500 467.136 C 386.453 468.600, 385.920 470, 389.411 470 C 392.969 470, 397 464.747, 397 460.110 C 397 457.322, 396.288 455.692, 394.195 453.687 C 391.651 451.250, 389 450.158, 389 451.548 M 401.702 457.631 C 401.355 457.979, 401.520 459.104, 402.070 460.131 C 403.128 462.108, 407.454 462.692, 408.500 461 C 408.840 460.450, 408.177 460, 407.028 460 C 405.878 460, 404.678 459.325, 404.362 458.500 C 403.753 456.914, 402.748 456.585, 401.702 457.631" stroke="none" fill="#232425" fill-rule="evenodd"/><path d="M 313.194 74.500 C 312.031 75.187, 322.156 75.657, 345.500 76 L 379.500 76.500 379.781 88.750 C 380.180 106.154, 382.004 104.499, 381.985 86.750 C 381.976 78.241, 381.618 73.055, 381.096 73.878 C 380.535 74.765, 379.738 74.943, 378.862 74.378 C 376.935 73.135, 315.313 73.250, 313.194 74.500 M 525.250 81.099 C 523.685 82.728, 523.448 111, 525 111 C 525.845 111, 526.699 92.660, 526.245 84.250 C 526.178 83.013, 526.572 82, 527.121 82 C 527.669 82, 527.840 82.450, 527.500 83 C 527.098 83.651, 532.509 84, 543 84 C 554.474 84, 558.922 83.683, 558.438 82.899 C 558.063 82.293, 556.530 82.044, 555.025 82.345 C 553.521 82.646, 551.803 82.403, 551.205 81.805 C 549.510 80.110, 526.794 79.491, 525.250 81.099 M 464.015 92.750 C 464.024 99.213, 464.467 105.175, 465 106 C 465.653 107.010, 465.974 103.174, 465.985 94.250 C 465.994 86.073, 465.617 81, 465 81 C 464.389 81, 464.006 85.573, 464.015 92.750 M 598 81.917 C 598 82.513, 598.563 83.014, 599.250 83.032 C 600.009 83.051, 599.807 83.590, 598.736 84.402 C 597.104 85.641, 596.992 88.199, 597.236 118.620 L 597.500 151.500 611.263 151.778 C 621.050 151.976, 625.672 151.687, 627.263 150.778 C 629.290 149.620, 628.890 149.453, 623 149 L 616.500 148.500 616.500 131 L 616.500 113.500 639.240 113.231 L 661.980 112.963 662.259 159.231 L 662.539 205.500 662.519 158.250 C 662.509 132.262, 662.837 111, 663.250 111 C 663.663 111, 664 132.375, 664 158.500 C 664 189.706, 664.345 206, 665.007 206 C 666.387 206, 666.321 113.467, 664.938 110.884 C 663.992 109.116, 662.393 109, 639.024 109 C 623.499 109, 613.885 109.377, 613.500 110 C 613.160 110.550, 613.359 111, 613.941 111 C 614.649 111, 615 117.294, 615 130 L 615 149 608.013 149 L 601.027 149 600.763 115.333 C 600.561 89.478, 600.210 81.569, 599.250 81.250 C 598.563 81.021, 598 81.321, 598 81.917 M 571.915 83.074 C 570.940 83.691, 571.719 83.974, 574.417 83.985 C 578.402 84, 578.870 83.245, 575.300 82.558 C 574.216 82.349, 572.693 82.581, 571.915 83.074 M 318.832 88.355 C 316.814 88.985, 314.827 89.838, 314.415 90.250 C 313.095 91.573, 311.161 91.053, 310.689 89.250 C 310.418 88.212, 310.153 88.721, 310.037 90.500 C 309.930 92.150, 309.634 92.993, 309.379 92.373 C 308.932 91.286, 304.334 94.701, 299.448 99.750 C 297.329 101.940, 296.719 102, 276.742 102 C 259.417 102, 256.124 102.234, 255.638 103.500 C 255.139 104.801, 257.593 105, 274.138 105 C 291.935 105, 293.162 105.117, 292.438 106.750 C 292.011 107.713, 290.370 112.100, 288.792 116.500 C 285.074 126.866, 285.304 136.002, 289.548 146.500 C 294.117 157.805, 306.877 169.057, 317.865 171.470 C 321.967 172.371, 322.003 170.586, 318 164.655 C 314.085 158.854, 314.003 156.499, 317.750 157.504 C 319.262 157.910, 323.711 158.446, 327.635 158.696 C 334.013 159.102, 335.340 158.851, 340.135 156.331 C 343.086 154.780, 345.837 153.359, 346.250 153.172 C 346.663 152.986, 347 156.030, 347 159.938 C 347 166.546, 346.825 167.123, 344.500 168.182 C 341.698 169.458, 341.184 171, 343.559 171 C 344.416 171, 344.840 170.550, 344.500 170 C 344.160 169.450, 344.835 169, 346 169 C 347.165 169, 347.890 168.632, 347.612 168.182 C 346.979 167.157, 353.650 164.666, 354.922 165.452 C 355.436 165.769, 356.170 165.039, 356.555 163.828 C 356.939 162.617, 358.659 160.192, 360.377 158.438 C 367.782 150.878, 370.398 145.065, 371.599 133.500 C 372.313 126.626, 369.924 115.185, 366.869 110.846 C 365.841 109.386, 365 107.679, 365 107.053 C 365 106.427, 362.870 103.637, 360.266 100.854 C 350.278 90.175, 331.320 84.456, 318.832 88.355 M 74.155 95.883 C 73.147 96.522, 73.398 96.877, 75.155 97.301 C 79.967 98.461, 104.726 99.107, 110.790 98.230 C 115.144 97.600, 116.760 97.640, 116.040 98.360 C 114.487 99.913, 114.676 119.703, 116.250 120.338 C 117.250 120.741, 117.250 120.858, 116.250 120.921 C 115.563 120.964, 115 122.125, 115 123.500 L 115 126 100.500 126 L 86 126 86 165.500 C 86 199.944, 86.192 205, 87.500 205 C 88.780 205, 89.036 201.807, 89.246 183.250 C 89.381 171.287, 89.553 158.125, 89.629 154 C 89.704 149.875, 89.819 142.338, 89.883 137.250 L 90 128 109 128 C 121 128, 128 127.632, 128 127 C 128 126.450, 125.975 126, 123.500 126 L 119 126 119 111.700 C 119 101.911, 118.621 97.021, 117.800 96.200 C 116.383 94.783, 76.349 94.493, 74.155 95.883 M 74.615 98.814 C 73.788 100.151, 74.085 192.960, 74.938 200 C 75.403 203.834, 75.782 184.248, 75.863 152.250 C 75.938 122.412, 75.802 98, 75.559 98 C 75.316 98, 74.892 98.366, 74.615 98.814 M 379.596 103.156 C 380.387 104.435, 404 104.223, 404 102.937 C 404 102.232, 399.806 101.948, 391.537 102.093 C 384.683 102.214, 379.310 102.692, 379.596 103.156 M 467.676 104.402 C 467.380 105.173, 467.407 106.073, 467.736 106.402 C 468.064 106.731, 475.908 107, 485.167 107 L 502 107 502 121.800 C 502 131.978, 502.375 136.975, 503.200 137.800 C 504.664 139.264, 522.787 139.430, 525 138 C 526.118 137.278, 525.481 136.992, 522.500 136.879 C 519.744 136.775, 519.278 136.588, 521 136.279 C 524.567 135.639, 524.908 134.987, 524.021 130.500 L 523.230 126.500 523.115 130.750 L 523 135 514 135 L 505 135 505 121.565 C 505 114.176, 504.561 106.976, 504.025 105.565 L 503.050 103 485.632 103 C 471.612 103, 468.109 103.274, 467.676 104.402 M 144.028 107.947 C 142.877 110.099, 142.918 142, 144.072 142 C 145.462 142, 146.171 137.233, 146.710 124.259 C 147.118 114.437, 146.937 110.629, 146.008 109.509 C 144.896 108.169, 148.025 108, 173.878 108 C 192.626 108, 203 107.644, 203 107 C 203 106.356, 192.678 106, 174.035 106 C 146.354 106, 145.024 106.086, 144.028 107.947 M 233.272 114 C 233.272 116.475, 233.467 117.487, 233.706 116.250 C 233.944 115.013, 233.944 112.987, 233.706 111.750 C 233.467 110.513, 233.272 111.525, 233.272 114 M 410 114.500 C 410 116.975, 410.450 119, 411 119 C 411.550 119, 412 116.975, 412 114.500 C 412 112.025, 411.550 110, 411 110 C 410.450 110, 410 112.025, 410 114.500 M 526.328 125.500 C 526.333 129.350, 526.513 130.802, 526.730 128.728 C 526.946 126.653, 526.943 123.503, 526.722 121.728 C 526.501 119.952, 526.324 121.650, 526.328 125.500 M 196.500 125.963 L 179.500 126.500 179.226 134 L 178.952 141.500 171.434 148.734 C 165.396 154.544, 163.220 157.496, 160.376 163.734 C 158.428 168.005, 156.311 172.400, 155.670 173.500 C 154.918 174.790, 154.384 182.859, 154.165 196.239 L 153.826 216.977 114.163 217.239 C 88.562 217.407, 74.500 217.855, 74.500 218.500 C 74.500 219.145, 88.548 219.593, 114.121 219.761 L 153.742 220.023 154.360 223.761 C 154.700 225.818, 154.983 230.537, 154.989 234.250 L 155 241 118.417 241 C 89.595 241, 81.922 241.265, 82.250 242.250 C 82.571 243.213, 91.085 243.560, 119.369 243.762 C 147.477 243.963, 156.162 244.315, 156.454 245.262 C 156.664 245.943, 157.068 250.662, 157.353 255.750 L 157.870 265 123.235 265 C 100.462 265, 88.938 265.338, 89.586 265.986 C 90.186 266.586, 103.908 267.076, 124.536 267.236 L 158.500 267.500 159.250 271.750 C 161.500 284.498, 161.502 284.507, 163.270 284.206 C 164.412 284.012, 165 284.566, 165 285.834 C 165 286.890, 165.689 288.327, 166.532 289.026 C 167.880 290.145, 167.936 289.963, 167.004 287.510 C 166.421 285.977, 166.069 284.627, 166.222 284.511 C 167.242 283.735, 200.350 275.669, 215 272.627 C 218.575 271.884, 224.425 270.459, 228 269.459 C 231.786 268.400, 238.049 267.612, 243 267.571 C 249.750 267.515, 251.833 267.140, 253.117 265.750 C 254.982 263.732, 256.466 263.405, 255.386 265.250 C 254.984 265.938, 255.919 265.262, 257.464 263.750 C 259.009 262.238, 260.647 261, 261.105 261 C 261.563 261, 261.678 260.325, 261.362 259.500 C 260.598 257.509, 261.862 257.601, 264.421 259.723 C 265.565 260.671, 265.938 260.806, 265.250 260.023 C 264.563 259.241, 264 257.747, 264 256.704 C 264 253.870, 267.266 248.888, 268.750 249.458 C 269.749 249.841, 269.804 249.502, 268.988 247.977 C 268.095 246.309, 268.247 246, 269.965 246 C 271.084 246, 272 245.523, 272 244.941 C 272 244.359, 271.492 244.196, 270.870 244.580 C 270.178 245.008, 269.936 244.740, 270.245 243.889 C 270.523 243.125, 271.213 242.598, 271.779 242.718 C 272.628 242.898, 272.760 239.117, 272.093 233.750 C 271.877 232.009, 269.784 233.216, 268.203 235.994 C 266.355 239.242, 265 239.879, 265 237.500 C 265 236.675, 264.520 236, 263.933 236 C 263.300 236, 263.139 236.864, 263.538 238.118 C 264.011 239.612, 263.829 240.110, 262.917 239.806 C 262.207 239.569, 260.809 240.191, 259.813 241.188 C 257.742 243.258, 254.008 243.618, 253.985 241.750 C 253.974 240.918, 253.654 240.999, 253.024 241.995 C 252.196 243.305, 251.919 243.284, 250.789 241.831 C 249.591 240.288, 249.042 240.301, 243 242.013 C 239.425 243.026, 233.350 245.042, 229.500 246.494 C 225.650 247.945, 218.225 250.459, 213 252.081 C 207.775 253.702, 201.415 255.697, 198.866 256.514 C 192.435 258.576, 184.252 258.417, 179.984 256.147 C 175.115 253.556, 168.619 245.271, 166.028 238.345 C 163.511 231.617, 162.161 219.636, 163.806 218.620 C 165.055 217.848, 203.173 210.015, 205.750 210.001 C 205.887 210.001, 206 211.998, 206 214.441 C 206 216.884, 206.469 219.172, 207.042 219.526 C 207.615 219.880, 211.327 219.181, 215.292 217.972 C 238.985 210.751, 260.393 206.864, 266.374 208.700 C 269.828 209.760, 273.308 208.926, 271.107 207.566 C 270.498 207.190, 270 204.659, 270 201.941 L 270 197 283.917 197 C 293.222 197, 297.956 197.368, 298.203 198.110 C 298.451 198.852, 298.942 198.769, 299.685 197.860 C 300.775 196.528, 298.314 188.509, 294.410 180.669 C 293.634 179.112, 293 176.905, 293 175.765 C 293 172.780, 288.351 163.390, 283.871 157.325 C 279.380 151.247, 268.957 144.096, 259.275 140.451 C 251.145 137.391, 249.916 137.396, 247 140.500 C 245.708 141.875, 243.717 143.006, 242.576 143.014 C 237.224 143.049, 236.480 143.817, 236.839 148.941 C 237.038 151.772, 236.604 154.878, 235.794 156.423 L 234.410 159.065 228.455 155.089 C 225.180 152.902, 221.800 150.525, 220.946 149.807 C 217.857 147.210, 210.912 137.671, 211.326 136.593 C 211.901 135.093, 209.294 132.715, 208.494 134.010 C 208.157 134.554, 205.530 135, 202.656 135 C 199.782 135, 194.183 136.063, 190.215 137.363 L 183 139.726 183 134.863 L 183 130 196.417 130 C 203.796 130, 209.983 130.391, 210.167 130.868 C 210.350 131.345, 211.231 130.220, 212.124 128.368 C 213.016 126.516, 213.691 125.096, 213.624 125.213 C 213.556 125.331, 205.850 125.668, 196.500 125.963 M 554 126.940 C 554 127.662, 553.349 127.964, 552.500 127.638 C 550.620 126.917, 550.541 128.374, 552.378 129.899 C 553.466 130.802, 553.878 130.574, 554.338 128.815 C 554.659 127.590, 554.714 126.380, 554.460 126.127 C 554.207 125.874, 554 126.240, 554 126.940 M 180.136 135.250 C 180.280 142.885, 180.727 142.052, 181.211 133.249 C 181.370 130.362, 181.162 127.999, 180.750 127.999 C 180.338 128, 180.061 131.262, 180.136 135.250 M 549.741 132.332 C 548.707 134.887, 548.817 136.231, 550 135.500 C 550.577 135.143, 550.994 136.070, 550.985 137.691 C 550.974 139.610, 550.702 140.077, 550.124 139.166 C 549.449 138.102, 549.149 138.169, 548.639 139.498 C 547.629 142.131, 547.883 144.546, 549.494 147.636 L 550.988 150.500 550.994 145.993 C 550.997 143.515, 551.419 140.027, 551.930 138.243 C 552.442 136.460, 552.473 135, 552 135 C 551.526 135, 550.991 133.988, 550.811 132.750 C 550.516 130.734, 550.405 130.690, 549.741 132.332 M 424.286 139.301 C 426.939 142.057, 427.087 142.050, 426.344 139.206 C 426.011 137.935, 424.983 137, 423.919 137 C 422.228 137, 422.260 137.196, 424.286 139.301 M 572.750 137.577 C 572.337 137.993, 572 140.058, 572 142.167 C 572 144.907, 572.428 146, 573.500 146 C 575.057 146, 575.207 144.494, 574.132 139.661 C 573.784 138.099, 573.163 137.161, 572.750 137.577 M 129 156.500 C 129 168.171, 129.353 174, 130.061 174 C 130.777 174, 131.051 168.308, 130.904 156.500 C 130.784 146.875, 130.307 139, 129.843 139 C 129.379 139, 129 146.875, 129 156.500 M 449.787 143.888 C 450.186 144.928, 449.871 145.164, 448.688 144.711 C 447.255 144.160, 447.197 144.350, 448.265 146.107 C 449.346 147.886, 449.138 148.432, 446.591 150.484 C 443.146 153.261, 436.505 155.299, 432.419 154.833 C 430.071 154.565, 429.494 154.011, 429.468 152 C 429.412 147.522, 428.104 145.160, 425.988 145.713 C 423.960 146.244, 423.911 147.600, 425.762 152.091 C 426.349 153.517, 427.157 156.892, 427.557 159.591 C 427.957 162.291, 428.895 166.244, 429.642 168.376 C 430.389 170.507, 431.007 173.432, 431.015 174.876 C 431.024 176.319, 431.483 178.175, 432.036 179 C 432.869 180.243, 433.596 179.828, 436.271 176.583 C 439.546 172.610, 440.792 170.709, 446.932 160.311 C 452.646 150.634, 456.746 146.166, 460.323 145.718 C 463.362 145.337, 463.337 145.313, 459.750 145.160 C 457.688 145.072, 456 144.599, 456 144.109 C 456 143.620, 454.476 143.041, 452.614 142.823 C 449.959 142.514, 449.348 142.743, 449.787 143.888 M 465 144.023 C 465 144.714, 465.634 145.779, 466.409 146.390 C 467.584 147.316, 467.644 149.315, 466.771 158.435 C 465.387 172.903, 466.910 186.204, 470.778 193.421 C 473.919 199.282, 471.290 198.904, 496.371 197.106 C 505.101 196.480, 512.674 195.702, 513.200 195.376 C 514.356 194.662, 513.449 186.592, 511.376 179.150 C 509.117 171.039, 503.333 159.375, 499.426 155.050 C 495.373 150.564, 486.175 146.494, 476.718 145.002 C 473.298 144.463, 469.262 143.739, 467.750 143.394 C 465.876 142.967, 465 143.167, 465 144.023 M 418.570 147.887 C 418.269 148.374, 418.692 149.329, 419.511 150.009 C 420.750 151.038, 421 150.889, 421 149.122 C 421 146.977, 419.579 146.254, 418.570 147.887 M 408.391 151.015 C 402.510 153.956, 397.333 159.568, 392.903 167.808 C 389.090 174.899, 389.073 174.980, 391.278 175.534 C 392.504 175.841, 397.075 175.960, 401.435 175.797 L 409.364 175.500 411.130 167.500 C 412.101 163.100, 413.165 157.813, 413.493 155.750 C 413.883 153.301, 414.624 152, 415.629 152 C 417.807 152, 416.742 149.556, 414.422 149.231 C 413.365 149.082, 410.651 149.885, 408.391 151.015 M 575.015 151.750 C 575.007 153.537, 575.450 155, 576 155 C 577.270 155, 577.270 151.965, 576 150 C 575.264 148.862, 575.027 149.284, 575.015 151.750 M 548.336 155.567 C 548.005 156.429, 548.244 157.644, 548.867 158.267 C 549.711 159.111, 550 158.711, 550 156.700 C 550 153.691, 549.251 153.182, 548.336 155.567 M 641.710 159 C 641.998 160.100, 642.631 161, 643.117 161 C 643.602 161, 644 161.675, 644 162.500 C 644 163.325, 644.360 164, 644.799 164 C 645.239 164, 645.415 162.425, 645.190 160.500 C 644.892 157.950, 644.293 157, 642.984 157 C 641.680 157, 641.331 157.548, 641.710 159 M 574.378 169 C 574.378 175.325, 574.541 177.912, 574.739 174.750 C 574.937 171.588, 574.937 166.412, 574.739 163.250 C 574.541 160.088, 574.378 162.675, 574.378 169 M 576 169.500 C 576 174.500, 576.412 178, 577 178 C 577.588 178, 578 174.500, 578 169.500 C 578 164.500, 577.588 161, 577 161 C 576.412 161, 576 164.500, 576 169.500 M 324 173.015 C 325.333 173.891, 325.333 174.120, 324 175.076 C 322.667 176.033, 322.667 176.103, 324 175.711 C 324.825 175.469, 326.343 175.705, 327.373 176.236 C 329.203 177.180, 329.203 177.144, 327.373 174.632 C 326.343 173.219, 324.825 172.056, 324 172.047 C 322.667 172.032, 322.667 172.140, 324 173.015 M 330 172.893 C 330 174.299, 332.767 175.008, 337.832 174.900 C 341.561 174.821, 341.997 174.649, 340 174.047 L 337.500 173.293 340.500 172.796 C 342.187 172.517, 340.546 172.234, 336.750 172.150 C 333.038 172.067, 330 172.402, 330 172.893 M 646.008 176.974 C 645.014 177.602, 644.850 178.250, 645.517 178.917 C 646.152 179.552, 647.060 179.573, 648.008 178.974 C 649.328 178.139, 649.327 178.027, 648 178 C 646.667 177.973, 646.667 177.862, 648 177 C 648.825 176.467, 649.050 176.031, 648.500 176.031 C 647.950 176.031, 646.829 176.455, 646.008 176.974 M 342 178.948 C 342 179.469, 339.637 180.061, 336.750 180.263 L 331.500 180.630 337.250 180.815 C 341.777 180.961, 343 180.681, 343 179.500 C 343 178.675, 342.775 178, 342.500 178 C 342.225 178, 342 178.426, 342 178.948 M 633 181 C 633 182.704, 632.514 183.892, 631.875 183.750 C 631.256 183.613, 630.563 184.004, 630.335 184.619 C 630.071 185.331, 630.843 185.562, 632.460 185.252 C 634.584 184.846, 635 184.212, 635 181.383 C 635 179.523, 634.550 178, 634 178 C 633.450 178, 633 179.350, 633 181 M 129 187.059 C 129 191.510, 129.369 193.890, 130 193.500 C 130.550 193.160, 131 189.984, 131 186.441 C 131 182.814, 130.563 180, 130 180 C 129.428 180, 129 183.020, 129 187.059 M 208.256 185.500 C 208.234 188.250, 208.552 193.200, 208.962 196.500 L 209.706 202.500 209.744 197.500 C 209.766 194.750, 209.448 189.800, 209.038 186.500 L 208.294 180.500 208.256 185.500 M 386.559 184.539 C 386.122 186.864, 385.493 187.827, 384.699 187.381 C 383.849 186.903, 383.863 187.098, 384.750 188.053 C 386.495 189.933, 386.309 191.056, 384.376 190.314 C 382.930 189.759, 382.942 189.982, 384.491 192.345 C 386.499 195.410, 387.204 195.759, 386.321 193.250 C 385.982 192.287, 387.572 193.279, 389.853 195.453 C 394.159 199.557, 395.191 201.671, 392.359 200.584 C 390.960 200.047, 390.912 200.189, 392.033 201.540 C 393.234 202.987, 393.429 202.984, 394.254 201.511 C 394.836 200.470, 394.730 199.380, 393.957 198.448 C 392.974 197.264, 393.129 197, 394.804 197 C 395.931 197, 397.045 197.787, 397.280 198.750 C 397.515 199.713, 397.708 198.925, 397.708 197 C 397.709 194.531, 396.557 191.882, 393.798 188.008 C 388.584 180.687, 387.389 180.114, 386.559 184.539 M 619.086 184.450 C 619.030 187.013, 619.342 188.058, 619.974 187.426 C 620.576 186.824, 620.609 185.316, 620.060 183.476 C 619.182 180.535, 619.171 180.546, 619.086 184.450 M 648.667 183.667 C 647.620 184.714, 647.888 189, 649 189 C 649.550 189, 650 187.650, 650 186 C 650 182.893, 649.796 182.537, 648.667 183.667 M 549.349 186.390 C 548.139 187.771, 548.741 189.362, 550.602 189.701 C 551.258 189.820, 551.514 188.911, 551.235 187.451 C 550.978 186.103, 550.707 185.017, 550.633 185.038 C 550.560 185.059, 549.982 185.667, 549.349 186.390 M 633 199.882 C 633 206.137, 633.431 211.149, 634 211.500 C 634.644 211.898, 635 208.197, 635 201.118 C 635 194.863, 634.569 189.851, 634 189.500 C 633.356 189.102, 633 192.803, 633 199.882 M 338.279 192.465 C 337.278 193.604, 337.593 193.971, 340.029 194.506 C 344.237 195.431, 349.027 194.235, 348.336 192.433 C 347.616 190.557, 339.935 190.581, 338.279 192.465 M 647.286 197.500 C 647.294 200.250, 647.488 201.256, 647.718 199.736 C 647.947 198.216, 647.941 195.966, 647.704 194.736 C 647.467 193.506, 647.279 194.750, 647.286 197.500 M 300.199 200.551 C 299.483 201.362, 299.202 202.518, 299.574 203.119 C 300.039 203.872, 300.518 203.790, 301.110 202.857 C 301.779 201.800, 301.973 201.887, 301.985 203.250 C 301.993 204.213, 302.427 205, 302.948 205 C 303.524 205, 303.485 203.821, 302.850 202 C 302.275 200.350, 301.736 199.017, 301.652 199.038 C 301.568 199.059, 300.914 199.740, 300.199 200.551 M 619 202.334 C 619 204.233, 619.579 206.008, 620.286 206.279 C 621.221 206.638, 621.464 205.847, 621.175 203.377 C 620.641 198.801, 619 198.014, 619 202.334 M 512 202 C 512 203.100, 512.450 204, 513 204 C 513.550 204, 514 203.100, 514 202 C 514 200.900, 513.550 200, 513 200 C 512.450 200, 512 200.900, 512 202 M 513.015 209.250 C 513.024 209.938, 513.411 211.100, 513.876 211.834 C 514.550 212.897, 514.852 212.828, 515.364 211.494 C 515.717 210.573, 515.753 209.410, 515.444 208.910 C 514.619 207.574, 512.998 207.801, 513.015 209.250 M 407.442 218.477 C 407.485 224.647, 407.816 226.611, 408.750 226.258 C 409.534 225.962, 410 223.805, 410 220.475 C 410 217.554, 410.230 214.563, 410.512 213.830 C 410.793 213.096, 410.205 211.984, 409.204 211.359 C 407.498 210.294, 407.388 210.739, 407.442 218.477 M 304.199 213.611 C 303.483 214.389, 303.202 215.518, 303.574 216.119 C 304.040 216.874, 304.546 216.793, 305.203 215.857 C 305.879 214.896, 306.031 215.286, 305.727 217.195 L 305.298 219.891 335.399 219.960 C 361.658 220.021, 365.651 220.232, 366.683 221.615 C 367.334 222.487, 368.347 222.904, 368.933 222.541 C 369.520 222.179, 370 222.584, 370 223.441 C 370 224.298, 370.466 225, 371.035 225 C 371.737 225, 371.726 224.356, 371 223 C 370.411 221.900, 369.277 221, 368.478 221 C 367.680 221, 366.369 219.425, 365.564 217.500 C 364.171 214.165, 362.434 212.362, 363.638 215.500 C 364.142 216.811, 360.684 217, 336.139 217 L 308.064 217 306.782 214.599 C 305.691 212.555, 305.306 212.408, 304.199 213.611 M 516.539 215.937 C 515.017 218.400, 518.159 220.099, 523.671 219.795 C 530.547 219.416, 530.626 217.595, 523.785 217.190 C 520.902 217.019, 518.253 216.409, 517.897 215.833 C 517.458 215.123, 517.021 215.156, 516.539 215.937 M 633 217.108 C 633 218.867, 632.579 219.111, 630.458 218.579 C 628.837 218.172, 627.393 218.464, 626.472 219.385 C 625.213 220.644, 625.536 220.915, 628.987 221.498 L 632.946 222.167 633.223 236.251 C 633.385 244.501, 633.914 250.473, 634.500 250.667 C 635.125 250.874, 635.447 247.530, 635.359 241.749 C 635.027 220.039, 635.125 221.002, 633.250 220.970 C 631.583 220.941, 631.583 220.891, 633.250 219.920 C 635.106 218.839, 635.691 215, 634 215 C 633.450 215, 633 215.949, 633 217.108 M 425.694 216.644 C 426.350 216.911, 426.661 217.720, 426.384 218.441 C 426.080 219.233, 426.870 220.002, 428.374 220.379 C 429.745 220.723, 431.146 221.884, 431.487 222.958 C 432.376 225.759, 437.776 230.023, 439.564 229.337 C 442.244 228.309, 428.723 215.741, 425.300 216.079 C 424.860 216.122, 425.037 216.376, 425.694 216.644 M 637.210 219.750 C 637.932 220.622, 637.906 221, 637.122 221 C 636.505 221, 636 221.408, 636 221.906 C 636 222.416, 637.531 222.343, 639.500 221.739 C 644.122 220.320, 644.182 217.915, 639.588 218.251 C 636.987 218.441, 636.421 218.798, 637.210 219.750 M 307.667 221.667 C 306.629 222.704, 306.883 226, 308 226 C 308.550 226, 309 224.875, 309 223.500 C 309 220.882, 308.769 220.564, 307.667 221.667 M 601 227.029 C 601 229.319, 602.172 230.130, 603.920 229.050 C 605.635 227.990, 604.877 225.746, 602.696 225.426 C 601.622 225.268, 601 225.857, 601 227.029 M 516 229.382 C 516 230.757, 516.450 232.160, 517 232.500 C 517.565 232.849, 518 232.030, 518 230.618 C 518 229.243, 517.550 227.840, 517 227.500 C 516.435 227.151, 516 227.970, 516 229.382 M 409.453 233.500 C 408.989 235.700, 408.585 238.175, 408.555 239 C 408.510 240.214, 406.892 240.492, 400.069 240.456 C 394.410 240.427, 391.505 240.016, 391.235 239.206 C 390.698 237.594, 388.831 237.686, 385.364 239.494 C 382.975 240.740, 376.366 240.989, 345.491 240.994 C 311.331 241, 308.397 241.135, 307.388 242.750 C 306.351 244.409, 308.950 244.486, 357.586 244.232 L 408.877 243.965 409.309 247.232 C 409.546 249.030, 409.598 248.386, 409.424 245.802 C 409.169 242.032, 409.392 241.213, 410.553 241.659 C 411.671 242.088, 411.977 241.336, 411.900 238.357 C 411.845 236.236, 411.462 233.375, 411.048 232 C 410.349 229.675, 410.237 229.780, 409.453 233.500 M 576.032 230.750 C 576.049 231.162, 576.724 232.374, 577.532 233.441 C 578.940 235.303, 579 235.272, 579 232.691 C 579 230.966, 578.462 230, 577.500 230 C 576.675 230, 576.014 230.338, 576.032 230.750 M 604.548 233.250 C 604.129 234.213, 604.129 235.787, 604.548 236.750 C 605.273 238.417, 605.329 238.417, 605.728 236.750 C 605.958 235.787, 605.958 234.213, 605.728 233.250 C 605.329 231.583, 605.273 231.583, 604.548 233.250 M 516.750 236.572 C 516.337 236.991, 516 238.473, 516 239.867 C 516 241.687, 516.305 242.095, 517.085 241.315 C 517.681 240.719, 518.019 239.236, 517.835 238.020 C 517.651 236.805, 517.163 236.153, 516.750 236.572 M 575.272 241 C 575.272 243.475, 575.467 244.488, 575.706 243.250 C 575.944 242.012, 575.944 239.988, 575.706 238.750 C 575.467 237.512, 575.272 238.525, 575.272 241 M 603.272 243 C 603.272 245.475, 603.467 246.488, 603.706 245.250 C 603.944 244.012, 603.944 241.988, 603.706 240.750 C 603.467 239.512, 603.272 240.525, 603.272 243 M 280.897 242.302 C 281.340 242.742, 284.582 242.962, 288.102 242.790 L 294.500 242.477 287.295 241.989 C 283.333 241.720, 280.453 241.861, 280.897 242.302 M 519 242.539 C 519 243.828, 520.407 244.031, 527.669 243.789 C 533.500 243.595, 536.474 243.091, 536.753 242.250 C 537.064 241.311, 534.904 241, 528.083 241 C 520.574 241, 519 241.267, 519 242.539 M 589.809 255.002 C 589.639 261.603, 589.837 267.003, 590.250 267.002 C 590.663 267.001, 591 261.600, 591 255 C 591 248.400, 590.801 243, 590.559 243 C 590.316 243, 589.979 248.401, 589.809 255.002 M 606.365 252.500 C 606.368 258, 606.536 260.122, 606.738 257.216 C 606.941 254.311, 606.939 249.811, 606.734 247.216 C 606.528 244.622, 606.363 247, 606.365 252.500 M 303.663 244.758 C 303.206 245.485, 303.491 246.633, 304.339 247.482 C 305.628 248.771, 305.877 248.764, 306.391 247.422 C 306.714 246.583, 306.566 246.150, 306.064 246.460 C 305.562 246.771, 304.994 246.231, 304.802 245.262 C 304.546 243.967, 304.244 243.833, 303.663 244.758 M 272.120 251.560 C 270.287 255.169, 268.948 258.271, 269.144 258.454 C 269.340 258.638, 272.845 258.948, 276.933 259.144 L 284.366 259.500 287.679 254 C 292.758 245.568, 292.477 245, 283.226 245 L 275.453 245 272.120 251.560 M 411 248.382 C 411 249.757, 411.450 251.160, 412 251.500 C 412.565 251.849, 413 251.030, 413 249.618 C 413 248.243, 412.550 246.840, 412 246.500 C 411.435 246.151, 411 246.970, 411 248.382 M 576 253 C 576 255.750, 576.450 258, 577 258 C 577.550 258, 578 255.750, 578 253 C 578 250.250, 577.550 248, 577 248 C 576.450 248, 576 250.250, 576 253 M 370 252 C 368.862 252.736, 369.284 252.973, 371.750 252.985 C 373.538 252.993, 375 252.550, 375 252 C 375 250.730, 371.965 250.730, 370 252 M 432 252.241 C 432 252.658, 437.025 253, 443.167 253 C 449.308 253, 454.065 252.731, 453.736 252.403 C 452.847 251.513, 432 251.358, 432 252.241 M 377 254 C 377 254.632, 384.167 255, 396.500 255 C 408.833 255, 416 254.632, 416 254 C 416 253.368, 408.833 253, 396.500 253 C 384.167 253, 377 253.368, 377 254 M 440.750 254.732 C 443.087 254.943, 446.913 254.943, 449.250 254.732 C 451.587 254.522, 449.675 254.349, 445 254.349 C 440.325 254.349, 438.413 254.522, 440.750 254.732 M 490 260 C 490 260.550, 491.773 261, 493.941 261 C 496.109 261, 498.160 260.550, 498.500 260 C 498.878 259.389, 497.344 259, 494.559 259 C 492.052 259, 490 259.450, 490 260 M 320.033 264.725 C 318.729 266.196, 318.752 266.309, 320.231 265.741 C 321.148 265.390, 323.321 265.812, 325.060 266.680 C 327.354 267.824, 328.416 267.944, 328.928 267.117 C 329.362 266.415, 330.856 266.221, 332.816 266.613 C 336.189 267.288, 337.205 268.989, 334.250 269.015 C 332.847 269.028, 332.777 269.206, 333.898 269.916 C 335.388 270.859, 338.154 269.101, 337.328 267.737 C 337.074 267.317, 338.687 267.092, 340.914 267.237 C 343.140 267.382, 344.858 267.232, 344.731 266.904 C 344.604 266.576, 345.175 265.490, 346 264.490 C 347.381 262.817, 347.341 262.747, 345.500 263.616 C 343.181 264.710, 325.222 264.844, 323 263.784 C 322.106 263.358, 320.907 263.738, 320.033 264.725 M 517.395 265.588 C 517.642 266.231, 517.390 267.210, 516.835 267.765 C 516.156 268.444, 516.182 268.994, 516.913 269.446 C 517.518 269.820, 518 269.427, 518 268.559 C 518 267.227, 519.887 267, 530.941 267 C 543.019 267, 547.766 266.013, 542.983 264.495 C 539.305 263.327, 516.895 264.285, 517.395 265.588 M 516.015 278.750 C 516.024 279.712, 516.467 281.175, 517 282 C 517.736 283.138, 517.973 282.716, 517.985 280.250 C 517.993 278.462, 517.550 277, 517 277 C 516.450 277, 516.007 277.788, 516.015 278.750 M 586 279 C 586 279.550, 586.900 280, 588 280 C 589.914 280, 590 280.667, 590 295.441 C 590 309.412, 590.715 313.887, 592.490 311.016 C 592.835 310.457, 592.641 310, 592.059 310 C 591.363 310, 591 305.063, 591 295.582 C 591 287.652, 590.727 280.452, 590.393 279.582 C 589.734 277.863, 586 277.369, 586 279 M 513.656 285.455 C 513.275 286.448, 513.629 287, 514.648 287 C 515.741 287, 516.071 287.621, 515.710 289 C 515.095 291.353, 513.974 291.245, 536.479 291.005 C 545.267 290.912, 552.852 290.591, 553.335 290.293 C 555.830 288.751, 549.799 288.029, 534.307 288.015 C 518.130 288.001, 517.029 287.879, 515.681 285.955 C 514.475 284.233, 514.155 284.154, 513.656 285.455 M 245.309 286.877 C 242.411 291.518, 242.503 301.512, 245.434 300.387 C 246.432 300.004, 246.943 297.663, 247.174 292.420 C 247.353 288.336, 247.271 284.996, 246.991 284.998 C 246.710 284.999, 245.954 285.845, 245.309 286.877 M 131 288.035 C 113.125 288.329, 98.361 288.666, 98.191 288.785 C 98.021 288.903, 98.160 289.450, 98.500 290 C 98.892 290.634, 111.148 291, 131.971 291 C 160.317 291, 164.793 290.798, 164.607 289.529 C 164.488 288.720, 164.191 287.932, 163.946 287.779 C 163.701 287.626, 148.875 287.741, 131 288.035 M 250 291.941 C 250 293.623, 250.450 295, 251 295 C 251.550 295, 252 293.902, 252 292.559 C 252 291.216, 251.550 289.840, 251 289.500 C 250.417 289.139, 250 290.156, 250 291.941 M 392.607 293.582 C 391.743 295.833, 391.984 303.135, 393 305.500 C 393.583 306.857, 393.882 305.009, 393.930 299.750 C 394 291.951, 393.725 290.668, 392.607 293.582 M 261 296.500 C 261 298.425, 261.176 300, 261.391 300 C 261.605 300, 261.965 298.425, 262.190 296.500 C 262.415 294.575, 262.239 293, 261.799 293 C 261.360 293, 261 294.575, 261 296.500 M 460.128 295.916 C 459.374 296.385, 458.924 297.256, 459.128 297.852 C 459.352 298.506, 460.044 298.598, 460.872 298.084 C 461.626 297.615, 462.076 296.744, 461.872 296.148 C 461.648 295.494, 460.956 295.402, 460.128 295.916 M 255.036 301.932 C 253.974 303.918, 254.173 304, 260.024 304 C 263.991 304, 265.894 303.637, 265.475 302.959 C 265.121 302.387, 263.990 302.186, 262.961 302.512 C 261.933 302.839, 259.978 302.376, 258.617 301.485 C 256.280 299.953, 256.082 299.978, 255.036 301.932 M 363.103 307.808 C 362.425 309.075, 362.089 310.648, 362.356 311.305 C 362.633 311.985, 362.876 311.781, 362.921 310.833 C 362.964 309.917, 363.517 308.994, 364.150 308.783 C 364.783 308.572, 365.083 307.749, 364.818 306.953 C 364.460 305.880, 364.016 306.101, 363.103 307.808 M 488.500 310.892 C 485.909 311.286, 484.946 311.788, 485.766 312.319 C 486.463 312.770, 486.813 313.494, 486.544 313.929 C 486.275 314.365, 488.808 315.009, 492.174 315.360 C 501.371 316.322, 558.294 316.100, 559.878 315.096 C 564.027 312.468, 559.121 312, 527.441 312 C 506.480 312, 495 311.646, 495 311 C 495 309.941, 494.777 309.938, 488.500 310.892 M 105.431 313.112 C 105.053 313.723, 105.364 314.616, 106.122 315.096 C 107.712 316.104, 172.348 316.325, 179.478 315.348 C 184.047 314.722, 184.141 314.644, 181.867 313.383 C 178.720 311.638, 106.500 311.382, 105.431 313.112 M 466.250 313.716 C 467.762 313.945, 470.238 313.945, 471.750 313.716 C 473.262 313.487, 472.025 313.300, 469 313.300 C 465.975 313.300, 464.738 313.487, 466.250 313.716 M 475.500 315 C 475.132 315.595, 476.323 316, 478.441 316 C 480.398 316, 482 315.550, 482 315 C 482 314.450, 480.677 314, 479.059 314 C 477.441 314, 475.840 314.450, 475.500 315 M 303.250 321.746 C 302.399 322.033, 302 324.555, 302 329.655 C 302 336.410, 302.151 336.992, 303.546 335.597 C 305.525 333.618, 305.257 321.071, 303.250 321.746 M 466.095 322.500 C 466.078 323.600, 466.661 325.288, 467.392 326.250 C 469.048 328.431, 474 328.618, 474 326.500 C 474 325.496, 472.996 325, 470.968 325 C 468.758 325, 467.690 324.390, 467.031 322.750 C 466.206 320.696, 466.124 320.675, 466.095 322.500 M 365.826 323.653 C 365.255 326.595, 366.167 334, 367.101 334 C 368.290 334, 368.267 323.283, 367.076 322.547 C 366.567 322.233, 366.005 322.731, 365.826 323.653 M 138.122 324.879 C 133.959 327.589, 138.849 328, 175.214 328 C 211.104 328, 212.256 327.940, 210.653 326.169 C 209.114 324.468, 206.526 324.326, 174.248 324.160 C 155.090 324.062, 138.882 324.385, 138.122 324.879 M 478.122 324.895 C 473.560 327.813, 479.153 328, 571 328 C 660.803 328, 667.142 327.809, 664.517 325.183 C 663.488 324.154, 479.725 323.869, 478.122 324.895 M 234.100 333.191 C 234.155 334.461, 234.560 336.625, 235 338 C 235.684 340.135, 235.815 339.888, 235.900 336.309 C 235.955 334.004, 235.550 331.840, 235 331.500 C 234.435 331.151, 234.043 331.887, 234.100 333.191 M 394.116 334.668 C 394.052 336.411, 393.733 338.661, 393.406 339.668 C 393.044 340.784, 393.141 341.057, 393.656 340.366 C 394.120 339.742, 395.368 339.067, 396.429 338.866 C 398.181 338.533, 398.214 338.357, 396.786 336.929 C 395.923 336.065, 394.994 334.490, 394.724 333.429 C 394.408 332.190, 394.191 332.633, 394.116 334.668 M 136.496 337.007 C 136.153 337.561, 136.464 338.241, 137.187 338.518 C 137.909 338.794, 159.613 338.904, 185.417 338.761 C 221.874 338.558, 232.427 338.221, 232.750 337.250 C 233.287 335.639, 137.491 335.397, 136.496 337.007 M 468.613 339.183 C 468.262 340.938, 468.431 342.831, 468.988 343.387 C 469.671 344.071, 470 343.524, 470 341.705 L 470 339.010 567.250 338.755 C 631.456 338.587, 664.415 338.160, 664.250 337.500 C 664.086 336.844, 630.496 336.412, 566.626 336.245 L 469.252 335.990 468.613 339.183 M 401.116 338.750 C 401.052 339.988, 400.550 341, 400 341 C 399.450 341, 399.037 342.238, 399.082 343.750 C 399.163 346.495, 399.166 346.494, 400.632 343.133 C 401.440 341.281, 401.906 339.031, 401.667 338.133 C 401.377 337.045, 401.193 337.251, 401.116 338.750 M 303 340 C 303 341.100, 303.450 342, 304 342 C 304.550 342, 305 341.100, 305 340 C 305 338.900, 304.550 338, 304 338 C 303.450 338, 303 338.900, 303 340 M 365.569 375.250 C 365.189 392.438, 364.683 413, 364.444 420.944 C 364.018 435.093, 364.339 436.925, 367.250 436.985 C 367.663 436.993, 368 416.075, 368 390.500 C 368 364.768, 367.611 344, 367.129 344 C 366.650 344, 365.948 358.063, 365.569 375.250 M 470.102 346.500 C 470.081 347.600, 470.655 349.279, 471.379 350.232 C 472.552 351.777, 475.307 351.993, 496.867 352.232 L 521.041 352.500 518.975 356.500 C 517.839 358.700, 515.741 363.425, 514.312 367 C 512.884 370.575, 510.043 376.875, 508 381 C 505.957 385.125, 503.288 391.650, 502.068 395.500 C 500.849 399.350, 499.275 403.400, 498.571 404.500 C 496.523 407.698, 490 422.956, 490 424.548 C 490 427.835, 492.205 425.604, 495.011 419.475 C 496.655 415.886, 498 412.743, 498 412.491 C 498 412.238, 499.350 409.245, 501 405.839 C 502.650 402.432, 504 398.967, 504 398.139 C 504 396.620, 504.422 395.637, 511.891 379.770 C 514.151 374.969, 516 370.771, 516 370.441 C 516 370.112, 517.865 365.828, 520.145 360.921 L 524.290 352 562.145 352 C 585.714 352, 600 352.363, 600 352.962 C 600 353.491, 601.524 357.203, 603.387 361.212 C 609.819 375.050, 616.818 391.519, 618.809 397.500 C 620.899 403.779, 624.180 411.751, 626.423 416 C 627.148 417.375, 628.285 420.188, 628.949 422.250 C 629.612 424.313, 630.795 426, 631.578 426 C 633.126 426, 633.552 422.459, 632.111 421.568 C 631.622 421.266, 630.943 419.908, 630.602 418.549 C 630.261 417.191, 628.219 412.335, 626.065 407.757 C 623.910 403.180, 621.854 398.100, 621.496 396.467 C 620.764 393.135, 620.384 392.163, 616.223 383 C 612.962 375.816, 611.634 372.735, 607.477 362.704 C 605.928 358.967, 604.287 355.678, 603.831 355.395 C 603.374 355.113, 603 354.234, 603 353.441 C 603 352.217, 607.686 352, 634.083 352 C 658.506 352, 665.077 351.732, 664.750 350.750 C 664.422 349.766, 643.824 349.394, 568.017 349 C 472.862 348.506, 471.692 348.476, 470.921 346.500 L 470.141 344.500 470.102 346.500 M 388.689 349.368 C 388.257 350.945, 388.150 352.483, 388.451 352.785 C 389.494 353.828, 390.149 352.172, 389.813 349.341 L 389.476 346.500 388.689 349.368 M 136.345 350.240 C 134.152 353.758, 128.940 365.507, 127.964 369.134 C 127.352 371.406, 124.635 377.940, 121.926 383.656 C 119.217 389.372, 117 394.237, 117 394.466 C 117 394.696, 115.147 398.847, 112.881 403.692 C 104.381 421.870, 102.745 426.578, 105.206 425.773 C 106.427 425.373, 110.531 416.856, 120.036 395 C 122.308 389.775, 125.003 383.700, 126.025 381.500 C 127.046 379.300, 128.861 374.800, 130.057 371.500 C 131.253 368.200, 133.690 362.575, 135.471 359 L 138.710 352.500 176.855 352.238 C 201.690 352.068, 215 352.324, 215 352.972 C 215 353.520, 216.317 356.686, 217.926 360.008 C 219.535 363.330, 221.155 367.430, 221.526 369.120 C 221.897 370.809, 223.812 375.636, 225.781 379.846 C 232.268 393.718, 232.044 392.160, 231.808 421.712 C 231.689 436.679, 231.950 449.279, 232.388 449.712 C 232.826 450.146, 233.016 436.100, 232.810 418.500 L 232.435 386.500 228.181 377.694 C 225.842 372.850, 223.643 367.450, 223.295 365.694 C 222.947 363.937, 221.621 360.250, 220.349 357.500 L 218.036 352.500 225.587 352.207 C 230.938 351.999, 233.021 351.562, 232.736 350.707 C 232.136 348.908, 137.461 348.450, 136.345 350.240 M 392 350.500 C 392 351.610, 393.163 352, 396.469 352 C 400.030 352, 400.820 351.695, 400.362 350.500 C 399.986 349.522, 398.431 349, 395.893 349 C 393.099 349, 392 349.424, 392 350.500 M 302 372.878 C 302 389.466, 302.252 392.964, 303.524 394.020 C 304.881 395.146, 305.038 393.290, 304.953 377.142 C 304.890 365.186, 304.499 359, 303.806 359 C 303.114 359, 303.145 358.531, 303.895 357.627 C 304.522 356.871, 304.754 355.521, 304.410 354.627 C 302.637 350.007, 302 354.833, 302 372.878 M 403.117 356.421 C 402.458 358.028, 402.110 360.053, 402.344 360.921 C 402.620 361.949, 402.808 361.744, 402.884 360.333 C 402.948 359.142, 403.501 358, 404.114 357.795 C 404.727 357.591, 405.023 356.541, 404.772 355.462 C 404.379 353.774, 404.148 353.908, 403.117 356.421 M 385.141 374.500 C 385.141 376.700, 385.527 379.400, 386 380.500 C 386.669 382.058, 386.859 381.615, 386.859 378.500 C 386.859 376.300, 386.473 373.600, 386 372.500 C 385.331 370.942, 385.141 371.385, 385.141 374.500 M 405.020 371.988 C 403.778 372.755, 403.824 372.995, 405.321 373.570 C 407.408 374.370, 408.770 373.370, 407.425 372.025 C 406.857 371.457, 405.903 371.442, 405.020 371.988 M 475.128 381.916 C 474.374 382.385, 473.924 383.256, 474.128 383.852 C 474.352 384.506, 475.044 384.598, 475.872 384.084 C 476.626 383.615, 477.076 382.744, 476.872 382.148 C 476.648 381.494, 475.956 381.402, 475.128 381.916 M 408.215 386.533 C 407.322 387.546, 407.132 389.517, 407.594 392.995 C 408.540 400.128, 409.841 399.187, 409.656 391.503 C 409.570 387.930, 409.500 385.022, 409.500 385.041 C 409.500 385.060, 408.922 385.732, 408.215 386.533 M 380.622 397.825 C 380.179 399.104, 380.083 400.417, 380.409 400.742 C 381.445 401.779, 382.174 400.250, 381.794 397.836 L 381.426 395.500 380.622 397.825 M 409.630 402.915 C 409.247 405.308, 409.174 407.507, 409.467 407.800 C 409.760 408.093, 410 407.396, 410 406.250 C 410 405.104, 410.554 403.982, 411.230 403.757 C 412.151 403.450, 412.192 402.745, 411.393 400.955 C 410.390 398.706, 410.284 398.824, 409.630 402.915 M 381.547 405.602 C 380.616 410.564, 381.370 410.812, 382.663 405.968 C 383.245 403.786, 383.385 402, 382.972 402 C 382.560 402, 381.918 403.621, 381.547 405.602 M 478.780 407.160 C 478.165 409.005, 479.139 414, 480.113 414 C 480.601 414, 481 412.200, 481 410 C 481 406.266, 479.653 404.542, 478.780 407.160 M 300.999 422.500 C 300.724 430.750, 300.611 437.687, 300.749 437.917 C 301.737 439.558, 302.018 435.316, 301.778 422.389 L 301.500 407.500 300.999 422.500 M 414.015 424.250 C 414.007 425.762, 414.450 427, 415 427 C 416.264 427, 416.264 424.957, 415 423 C 414.245 421.831, 414.027 422.107, 414.015 424.250 M 483 436 C 483 437.100, 483.450 438, 484 438 C 484.550 438, 485 437.100, 485 436 C 485 434.900, 484.550 434, 484 434 C 483.450 434, 483 434.900, 483 436 M 352 439 C 352 439.550, 354.475 440, 357.500 440 C 360.525 440, 363 439.550, 363 439 C 363 438.450, 360.525 438, 357.500 438 C 354.475 438, 352 438.450, 352 439 M 416 438.782 C 416 439.212, 417.125 439.657, 418.500 439.771 C 419.875 439.884, 421 439.533, 421 438.989 C 421 438.445, 419.875 438, 418.500 438 C 417.125 438, 416 438.352, 416 438.782 M 425 440 C 426.976 441.277, 430.289 441.277, 429.500 440 C 429.160 439.450, 427.671 439.007, 426.191 439.015 C 424.086 439.027, 423.827 439.242, 425 440 M 450 439.934 C 450 440.447, 448.762 441.055, 447.250 441.284 C 445.738 441.513, 449.130 441.768, 454.789 441.850 C 463.528 441.977, 464.885 441.791, 463.789 440.611 C 462.992 439.751, 462.262 439.601, 461.875 440.217 C 461.482 440.843, 460.971 440.762, 460.500 440 C 459.925 439.069, 459.529 439.102, 458.799 440.143 C 458.059 441.198, 457.735 441.222, 457.341 440.250 C 456.758 438.814, 450 438.523, 450 439.934 M 287 441 C 285.222 441.569, 286.595 441.829, 291.750 441.900 C 295.983 441.959, 299 441.584, 299 441 C 299 439.833, 290.644 439.833, 287 441 M 484.926 441.250 C 484.174 443.780, 484.189 446.501, 484.964 447.829 C 485.709 449.105, 485.946 448.496, 485.970 445.250 C 485.986 442.913, 485.775 441, 485.500 441 C 485.225 441, 484.967 441.113, 484.926 441.250 M 407.033 446.460 C 405.912 447.811, 405.960 447.953, 407.359 447.416 C 409.190 446.713, 409.528 447.962, 408.004 449.804 C 407.456 450.466, 407.729 450.378, 408.612 449.609 C 409.749 448.620, 409.945 447.724, 409.284 446.542 C 408.433 445.023, 408.232 445.016, 407.033 446.460 M 251.738 449.692 C 249.706 450.222, 250.384 452, 252.618 452 C 253.443 452, 253.864 451.588, 253.553 451.085 C 253.242 450.582, 253.553 449.943, 254.244 449.664 C 255.782 449.044, 254.151 449.062, 251.738 449.692 M 408.500 461 C 408.160 461.550, 406.896 462.007, 405.691 462.015 C 403.910 462.028, 403.781 462.212, 405 463 C 406.621 464.047, 468.731 464.424, 471.393 463.403 C 472.728 462.890, 472.750 462.607, 471.546 461.403 C 470.403 460.260, 464.480 460, 439.630 460 C 420.368 460, 408.890 460.369, 408.500 461 M 330.100 464.316 C 329.947 468.634, 328.315 470.819, 324.446 471.887 C 322.390 472.455, 305.537 472.786, 284.086 472.681 C 257.430 472.550, 246.960 472.817, 246.183 473.649 C 244.285 475.681, 250.319 476.013, 288.112 475.951 C 322.486 475.894, 324.840 475.776, 327.849 473.945 C 330.813 472.143, 333.068 472, 358.442 472 C 373.509 472, 386.537 471.731, 387.393 471.403 C 388.728 470.890, 388.750 470.607, 387.546 469.403 C 385.608 467.465, 339.484 467.321, 338.583 469.250 C 338.117 470.250, 337.883 470.250, 337.417 469.250 C 336.725 467.767, 333 467.557, 333 469 C 333 469.550, 332.325 470, 331.500 470 C 329.834 470, 329.553 468.900, 330.849 467.450 C 331.315 466.928, 331.360 465.375, 330.948 464 L 330.199 461.500 330.100 464.316" stroke="none" fill="#5b7de9" fill-rule="evenodd"/></svg>