<svg xmlns="http://www.w3.org/2000/svg" width="563" height="443" viewBox="0 0 563 443" version="1.1"><path d="M 374 56.066 C 374 56.652, 374.466 58.002, 375.035 59.066 C 375.930 60.738, 375.732 61, 373.570 61 C 368.368 61, 367.875 67.503, 372.605 73.719 C 374.451 76.144, 374.818 77.378, 374.094 78.719 C 372.816 81.087, 370.979 89.301, 371.082 92.193 C 371.126 93.462, 371.829 91.350, 372.643 87.500 C 375.624 73.396, 377.354 71.540, 385.101 74.142 C 390.104 75.822, 392 77.871, 392 81.596 C 392 85.678, 393.253 86.535, 396.302 84.538 C 399.055 82.734, 400 83.342, 400 86.917 C 400 88.658, 398.778 90.559, 396.250 92.748 C 394.188 94.534, 393.288 95.723, 394.250 95.391 C 395.212 95.058, 396 94.414, 396 93.960 C 396 93.506, 396.854 92.864, 397.899 92.532 C 399.557 92.006, 403.775 84.806, 405.368 79.783 C 406.204 77.144, 403.254 68.456, 400.350 65.004 C 397.171 61.226, 391.310 58.137, 384 56.388 C 377.240 54.770, 374 54.665, 374 56.066 M 462 80.919 C 454.170 83.057, 449.719 86.909, 435 104.285 C 431.975 107.856, 427.835 111.561, 425.800 112.519 C 423.764 113.476, 421.289 114.988, 420.300 115.880 C 419.310 116.771, 417.268 118.136, 415.762 118.913 C 414.256 119.690, 412.473 121.570, 411.800 123.091 C 411.126 124.611, 410.260 125.660, 409.873 125.422 C 408.985 124.872, 405 131.239, 405 133.208 C 405 134.246, 407.134 135.068, 412.250 136.002 C 419.395 137.305, 426.266 140.003, 427.491 141.986 C 427.836 142.544, 428.637 143, 429.271 143 C 429.906 143, 428.908 141.734, 427.055 140.187 L 423.685 137.373 426.592 136.195 C 429.906 134.853, 441.652 133.049, 447.276 133.020 L 451.051 133 449.469 136.250 L 447.886 139.500 450.971 136 C 453.408 133.236, 453.961 131.830, 453.602 129.314 C 453.158 126.210, 453.244 126.129, 456.902 126.179 C 460.666 126.231, 465 124.318, 465 122.604 C 465 122.102, 464.177 122.435, 463.171 123.345 C 461.981 124.422, 459.591 125, 456.326 125 C 450.604 125, 448.958 123.696, 447.002 117.609 C 445.635 113.353, 446.106 100.494, 447.687 98.913 C 448.571 98.029, 463.365 99.489, 465.234 100.645 C 465.655 100.905, 466 103.419, 466 106.230 C 466 109.555, 466.571 111.973, 467.632 113.146 C 469.136 114.808, 469.137 115.141, 467.646 117.418 C 466.197 119.629, 466.183 120.206, 467.514 122.943 C 472.123 132.424, 471.953 131.794, 470.285 133.179 C 469.429 133.889, 467.681 136.052, 466.402 137.985 C 465.122 139.918, 463.055 142.828, 461.808 144.451 C 460.561 146.074, 460.048 147.088, 460.669 146.705 C 461.289 146.321, 464.205 142.839, 467.148 138.967 C 472.969 131.309, 472.498 131.475, 482.500 133.564 C 483.600 133.794, 483.935 133.722, 483.244 133.405 C 482.553 133.088, 482.253 132.400, 482.577 131.875 C 484.137 129.350, 487.027 114.072, 486.616 110.518 C 484.869 95.395, 478.082 83.228, 470.168 81.030 C 466.163 79.918, 465.692 79.911, 462 80.919 M 213.340 88.488 C 207.955 90.103, 203.351 93.420, 201.485 97.029 C 199.709 100.463, 199.550 108.115, 201.162 112.572 L 202.324 115.786 205.876 110.393 C 208.717 106.080, 209.968 105, 212.125 105 C 215.473 105, 219.533 109.552, 220.981 114.929 C 222.448 120.378, 224.307 121.684, 227.562 119.551 C 229.581 118.228, 230.442 118.122, 231.567 119.056 C 235.056 121.951, 231.817 128, 226.777 128 C 225.297 128, 222.829 129.291, 220.946 131.050 C 216.421 135.277, 214.785 136, 209.740 136 C 206.368 136, 204.812 135.429, 203.037 133.540 C 200.939 131.306, 200.772 130.405, 201.231 123.790 C 201.514 119.713, 201.385 117.382, 200.939 118.500 C 200.500 119.600, 200.109 122.791, 200.070 125.590 C 200.032 128.390, 198.713 134.536, 197.140 139.248 L 194.279 147.817 198.390 148.253 C 200.650 148.492, 202.819 148.518, 203.210 148.310 C 203.600 148.102, 204.695 145.472, 205.642 142.466 C 207.283 137.261, 207.527 137, 210.748 137 C 214.695 137, 217.440 135.745, 221.240 132.201 C 222.746 130.796, 224.207 129.874, 224.486 130.152 C 224.764 130.431, 224.158 134.673, 223.138 139.579 L 221.284 148.500 223.392 149.316 C 224.551 149.765, 227.975 150.029, 231 149.903 C 243.874 149.365, 247.595 149.685, 252.149 151.720 C 261.452 155.878, 268.876 166.273, 269.775 176.398 C 270.024 179.204, 272.175 187.443, 274.556 194.707 C 276.936 201.971, 279.357 210.482, 279.938 213.620 C 280.518 216.758, 281.259 219.590, 281.585 219.913 C 282.998 221.312, 279.228 204.941, 276.509 197.871 C 275.182 194.423, 275.237 194.126, 277.599 191.907 C 279.816 189.824, 280.323 189.719, 282.292 190.939 C 283.507 191.691, 285.625 192.961, 287 193.762 L 289.500 195.217 287.285 193.359 C 286.067 192.336, 284.061 190.779, 282.826 189.898 C 280.694 188.375, 280.651 188.087, 281.956 184.133 C 283.001 180.967, 283.083 178.890, 282.298 175.462 C 281.296 171.079, 282.256 168.080, 283.454 171.854 C 283.782 172.889, 285.016 174.583, 286.195 175.618 C 288.214 177.390, 288.204 177.314, 286.035 174.322 C 283.443 170.748, 283.877 168, 287.034 168 C 290.402 168, 293 169.892, 293 172.344 C 293 173.595, 293.661 175.491, 294.470 176.559 C 295.800 178.315, 295.827 178.191, 294.756 175.264 C 293.869 172.840, 293.858 171.742, 294.713 170.887 C 296.213 169.387, 302.128 172.966, 305.142 177.199 L 307.320 180.258 304.092 186.129 C 302.317 189.358, 301.053 192, 301.283 192 C 301.904 192, 308 182.010, 308 180.993 C 308 179.257, 309.851 179.039, 313.144 180.387 C 314.990 181.142, 317.625 182.069, 319 182.446 C 323.797 183.761, 318.745 181.126, 313 179.316 C 309.859 178.327, 306.047 176.179, 304.112 174.307 C 302.248 172.504, 299.211 170.482, 297.362 169.814 L 294 168.598 293.791 158.549 L 293.581 148.500 293.254 158.288 L 292.927 168.077 289.568 167.447 C 287.286 167.019, 285.429 167.328, 283.775 168.412 C 281.383 169.979, 281.287 169.924, 278.254 165.243 C 276.557 162.623, 273.607 158.873, 271.700 156.909 C 268.983 154.111, 268.441 152.963, 269.199 151.608 C 270.062 150.067, 269.944 150.018, 268.112 151.162 C 266.284 152.303, 265.656 152.060, 262.464 148.973 C 258.269 144.915, 251.773 131.908, 248.689 121.390 C 245.764 111.414, 237.650 96.107, 235.250 96.037 C 234.548 96.016, 233.993 97.205, 233.985 98.750 C 233.957 103.645, 232.950 104.199, 227.439 102.351 C 224.722 101.440, 220.591 99.339, 218.257 97.682 L 214.014 94.671 216.511 91.397 C 217.884 89.596, 218.669 87.924, 218.254 87.682 C 217.839 87.439, 215.628 87.802, 213.340 88.488 M 301.564 89.497 C 298.849 90.874, 295.387 92, 293.871 92 C 290.607 92, 284.353 95.471, 282.974 98.048 C 282.438 99.049, 282 102.793, 282 106.367 C 282 112.855, 281.992 112.872, 277.508 116.547 C 272.377 120.751, 270.596 125.389, 271.907 131.132 C 272.363 133.130, 273.047 135.267, 273.427 135.882 C 273.811 136.503, 273.494 137, 272.714 137 C 270.980 137, 268.456 139.780, 267.582 142.652 C 267.128 144.144, 267.651 145.645, 269.285 147.545 C 271.390 149.992, 271.957 150.172, 274.571 149.222 C 276.207 148.628, 276.749 148.123, 275.800 148.079 C 274.865 148.036, 273.641 147.213, 273.080 146.250 C 272.519 145.287, 272.047 144.973, 272.030 145.550 C 272.014 146.128, 272.540 147.140, 273.200 147.800 C 274.133 148.733, 274.017 149, 272.675 149 C 270.531 149, 269.031 145.288, 269.720 141.685 C 270.261 138.855, 272 136.932, 272 139.163 C 272 139.868, 272.701 139.445, 273.557 138.223 C 274.413 137, 275.898 136, 276.857 136 C 277.816 136, 279.079 135.521, 279.664 134.936 C 280.969 133.631, 289.013 134.112, 289.093 135.500 C 289.125 136.050, 287.802 136.892, 286.154 137.372 C 283.974 138.007, 282.468 139.573, 280.626 143.122 C 279.235 145.805, 278.475 148, 278.939 148 C 279.403 148, 280.494 146.223, 281.363 144.050 C 283.105 139.697, 284.698 138.522, 290.279 137.475 C 292.733 137.015, 294.535 137.199, 295.511 138.009 C 296.342 138.699, 297 138.804, 297 138.247 C 297 137.699, 298.399 136.970, 300.109 136.628 C 303.387 135.973, 303.337 136.250, 301.416 129.346 C 300.954 127.685, 301.352 127.030, 303.159 126.480 C 304.446 126.088, 306.967 124.669, 308.759 123.326 C 311.781 121.062, 312.064 121.016, 312.640 122.692 C 312.983 123.686, 314.367 127.036, 315.717 130.136 C 318.003 135.387, 318.455 135.824, 322.335 136.532 C 324.626 136.950, 327.006 137.220, 327.623 137.131 C 328.873 136.952, 328.840 144.366, 327.579 147.202 C 326.713 149.152, 327.561 151.007, 329.309 150.985 C 330.081 150.975, 330.009 150.658, 329.104 150.086 C 327.239 148.904, 328.455 146, 330.815 146 C 332.968 146, 338.717 148.620, 341.148 150.709 C 342.616 151.971, 342.780 151.867, 342.649 149.754 C 342.526 147.792, 341.935 147.366, 339.224 147.289 C 335.687 147.189, 328.648 142.557, 329.257 140.730 C 330.221 137.836, 332.655 137.849, 337.618 140.775 C 341.300 142.946, 343.132 143.506, 344.340 142.830 C 346.860 141.419, 346.388 137.093, 343.462 134.792 C 341.488 133.239, 341.176 132.493, 342.057 131.431 C 342.680 130.681, 342.957 129.490, 342.673 128.784 C 342.332 127.933, 342.131 128.054, 342.079 129.143 C 341.973 131.346, 339.322 132.243, 336.842 130.915 C 335.735 130.323, 334.578 130.089, 334.271 130.395 C 333.965 130.702, 334.566 131.263, 335.607 131.641 C 339.283 132.978, 344.958 137.521, 344.979 139.143 C 345.019 142.274, 341.900 141.969, 335.203 138.188 C 327.986 134.113, 326.391 131.088, 330.900 130.024 L 333.299 129.457 330.650 128.250 C 327.649 126.883, 327.049 123.302, 329.654 122.302 C 330.608 121.937, 333.319 122.797, 336.052 124.334 C 340.879 127.047, 342.482 127.595, 341.659 126.250 C 341.407 125.838, 341.516 122.463, 341.902 118.750 C 342.288 115.037, 342.243 112, 341.802 112 C 341.361 112, 340.936 109.412, 340.858 106.250 C 340.722 100.717, 340.689 100.651, 340 104.500 C 339.606 106.700, 339.204 108.050, 339.106 107.500 C 339.009 106.950, 338.253 107.625, 337.427 109 L 335.925 111.500 336.507 108.409 C 337.185 104.807, 336.396 103.990, 329.887 101.557 C 326.434 100.266, 324.727 98.858, 323.094 95.954 C 318.382 87.570, 310.203 85.117, 301.564 89.497 M 372.843 96.694 C 374.036 98.936, 375.844 100.490, 376.498 99.835 C 376.699 99.635, 375.696 98.352, 374.269 96.985 C 371.876 94.691, 371.766 94.669, 372.843 96.694 M 388.500 98.068 C 386.850 99.125, 386.013 99.992, 386.639 99.995 C 387.266 99.998, 388.841 99.115, 390.139 98.033 C 393.112 95.556, 392.397 95.572, 388.500 98.068 M 396.610 101.500 C 397.433 105.177, 398.005 105.975, 397.985 103.417 C 397.976 102.362, 397.513 100.825, 396.954 100 C 396.213 98.905, 396.120 99.309, 396.610 101.500 M 293.313 100.727 C 289.519 103.327, 288.724 117.395, 292.061 122.869 C 294.047 126.126, 294.290 126.224, 299.386 125.801 C 303.093 125.494, 305.699 124.568, 308.173 122.682 C 310.181 121.150, 312.975 120, 314.689 120 C 318.300 120, 321 117.307, 321 113.706 C 321 109.042, 314.454 107.891, 312.651 112.239 C 311.866 114.132, 308 109.289, 308 106.412 C 308 104.988, 306.999 103.390, 305.486 102.399 C 302.638 100.533, 295.105 99.498, 293.313 100.727 M 378.548 101.078 C 378.915 101.671, 379.617 103.359, 380.109 104.828 C 380.950 107.344, 380.975 107.314, 380.539 104.313 C 380.125 101.470, 380.368 101.081, 382.788 100.713 C 384.888 100.393, 384.641 100.266, 381.691 100.150 C 379.192 100.052, 378.111 100.371, 378.548 101.078 M 101.180 122.250 L 101.360 127.500 101.735 122.750 L 102.110 118 114 118 L 125.890 118 126.265 122.750 L 126.640 127.500 126.820 122.250 L 127 117 114 117 L 101 117 101.180 122.250 M 129.185 130.250 L 129.370 136.500 129.745 131.022 C 129.952 128.009, 130.656 125.203, 131.310 124.787 C 132.109 124.279, 131.925 124.026, 130.750 124.015 C 129.249 124.002, 129.026 124.889, 129.185 130.250 M 136.088 128.394 C 134.311 130.535, 137.462 133.358, 140.069 131.963 C 142.303 130.767, 142.476 129.876, 140.800 128.200 C 139.212 126.612, 137.508 126.683, 136.088 128.394 M 488.788 137.075 C 493.354 140.433, 498.944 150.528, 499.070 155.643 C 499.109 157.214, 499.566 159.400, 500.087 160.500 C 501.679 163.865, 500.168 154.115, 498.228 148.500 C 496.493 143.480, 488.401 134, 485.851 134 C 485.166 134, 486.488 135.384, 488.788 137.075 M 126.328 141.500 C 126.333 145.350, 126.513 146.802, 126.730 144.728 C 126.946 142.653, 126.943 139.503, 126.722 137.728 C 126.501 135.952, 126.324 137.650, 126.328 141.500 M 132.762 135.707 C 134.006 135.946, 135.806 135.937, 136.762 135.687 C 137.718 135.437, 136.700 135.241, 134.500 135.252 C 132.300 135.263, 131.518 135.468, 132.762 135.707 M 101 146.458 L 101 154.916 93.250 155.257 L 85.500 155.598 93.187 155.799 L 100.873 156 101.277 159.250 C 101.498 161.037, 101.752 156.988, 101.840 150.250 C 101.928 143.512, 101.775 138, 101.500 138 C 101.225 138, 101 141.806, 101 146.458 M 320.500 140.225 C 319.400 140.865, 316.925 141.699, 315 142.079 C 311.600 142.750, 311.586 142.772, 314.500 142.843 C 316.150 142.883, 319.075 142.054, 321 141 C 322.925 139.946, 324.050 139.079, 323.500 139.072 C 322.950 139.066, 321.600 139.585, 320.500 140.225 M 446.465 144.386 C 445.722 149.337, 447.136 153.002, 449.785 152.996 C 451.877 152.992, 458.445 149.111, 457.670 148.337 C 457.365 148.032, 455.680 148.804, 453.926 150.053 C 449.328 153.327, 447.432 151.817, 447.718 145.111 C 447.985 138.842, 447.351 138.475, 446.465 144.386 M 432.346 148.148 C 433.659 150.705, 435.245 154.265, 435.871 156.060 C 436.497 157.856, 437.248 159.086, 437.540 158.794 C 438.340 157.994, 434.809 149.779, 432.230 146.439 C 429.984 143.532, 429.985 143.550, 432.346 148.148 M 353.819 152.507 C 350.145 154.960, 346.813 157.494, 346.415 158.138 C 345.491 159.633, 346.733 158.903, 354.750 153.240 C 360.087 149.469, 361.873 147.917, 360.750 148.024 C 360.613 148.037, 357.494 150.054, 353.819 152.507 M 399.441 149.439 C 397.802 150.654, 397.691 151.192, 398.730 152.893 C 399.503 154.160, 399.596 155.132, 398.980 155.513 C 396.547 157.016, 398.176 160.192, 402.878 163.115 C 407.619 166.062, 407.819 166.383, 410.035 174.628 C 411.288 179.293, 412.581 182.735, 412.907 182.277 C 413.233 181.819, 414.625 180.920, 416 180.278 C 418.430 179.144, 418.413 179.127, 415.394 179.652 C 412.616 180.135, 412.222 179.892, 411.658 177.346 C 411.311 175.781, 410.614 172.796, 410.110 170.713 C 409.272 167.247, 409.355 166.978, 411.097 167.531 C 414.216 168.521, 413.263 167.346, 409.250 165.253 C 407.188 164.178, 404.038 162.523, 402.250 161.576 C 398.643 159.665, 398.095 157.643, 400.750 156.050 C 402.417 155.050, 402.417 154.950, 400.750 153.950 C 398.178 152.407, 398.616 150.307, 401.750 149.162 C 403.262 148.610, 403.799 148.122, 402.941 148.079 C 402.084 148.036, 400.509 148.648, 399.441 149.439 M 332.559 153.468 C 333.626 154.276, 334.950 154.936, 335.500 154.936 C 336.050 154.936, 335.626 154.276, 334.559 153.468 C 333.491 152.661, 332.168 152, 331.618 152 C 331.068 152, 331.491 152.661, 332.559 153.468 M 72.750 155.732 C 75.087 155.943, 78.912 155.943, 81.250 155.732 C 83.587 155.522, 81.675 155.349, 77 155.349 C 72.325 155.349, 70.412 155.522, 72.750 155.732 M 462.500 166.095 C 455.900 171.564, 449.707 176.705, 448.739 177.519 C 446.436 179.455, 446.322 179.421, 445.613 176.593 C 445.280 175.269, 444.100 172.066, 442.990 169.476 L 440.971 164.767 438.978 167.301 C 437.882 168.694, 432.826 171.896, 427.743 174.416 C 422.659 176.935, 418.781 178.998, 419.124 178.999 C 421.260 179.003, 429.258 175.385, 434.678 171.962 L 441.030 167.950 442.014 170.536 C 445.611 179.997, 447.446 183.358, 447.964 181.435 C 448.541 179.293, 454.567 173.510, 462.339 167.637 C 467.136 164.012, 475.961 155.962, 475 156.086 C 474.725 156.122, 469.100 160.626, 462.500 166.095 M 318.519 160.500 C 320.593 166.912, 324.036 182.133, 323.579 182.872 C 322.962 183.870, 331.817 187.516, 332.704 186.629 C 333.024 186.309, 332.434 185.774, 331.393 185.440 C 330.352 185.106, 328.643 184.507, 327.596 184.108 C 325.710 183.390, 324.194 179.203, 322.030 168.732 C 321.488 166.109, 320.331 162.734, 319.459 161.232 C 318.586 159.729, 318.164 159.400, 318.519 160.500 M 343.458 160.068 C 343.095 160.656, 342.168 160.895, 341.399 160.600 C 340.601 160.294, 340 160.679, 340 161.496 C 340 162.285, 339.088 163.418, 337.973 164.015 C 336.001 165.070, 335.994 165.182, 337.723 168.127 C 338.700 169.792, 340.155 171.682, 340.956 172.327 C 341.757 172.972, 341.370 171.791, 340.095 169.702 L 337.778 165.904 341.639 162.494 C 343.762 160.618, 345.189 159.065, 344.809 159.042 C 344.429 159.019, 343.821 159.481, 343.458 160.068 M 501.581 171.500 C 501.849 175.350, 502.706 184.350, 503.487 191.500 C 504.268 198.650, 505.429 214.220, 506.069 226.100 C 507.004 243.484, 506.981 248.168, 505.952 250.100 C 504.784 252.290, 504.818 252.380, 506.336 251.128 C 508.314 249.496, 508.444 244.519, 507.052 223.687 C 506.530 215.884, 505.851 205.450, 505.542 200.500 C 504.971 191.339, 503.484 178.516, 501.947 169.500 C 501.191 165.064, 501.150 165.290, 501.581 171.500 M 379.980 169.250 C 381.176 171.037, 382.908 173.735, 383.828 175.244 C 384.748 176.753, 385.854 177.990, 386.287 177.994 C 386.720 177.997, 385.241 175.300, 383 172 C 380.759 168.700, 378.673 166, 378.365 166 C 378.056 166, 378.783 167.463, 379.980 169.250 M 147.382 179.250 C 137.119 189.272, 135.745 190.026, 132.734 187.285 C 128.450 183.383, 126.466 183, 110.566 183 L 95 183 95 187.500 C 95 191.584, 95.222 192, 97.402 192 C 99.172 192, 100.080 192.789, 100.850 195 C 101.425 196.650, 102.133 198, 102.423 198 C 102.713 198, 102.508 196.837, 101.968 195.416 C 101.428 193.995, 101.240 192.420, 101.552 191.916 C 101.863 191.412, 100.741 191, 99.059 191 C 96.230 191, 96 190.737, 96 187.500 L 96 184 108.500 184 L 121 184 121 187.500 L 121 191 114.250 191.132 C 108.903 191.236, 108.228 191.403, 111 191.935 L 114.500 192.606 110.750 194.252 C 108.688 195.157, 107 196.122, 107 196.397 C 107 197.328, 112.877 194.853, 114.064 193.422 C 114.714 192.640, 116.990 192, 119.122 192 C 121.902 192, 123 191.575, 123 190.500 C 123 189.675, 123.450 189, 124 189 C 126.052 189, 124.893 192.517, 121.750 195.828 C 119.300 198.408, 119.041 198.972, 120.699 198.118 C 121.908 197.494, 123.580 196.010, 124.414 194.820 C 125.758 192.901, 126.004 192.846, 126.575 194.335 C 127.491 196.721, 124.613 200.628, 120.239 202.938 C 115.793 205.285, 116.340 205.591, 121.286 203.525 C 123.228 202.714, 125.047 201.476, 125.329 200.775 C 125.702 199.848, 125.864 199.897, 125.921 200.952 C 125.964 201.751, 124.537 203.945, 122.750 205.828 C 120.646 208.044, 120.209 208.887, 121.511 208.218 C 124.863 206.497, 126.702 203.713, 127.361 199.359 C 128.012 195.062, 125.914 188, 123.987 188 C 123.444 188, 123 187.100, 123 186 C 123 182.928, 125.312 183.568, 133.231 188.834 C 142.180 194.784, 144.427 195.940, 140.500 192.571 L 137.500 189.997 147.500 180.548 C 153 175.351, 157.124 171.076, 156.665 171.049 C 156.206 171.022, 152.029 174.713, 147.382 179.250 M 342.664 175.500 C 343.032 176.600, 344.721 179.119, 346.417 181.097 C 348.113 183.075, 351.685 187.715, 354.356 191.408 C 357.027 195.100, 359.449 197.884, 359.739 197.594 C 360.029 197.304, 358.969 195.509, 357.383 193.605 C 355.797 191.701, 352.363 187.298, 349.752 183.821 C 347.140 180.345, 344.326 176.600, 343.499 175.500 L 341.995 173.500 342.664 175.500 M 103.762 180.707 C 105.006 180.946, 106.806 180.937, 107.762 180.687 C 108.718 180.437, 107.700 180.241, 105.500 180.252 C 103.300 180.263, 102.518 180.468, 103.762 180.707 M 117.250 180.689 C 118.213 180.941, 119.787 180.941, 120.750 180.689 C 121.713 180.438, 120.925 180.232, 119 180.232 C 117.075 180.232, 116.287 180.438, 117.250 180.689 M 494.426 184.723 C 492.857 186.800, 489.354 190.863, 486.641 193.750 C 483.929 196.637, 482.113 198.967, 482.605 198.926 C 483.844 198.823, 498.392 182.059, 497.777 181.443 C 497.503 181.170, 495.995 182.645, 494.426 184.723 M 413.601 188 C 414.992 195.482, 421.437 211.453, 424.273 214.446 L 427.168 217.500 424.194 212.979 C 422.558 210.493, 419.359 203.068, 417.085 196.479 C 414.811 189.891, 413.244 186.075, 413.601 188 M 336 188.049 C 337.375 188.660, 339.850 189.805, 341.500 190.594 L 344.500 192.029 342.139 190.014 C 340.841 188.906, 339.190 188, 338.471 188 C 337.752 188, 336.339 187.761, 335.332 187.469 C 334.324 187.177, 334.625 187.438, 336 188.049 M 298.391 195.915 C 296.750 198.694, 296.559 198.757, 294.304 197.279 C 293.002 196.427, 291.744 195.922, 291.508 196.158 C 291.093 196.574, 292.385 197.271, 302 201.827 C 306.588 204, 314.494 208.275, 324.280 213.874 C 327.285 215.593, 330.139 216.998, 330.622 216.996 C 331.789 216.991, 326.313 213.674, 316.500 208.442 C 297.055 198.074, 298.023 198.803, 299.632 195.733 C 301.544 192.085, 300.570 192.227, 298.391 195.915 M 144 195.406 C 144 195.658, 145.350 196.825, 147 198 C 148.650 199.175, 150 199.667, 150 199.094 C 150 198.520, 148.650 197.353, 147 196.500 C 145.350 195.647, 144 195.155, 144 195.406 M 104.121 201.250 C 113.512 218.984, 121.690 225.156, 135.372 224.831 L 142.500 224.662 134.500 224.050 C 121.367 223.046, 115.822 219.283, 107.947 206.028 C 104.042 199.454, 101.469 196.241, 104.121 201.250 M 362.774 201.004 C 367.020 203.592, 368.410 203.589, 364.500 201 C 362.850 199.907, 361.050 199.012, 360.500 199.010 C 359.950 199.009, 360.973 199.906, 362.774 201.004 M 111 201 C 108.940 201.660, 108.852 201.816, 110.500 201.885 C 111.600 201.931, 113.175 201.533, 114 201 C 115.752 199.868, 114.536 199.868, 111 201 M 472.500 205.359 C 468.650 208.286, 463.025 212.098, 460 213.831 C 456.975 215.564, 455.175 216.977, 456 216.972 C 457.524 216.962, 461.066 214.789, 471.669 207.355 C 476.784 203.768, 481.043 199.960, 479.872 200.019 C 479.668 200.029, 476.350 202.432, 472.500 205.359 M 55.242 265.750 L 55 326 58.750 325.840 C 62.431 325.683, 62.440 325.673, 59.258 325.277 L 56.016 324.874 55.750 265.187 L 55.484 205.500 55.242 265.750 M 164 211.524 C 154.792 217.453, 153.846 218.813, 162.265 214.019 C 167.174 211.224, 174.108 206.084, 173 206.062 C 172.725 206.056, 168.675 208.514, 164 211.524 M 248 208.459 C 248 208.734, 249.800 209.878, 252 211 C 254.200 212.122, 256 212.816, 256 212.541 C 256 212.266, 254.200 211.122, 252 210 C 249.800 208.878, 248 208.184, 248 208.459 M 361.308 214.878 C 360.663 215.911, 358.077 217.752, 355.562 218.970 C 350.233 221.550, 342.872 221.431, 336.750 218.667 C 334.688 217.735, 333 217.183, 333 217.440 C 333 218.439, 342.405 222, 345.044 222 C 347.597 222, 347.929 222.443, 348.948 227.195 C 349.561 230.052, 350.509 235.538, 351.055 239.385 C 351.982 245.927, 353 249.281, 353 245.798 C 353 243.967, 350.149 227.191, 349.448 224.897 C 349.090 223.724, 350.706 222.435, 355.477 220.086 C 359.062 218.321, 362.462 216.005, 363.033 214.938 C 364.366 212.448, 362.858 212.396, 361.308 214.878 M 430.500 219 C 432.150 220.093, 434.158 220.990, 434.961 220.993 C 435.765 220.997, 434.658 220.100, 432.500 219 C 427.503 216.452, 426.653 216.452, 430.500 219 M 449.558 218.673 C 447.940 219.549, 444.340 220.599, 441.558 221.008 C 436.637 221.730, 436.609 221.754, 440.500 221.862 C 442.878 221.929, 446.528 220.998, 449.500 219.566 C 452.250 218.241, 454.050 217.140, 453.500 217.119 C 452.950 217.098, 451.176 217.797, 449.558 218.673 M 146.500 221.578 C 144.300 222.892, 142.950 223.973, 143.500 223.980 C 144.702 223.995, 151 220.246, 151 219.515 C 151 218.861, 151.207 218.766, 146.500 221.578 M 398.479 222.632 C 398.139 224.209, 397.170 227.440, 396.325 229.811 C 395.480 232.182, 395.033 234.367, 395.333 234.667 C 395.633 234.966, 396.857 231.990, 398.053 228.053 C 399.249 224.115, 399.973 220.640, 399.662 220.329 C 399.352 220.018, 398.819 221.055, 398.479 222.632 M 282.185 226.128 C 281.882 235.357, 278.040 242.550, 271.174 246.745 C 269.153 247.980, 268.207 248.992, 269.070 248.995 C 269.934 248.998, 272.463 247.440, 274.690 245.533 C 280.092 240.910, 283.247 233.214, 282.742 225.895 L 282.370 220.500 282.185 226.128 M 373.909 236.077 C 372.884 236.727, 373.249 236.974, 375.250 236.985 C 378.236 237.001, 378.774 236.511, 376.659 235.700 C 375.922 235.417, 374.684 235.587, 373.909 236.077 M 393.717 240.934 C 391.457 247.296, 391.524 250.675, 393.934 251.965 C 396.881 253.542, 397.729 253.199, 395.223 251.443 C 392.576 249.589, 392.471 247.908, 394.612 241.624 C 395.499 239.021, 396.047 236.714, 395.829 236.496 C 395.612 236.278, 394.661 238.276, 393.717 240.934 M 378.551 240.500 C 378.827 242.150, 379.930 246.200, 381.001 249.500 C 382.073 252.800, 382.724 254.150, 382.449 252.500 C 382.173 250.850, 381.070 246.800, 379.999 243.500 C 378.927 240.200, 378.276 238.850, 378.551 240.500 M 353.720 253.500 C 354.027 256.800, 354.440 259.688, 354.639 259.917 C 355.338 260.723, 354.791 252.469, 353.981 250 C 353.472 248.447, 353.373 249.773, 353.720 253.500 M 258.896 249.914 C 259.686 250.415, 260.017 251.515, 259.657 252.451 C 259.285 253.421, 259.432 253.851, 260.011 253.493 C 260.555 253.157, 261 252.263, 261 251.507 C 261 250.751, 262.238 249.945, 263.750 249.716 C 265.537 249.446, 264.924 249.253, 262 249.165 C 259.051 249.077, 257.981 249.335, 258.896 249.914 M 66.314 255.950 C 63.201 257.848, 60.351 261.684, 61.328 262.661 C 61.597 262.930, 62.111 262.226, 62.470 261.096 C 62.828 259.965, 65.007 257.911, 67.311 256.530 C 69.615 255.149, 71.050 254.016, 70.500 254.013 C 69.950 254.010, 68.066 254.882, 66.314 255.950 M 383.649 259.275 C 384.345 263.780, 387.869 275.108, 387.946 273.088 C 387.996 271.789, 385.908 264.002, 383.901 258 C 383.288 256.167, 383.221 256.507, 383.649 259.275 M 75.750 261.080 C 74.787 261.641, 74 262.752, 74 263.550 C 74 264.634, 74.505 264.495, 76 263 C 78.393 260.607, 78.925 260.559, 81.670 262.482 C 83.482 263.750, 83.953 263.762, 84.950 262.560 C 85.894 261.423, 85.746 261.254, 84.170 261.666 C 83.101 261.945, 81.923 261.685, 81.554 261.087 C 80.719 259.736, 78.062 259.733, 75.750 261.080 M 88 260.709 C 90.638 261.679, 93 264.253, 93 266.158 C 93 267.174, 91.200 269.631, 89 271.619 C 86.800 273.607, 85 275.595, 85 276.038 C 85 276.481, 87.025 274.957, 89.500 272.652 C 92.584 269.780, 94 267.651, 94 265.886 C 94 262.892, 91.188 259.965, 88.421 260.079 C 87.003 260.137, 86.893 260.302, 88 260.709 M 110.250 260.662 C 109.563 260.940, 109 261.634, 109 262.206 C 109 262.837, 109.584 262.760, 110.487 262.011 C 111.305 261.332, 112.655 261.037, 113.487 261.357 C 115.471 262.118, 115.424 265.403, 113.406 267.078 C 112.045 268.208, 111.536 268.043, 109.928 265.951 C 107.887 263.295, 107.366 263.947, 109.035 267.066 C 109.839 268.569, 109.744 269, 108.607 269 C 105.066 269, 102.120 276.720, 104.985 278.491 C 105.596 278.868, 105.738 277.942, 105.360 276.052 C 104.479 271.646, 106.312 270, 112.099 270 C 116.170 270, 117.218 270.402, 118.587 272.492 C 120.676 275.681, 119.864 277.744, 116.309 278.278 C 113.574 278.689, 113.584 278.704, 116.691 278.850 C 120.534 279.031, 121.365 277.940, 120.475 273.886 C 120.006 271.749, 118.885 270.434, 116.774 269.547 C 114.943 268.777, 114.192 267.999, 114.874 267.578 C 116.361 266.659, 116.315 262.715, 114.800 261.200 C 113.550 259.950, 112.363 259.809, 110.250 260.662 M 134.750 261.572 C 133.238 262.393, 132.007 263.612, 132.015 264.282 C 132.026 265.163, 132.261 265.136, 132.865 264.184 C 133.324 263.460, 135.455 262.242, 137.600 261.478 C 139.745 260.713, 140.600 260.086, 139.500 260.084 C 138.400 260.082, 136.262 260.751, 134.750 261.572 M 143.331 262.451 C 144.338 263.214, 145.786 264.662, 146.549 265.669 C 147.367 266.749, 147.949 266.987, 147.968 266.250 C 148.009 264.631, 144.369 260.991, 142.750 261.032 C 142.013 261.051, 142.251 261.633, 143.331 262.451 M 355.679 265.500 C 355.996 268.250, 356.424 270.688, 356.628 270.917 C 357.331 271.704, 356.800 265.498, 355.951 263 C 355.378 261.314, 355.289 262.128, 355.679 265.500 M 78.097 273 C 80.416 275.750, 82.749 278, 83.282 278 C 83.816 278, 82.069 275.750, 79.401 273 C 76.734 270.250, 74.400 268, 74.216 268 C 74.032 268, 75.778 270.250, 78.097 273 M 357.147 275 C 357.134 276.375, 357.726 280.425, 358.464 284 C 359.473 288.897, 359.818 289.637, 359.860 287 C 359.890 285.075, 359.298 281.025, 358.543 278 C 357.788 274.975, 357.160 273.625, 357.147 275 M 61.040 275.882 C 60.985 277.784, 67.757 284.010, 69.821 283.956 C 70.750 283.931, 69.836 283.033, 67.777 281.946 C 65.729 280.864, 63.384 278.747, 62.567 277.240 C 61.749 275.733, 61.062 275.122, 61.040 275.882 M 388.141 276 C 388.141 276.825, 388.527 278.400, 389 279.500 C 389.542 280.761, 389.859 280.945, 389.859 280 C 389.859 279.175, 389.473 277.600, 389 276.500 C 388.458 275.239, 388.141 275.055, 388.141 276 M 141.500 277 C 140.239 277.542, 140.055 277.859, 141 277.859 C 141.825 277.859, 143.400 277.473, 144.500 277 C 145.761 276.458, 145.945 276.141, 145 276.141 C 144.175 276.141, 142.600 276.527, 141.500 277 M 361.742 307 C 362.061 310.575, 362.679 314.625, 363.115 316 C 363.562 317.411, 363.642 315.670, 363.298 312 C 362.963 308.425, 362.345 304.375, 361.925 303 C 361.505 301.625, 361.423 303.425, 361.742 307 M 364.136 320.750 C 364 322.996, 363.966 323, 345.833 323 C 335.842 323, 327.929 323.262, 328.249 323.582 C 328.876 324.209, 364.154 324.179, 364.783 323.551 C 364.991 323.342, 364.962 322.121, 364.717 320.836 C 364.274 318.509, 364.272 318.508, 364.136 320.750 M 84.750 325.749 C 96.988 325.908, 117.013 325.908, 129.250 325.749 C 141.488 325.590, 131.475 325.460, 107 325.460 C 82.525 325.460, 72.513 325.590, 84.750 325.749" stroke="none" fill="#0f0f11" fill-rule="evenodd"/><path d="M 183.500 56.401 C 176.256 58.688, 172.586 61.150, 165.448 68.514 C 155.559 78.714, 147.144 84, 140.797 84 L 135.904 84 139.452 80.347 C 142.431 77.279, 143 75.983, 143 72.270 C 143 68.714, 142.427 67.273, 140.077 64.923 C 138.405 63.251, 136.084 62, 134.654 62 C 129.307 62, 122.870 70.866, 124.497 75.990 C 124.850 77.101, 126.332 79.430, 127.791 81.163 L 130.444 84.316 121.972 83.481 C 117.312 83.022, 109.450 82.616, 104.500 82.580 C 96.956 82.524, 94.725 82.897, 90.708 84.886 C 84.423 87.999, 77.968 94.369, 75.105 100.283 C 72.420 105.829, 71.159 113, 72.868 113 C 73.491 113, 74 111.637, 74 109.971 C 74 105.626, 79.226 95.886, 83.636 92.014 C 85.711 90.193, 89.860 87.580, 92.856 86.208 C 98.037 83.837, 98.821 83.755, 108.902 84.536 C 114.731 84.987, 125.800 85.378, 133.500 85.404 L 147.500 85.450 154.185 80.813 C 157.862 78.262, 163.582 73.292, 166.896 69.769 C 177.573 58.418, 189.965 54.773, 198.405 60.500 C 202.482 63.267, 203 63.441, 203 62.042 C 203 60.570, 194.926 56.290, 191 55.681 C 189.075 55.382, 185.700 55.706, 183.500 56.401 M 382 56 C 385.419 57.095, 388.048 57.095, 385.500 56 C 384.400 55.527, 382.600 55.154, 381.500 55.170 C 379.892 55.194, 379.990 55.356, 382 56 M 152.750 59.080 C 151.615 59.741, 151 61.320, 151 63.574 C 151 66.408, 151.486 67.234, 153.632 68.050 C 157.163 69.393, 159.443 68.518, 160.932 65.251 C 162.050 62.795, 161.918 62.326, 159.528 60.270 C 156.625 57.773, 155.372 57.553, 152.750 59.080 M 416.200 59.200 C 413.328 62.072, 415.652 66, 420.221 66 C 423.738 66, 426.083 62.010, 424.025 59.530 C 422.512 57.707, 417.888 57.512, 416.200 59.200 M 130.299 66.250 C 125.380 71.651, 124.977 74.631, 128.589 78.923 C 131.827 82.772, 134.341 82.813, 138.077 79.077 C 140.342 76.811, 141 75.246, 141 72.116 C 141 65.027, 134.606 61.522, 130.299 66.250 M 282.018 66.784 C 278.630 69.528, 278.801 75.572, 282.354 78.628 C 286.097 81.847, 289.513 81.641, 293.179 77.975 C 295.625 75.529, 296.075 74.428, 295.528 72.225 C 293.903 65.677, 286.879 62.848, 282.018 66.784 M 490.455 68.455 C 485.320 73.590, 488.664 81, 496.116 81 C 503.079 81, 506.178 73.169, 501.333 67.816 C 498.908 65.136, 493.453 65.456, 490.455 68.455 M 225.406 80.226 C 221.398 84.200, 218.297 87.631, 218.516 87.849 C 218.735 88.068, 217.811 89.692, 216.464 91.459 L 214.014 94.671 218.257 97.679 C 220.591 99.334, 224.030 101.208, 225.899 101.844 C 229.983 103.233, 230.275 103.254, 229.570 102.114 C 229.269 101.626, 229.896 100.999, 230.963 100.720 C 232.031 100.441, 233.115 100.727, 233.373 101.356 C 233.631 101.985, 233.878 101.037, 233.921 99.250 C 233.964 97.463, 234.338 96, 234.750 95.999 C 235.333 95.998, 235.518 83.158, 235.064 74.250 C 234.933 71.687, 232.498 73.194, 225.406 80.226 M 166.363 75.497 C 166.017 76.398, 166.196 77.596, 166.761 78.161 C 168.391 79.791, 171.500 78.692, 171.500 76.486 C 171.500 73.943, 167.272 73.128, 166.363 75.497 M 373.830 76.750 C 374.325 77.713, 374.531 79.175, 374.289 80 C 373.910 81.290, 373.989 81.297, 374.854 80.054 C 375.791 78.708, 374.745 75, 373.430 75 C 373.155 75, 373.335 75.787, 373.830 76.750 M 309.580 77.563 C 308.115 79.027, 308.084 79.495, 309.327 81.366 C 311.041 83.948, 314.868 84.156, 316.386 81.750 C 318.829 77.877, 312.908 74.235, 309.580 77.563 M 339 81.941 C 339 84.173, 339.450 86, 340 86 C 340.550 86, 341 84.452, 341 82.559 C 341 80.666, 340.550 78.840, 340 78.500 C 339.396 78.127, 339 79.490, 339 81.941 M 344.702 85.730 C 343.216 89.041, 342 92.256, 342 92.875 C 342 95.269, 340.347 93.746, 336.548 87.849 C 331.918 80.663, 330.918 81.304, 334.416 89.215 C 337.042 95.152, 336.926 96, 333.483 96 C 330.812 96, 325.001 97.951, 324.998 98.848 C 324.997 99.207, 327.985 99.346, 331.638 99.158 C 338.193 98.821, 338.272 98.848, 337.607 101.158 C 337.236 102.446, 336.741 105.300, 336.507 107.500 C 336.118 111.161, 336.189 111.307, 337.343 109.219 C 338.037 107.964, 338.990 107.289, 339.462 107.719 C 339.934 108.148, 340.043 108.011, 339.703 107.414 C 339.363 106.817, 339.436 105.017, 339.865 103.414 L 340.645 100.500 344.464 106.250 C 346.565 109.412, 348.696 112, 349.201 112 C 349.705 112, 349.921 111.662, 349.680 111.250 C 349.021 110.121, 344 98.984, 344 98.651 C 344 98.492, 346.279 97.741, 349.063 96.983 C 355.973 95.101, 356.188 94.022, 349.515 94.711 C 346.482 95.024, 344 95.066, 344 94.805 C 344 94.544, 344.924 91.516, 346.053 88.075 C 348.819 79.650, 348.038 78.295, 344.702 85.730 M 421.389 84.430 C 420.393 87.025, 421.788 89.169, 424.246 88.820 C 425.898 88.585, 426.500 87.833, 426.500 86 C 426.500 84.167, 425.898 83.415, 424.246 83.180 C 422.893 82.988, 421.750 83.488, 421.389 84.430 M 356.752 86.841 C 355.240 87.754, 354.003 88.838, 354.002 89.250 C 353.998 90.741, 356.562 89.939, 359.500 87.531 C 362.915 84.732, 361.030 84.259, 356.752 86.841 M 371.516 90.363 C 371.609 93.473, 371.894 96.227, 372.149 96.482 C 373.017 97.351, 373.064 89.348, 372.204 87.023 C 371.578 85.331, 371.393 86.231, 371.516 90.363 M 447.946 88.750 L 444.500 92.500 448.250 89.054 C 450.313 87.158, 452 85.471, 452 85.304 C 452 84.540, 451.154 85.260, 447.946 88.750 M 409 90 C 409 93.017, 409.397 94, 410.617 94 C 411.805 94, 412.074 93.404, 411.630 91.750 C 411.299 90.513, 411.021 88.713, 411.014 87.750 C 411.006 86.787, 410.550 86, 410 86 C 409.450 86, 409 87.800, 409 90 M 63 89 C 58.787 93.213, 61.957 99.391, 68.239 99.212 C 71.774 99.112, 75 96.095, 75 92.889 C 75 90.040, 71.387 87, 68 87 C 66.333 87, 64.111 87.889, 63 89 M 325 88.980 C 325 90.230, 332.785 94.238, 334.259 93.747 C 334.869 93.544, 333.204 92.167, 330.558 90.689 C 325.149 87.665, 325 87.619, 325 88.980 M 392.990 94.740 C 391.796 96.258, 390.635 97.388, 390.409 97.250 C 390.011 97.007, 389.964 97.193, 390.033 98.750 C 390.052 99.162, 390.974 98.410, 392.082 97.079 L 394.098 94.658 394.665 96.829 C 394.978 98.023, 395.639 99, 396.136 99 C 396.632 99, 396.766 100.083, 396.434 101.407 C 396.102 102.731, 396.306 104.703, 396.888 105.790 C 398.006 107.880, 396.182 109.507, 386.785 114.799 L 383.070 116.891 382.463 113.196 C 382.129 111.163, 381.391 108.541, 380.823 107.369 C 380.255 106.197, 380.091 104.172, 380.460 102.869 C 380.978 101.041, 380.891 100.843, 380.081 102 C 379.503 102.825, 379.024 104.215, 379.015 105.090 C 379.004 106.281, 377.180 106.989, 371.750 107.910 C 358.940 110.085, 352.387 112.905, 347.166 118.491 C 344.600 121.236, 342.163 123.374, 341.750 123.241 C 341.337 123.109, 341 123.604, 341 124.342 C 341 125.080, 342.688 126.211, 344.750 126.855 C 349.795 128.431, 350.954 129.470, 355.749 136.718 C 359.371 142.192, 360.680 145.328, 360.039 147 C 359.933 147.275, 359.689 148.335, 359.496 149.356 C 359.182 151.018, 359.391 150.981, 361.499 149.001 C 362.793 147.785, 364.307 147.071, 364.862 147.415 C 365.418 147.758, 367.966 151.188, 370.524 155.036 C 373.082 158.884, 375.789 162.646, 376.540 163.397 C 377.291 164.148, 377.626 165.040, 377.286 165.381 C 376.945 165.721, 377.218 166, 377.892 166 C 378.566 166, 378.797 166.520, 378.405 167.155 C 377.985 167.833, 378.128 168.039, 378.752 167.654 C 379.335 167.293, 379.618 166.211, 379.380 165.249 C 379.060 163.953, 381.220 162.011, 387.724 157.749 C 392.551 154.586, 397.954 150.924, 399.732 149.611 C 402.643 147.460, 402.767 147.172, 400.982 146.706 C 398.558 146.072, 398.459 144.684, 400.681 142.462 C 402.255 140.888, 402.255 140.722, 400.681 139.841 C 396.979 137.770, 400.525 133.140, 404.276 135.148 C 405.281 135.685, 407.092 135.934, 408.302 135.699 C 410.124 135.345, 410.029 135.249, 407.750 135.136 C 405.929 135.046, 405 134.449, 405 133.368 C 405 131.280, 408.945 124.848, 409.873 125.422 C 410.260 125.660, 411.126 124.611, 411.800 123.091 C 412.473 121.570, 414.256 119.690, 415.762 118.914 C 417.268 118.138, 418.730 117.200, 419.011 116.829 C 419.292 116.459, 421.446 115.063, 423.798 113.727 L 428.075 111.297 422.287 109.566 C 413.059 106.806, 413.178 106.897, 416.750 105.377 C 420.821 103.645, 420.942 102, 417 102 C 413.520 102, 413.535 102.048, 415.500 97.346 C 417.290 93.062, 417.296 93, 415.920 93 C 415.325 93, 414.108 94.861, 413.215 97.136 L 411.590 101.271 408.816 97.948 C 407.290 96.121, 405.847 94.822, 405.609 95.063 C 405.077 95.601, 407.212 104.030, 408.316 105.750 C 408.923 106.696, 407.781 107, 403.626 107 C 399.013 107, 398.033 106.680, 397.500 105 C 396.326 101.301, 398.778 97.214, 400.500 100 C 400.840 100.550, 402.047 101, 403.181 101 C 404.831 101, 405.013 100.721, 404.089 99.608 C 403.454 98.842, 401.599 97.662, 399.967 96.986 C 398.335 96.310, 397 95.164, 397 94.438 C 397 91.874, 395.134 92.015, 392.990 94.740 M 428.162 94.034 C 423.532 96.543, 422.967 97.407, 426.500 96.575 C 429.444 95.882, 432.808 93.446, 431.940 92.636 C 431.698 92.410, 429.998 93.039, 428.162 94.034 M 383.500 100 C 386.252 101.183, 387.231 101.183, 386.500 100 C 386.160 99.450, 384.896 99.032, 383.691 99.070 C 381.579 99.138, 381.572 99.171, 383.500 100 M 463.193 100.620 C 464.269 100.941, 465.042 102.469, 465.313 104.812 L 465.738 108.500 465.619 104.508 C 465.523 101.296, 465.109 100.477, 463.500 100.316 C 462.049 100.170, 461.965 100.253, 463.193 100.620 M 199.252 104.500 C 199.263 106.700, 199.468 107.482, 199.707 106.238 C 199.946 104.994, 199.937 103.194, 199.687 102.238 C 199.437 101.282, 199.241 102.300, 199.252 104.500 M 349.441 102.532 C 350.509 103.339, 352.084 103.986, 352.941 103.968 C 354.187 103.943, 354.111 103.642, 352.559 102.468 C 351.491 101.661, 349.916 101.014, 349.059 101.032 C 347.813 101.057, 347.889 101.358, 349.441 102.532 M 446.328 109.500 C 446.333 113.350, 446.513 114.802, 446.730 112.728 C 446.946 110.653, 446.943 107.503, 446.722 105.728 C 446.501 103.952, 446.324 105.650, 446.328 109.500 M 290.336 113 C 290.336 117.125, 290.513 118.813, 290.728 116.750 C 290.944 114.688, 290.944 111.313, 290.728 109.250 C 290.513 107.188, 290.336 108.875, 290.336 113 M 201.070 114.691 C 201.032 115.896, 201.450 117.160, 202 117.500 C 203.183 118.231, 203.183 117.252, 202 114.500 C 201.171 112.572, 201.138 112.579, 201.070 114.691 M 314.590 114.901 C 313.297 116.329, 313.173 116.989, 314.089 117.555 C 314.821 118.007, 315.051 117.892, 314.666 117.268 C 313.966 116.135, 316.330 113.664, 317.242 114.575 C 317.549 114.882, 318.096 114.653, 318.459 114.067 C 319.601 112.219, 316.391 112.911, 314.590 114.901 M 342.272 117 C 342.272 119.475, 342.467 120.487, 342.706 119.250 C 342.944 118.013, 342.944 115.987, 342.706 114.750 C 342.467 113.513, 342.272 114.525, 342.272 117 M 107.250 116.742 C 110.963 116.934, 117.037 116.934, 120.750 116.742 C 124.463 116.549, 121.425 116.392, 114 116.392 C 106.575 116.392, 103.537 116.549, 107.250 116.742 M 66.080 120.404 C 63.957 122.961, 65.170 125.500, 68.514 125.500 C 71.165 125.500, 71.500 125.164, 71.500 122.500 C 71.500 120.220, 70.999 119.428, 69.412 119.202 C 68.264 119.038, 66.765 119.579, 66.080 120.404 M 81.655 121.829 C 80.383 123.234, 80 125.663, 80 132.329 L 80 141 74 141 L 68 141 67.998 148.250 L 67.995 155.500 76.748 155.359 C 81.561 155.282, 84.263 155.425, 82.750 155.676 C 79.420 156.229, 79.261 157.369, 82.223 159.443 C 83.799 160.548, 86.849 161, 92.723 161 C 100.847 161, 101 160.955, 101 158.542 C 101 156.172, 100.722 156.072, 93.250 155.743 L 85.500 155.402 93.211 155.201 L 100.922 155 101.286 146.250 C 101.510 140.867, 101.621 142.406, 101.575 150.252 L 101.500 163.004 114.156 163.002 C 126.738 163, 126.810 162.987, 126.395 160.750 C 126.166 159.512, 126.245 159.063, 126.572 159.750 C 127.488 161.677, 142.941 161.430, 145.777 159.443 C 147.928 157.937, 148 157.330, 148 140.598 C 148 119.412, 148.350 120, 135.732 120 L 127.121 120 126.728 123.750 L 126.336 127.500 126.168 123.750 L 126 120 114.060 120 L 102.121 120 101.728 123.750 L 101.336 127.500 101.168 123.750 L 101 120 92.155 120 C 84.856 120, 83.021 120.320, 81.655 121.829 M 309.500 121 C 309.160 121.550, 309.021 122.034, 309.191 122.077 C 312.484 122.892, 313.044 122.758, 311.933 121.420 C 310.532 119.732, 310.308 119.693, 309.500 121 M 199.300 127 C 199.300 130.025, 199.487 131.262, 199.716 129.750 C 199.945 128.238, 199.945 125.763, 199.716 124.250 C 199.487 122.737, 199.300 123.975, 199.300 127 M 461.118 123.927 C 460.114 124.548, 460.172 124.852, 461.384 125.317 C 462.238 125.645, 463.183 125.513, 463.484 125.025 C 464.273 123.750, 462.635 122.989, 461.118 123.927 M 129.185 130.250 L 129.370 136.500 129.745 131.022 C 129.952 128.009, 130.656 125.203, 131.310 124.787 C 132.109 124.279, 131.925 124.026, 130.750 124.015 C 129.249 124.002, 129.026 124.889, 129.185 130.250 M 136.088 128.394 C 134.311 130.535, 137.462 133.358, 140.069 131.963 C 142.303 130.767, 142.476 129.876, 140.800 128.200 C 139.212 126.612, 137.508 126.683, 136.088 128.394 M 223.205 128.253 C 222.471 129.137, 222.582 130.076, 223.583 131.444 C 224.362 132.510, 225 132.936, 225 132.391 C 225 131.846, 224.474 130.874, 223.830 130.230 C 222.938 129.338, 223.234 128.832, 225.080 128.094 C 226.605 127.485, 226.898 127.103, 225.872 127.063 C 224.977 127.029, 223.777 127.564, 223.205 128.253 M 328.332 131.578 C 327.995 132.456, 328.502 133.897, 329.475 134.828 C 331.128 136.409, 331.149 136.376, 329.862 134.219 C 328.695 132.265, 328.715 131.802, 330 130.985 C 331.046 130.319, 331.112 130.026, 330.219 130.015 C 329.514 130.007, 328.665 130.710, 328.332 131.578 M 454.079 130.921 C 454.036 131.703, 453.229 133.278, 452.287 134.421 C 450.672 136.381, 450.707 136.377, 452.905 134.354 C 454.187 133.174, 454.994 131.599, 454.697 130.854 C 454.260 129.757, 454.143 129.770, 454.079 130.921 M 470.426 131.694 C 470.571 132.687, 470.985 133.387, 471.345 133.250 C 471.705 133.113, 473.012 132.948, 474.250 132.884 C 476.289 132.779, 476.312 132.722, 474.500 132.276 C 473.400 132.006, 471.974 131.358, 471.330 130.837 C 470.509 130.171, 470.240 130.426, 470.426 131.694 M 481 133.081 C 479.826 133.903, 479.989 133.994, 481.750 133.498 C 483.126 133.111, 484 133.303, 484 133.992 C 484 134.611, 484.498 134.810, 485.107 134.434 C 485.878 133.957, 485.803 133.490, 484.857 132.890 C 483.126 131.794, 482.817 131.809, 481 133.081 M 442.250 133.689 C 443.212 133.941, 444.788 133.941, 445.750 133.689 C 446.712 133.438, 445.925 133.232, 444 133.232 C 442.075 133.232, 441.288 133.438, 442.250 133.689 M 126.328 141.500 C 126.333 145.350, 126.513 146.802, 126.730 144.728 C 126.946 142.653, 126.943 139.503, 126.722 137.728 C 126.501 135.952, 126.324 137.650, 126.328 141.500 M 132.762 135.707 C 134.006 135.946, 135.806 135.937, 136.762 135.687 C 137.718 135.437, 136.700 135.241, 134.500 135.252 C 132.300 135.263, 131.518 135.468, 132.762 135.707 M 490.393 137.471 C 490.671 139.367, 491.666 140.334, 493.635 140.623 C 494.814 140.796, 494.636 140.241, 492.931 138.427 C 490.261 135.585, 490.108 135.527, 490.393 137.471 M 208.762 137.707 C 210.006 137.946, 211.806 137.937, 212.762 137.687 C 213.718 137.437, 212.700 137.241, 210.500 137.252 C 208.300 137.263, 207.518 137.468, 208.762 137.707 M 268.863 138.703 C 268.113 139.628, 268.024 140.070, 268.665 139.686 C 269.305 139.302, 270.010 139.530, 270.231 140.193 C 270.487 140.962, 270.865 140.795, 271.273 139.731 C 272.170 137.392, 270.503 136.681, 268.863 138.703 M 295.991 140.021 C 294.222 144.292, 293.309 144.498, 291.517 141.033 C 289.634 137.391, 287.626 136.886, 288.958 140.389 C 289.754 142.484, 289.618 142.713, 287.848 142.250 C 286.739 141.960, 285.613 141.154, 285.346 140.460 C 285.080 139.765, 284.105 139.308, 283.181 139.444 C 282.256 139.580, 281.613 139.985, 281.750 140.345 C 281.887 140.705, 282 141.477, 282 142.059 C 282 142.641, 282.383 142.881, 282.852 142.591 C 283.321 142.302, 285.377 142.918, 287.423 143.961 L 291.141 145.856 286.561 146.543 C 283.325 147.028, 281.471 146.830, 280.241 145.865 C 278.633 144.604, 278.614 144.647, 280 146.423 C 281.395 148.212, 281.342 148.306, 279.250 147.767 C 278.012 147.448, 277 147.569, 277 148.035 C 277 148.502, 280.213 148.614, 284.141 148.285 L 291.281 147.686 290.572 151.593 C 290.182 153.742, 289.604 156.580, 289.286 157.899 C 288.888 159.554, 289.064 160.079, 289.854 159.590 C 290.484 159.201, 291.078 158.121, 291.173 157.191 C 291.268 156.261, 291.644 158.425, 292.010 162 C 292.657 168.332, 292.675 168.260, 292.731 159.189 C 292.762 154.069, 292.988 149.678, 293.233 149.433 C 293.478 149.188, 295.214 151.240, 297.089 153.992 C 298.965 156.744, 300.832 158.997, 301.237 158.998 C 301.643 158.999, 300.908 156.588, 299.604 153.639 L 297.233 148.279 301.867 146.735 L 306.500 145.191 301.677 145.096 C 297.647 145.016, 296.909 144.712, 297.193 143.250 C 297.380 142.287, 298.281 141.494, 299.196 141.487 C 300.110 141.480, 301.228 141.071, 301.679 140.577 C 302.148 140.064, 301.964 139.988, 301.250 140.399 C 300.563 140.794, 300 140.615, 300 140 C 300 139.385, 299.555 139.157, 299.011 139.493 C 298.445 139.843, 298.277 139.442, 298.618 138.552 C 299.749 135.605, 297.239 137.009, 295.991 140.021 M 306.750 138.392 C 304.932 139.772, 304.451 141.016, 305.750 140.978 C 306.163 140.966, 307.625 140.076, 309 139 C 310.646 137.713, 310.987 137.048, 310 137.054 C 309.175 137.059, 307.712 137.661, 306.750 138.392 M 327.377 139.734 C 327.309 141.255, 327.476 141.887, 327.748 141.137 C 328.165 139.986, 328.377 139.986, 329.106 141.137 C 329.581 141.887, 329.976 142.024, 329.985 141.441 C 329.993 140.859, 329.438 139.614, 328.750 138.675 C 327.636 137.153, 327.487 137.268, 327.377 139.734 M 272.480 140.250 C 272.173 141.488, 272.052 143.571, 272.211 144.880 C 272.560 147.758, 269.508 148.693, 268.031 146.161 C 267.497 145.248, 267.061 144.950, 267.062 145.500 C 267.065 147.658, 269.658 149.505, 272.834 149.611 C 274.667 149.672, 275.792 149.447, 275.334 149.111 C 274.104 148.210, 273.570 145.963, 273.584 141.750 C 273.599 137.461, 273.280 137.027, 272.480 140.250 M 464.923 139.250 C 464.881 139.387, 464.693 140.313, 464.504 141.306 C 464.228 142.757, 464.437 142.882, 465.569 141.943 C 466.344 141.299, 466.731 140.374, 466.430 139.887 C 465.912 139.049, 465.091 138.702, 464.923 139.250 M 69.839 148.250 L 70.178 154 75.089 154 L 80 154 80 148.593 L 80 143.185 74.750 142.843 L 69.500 142.500 69.839 148.250 M 306.500 142.948 C 305.120 143.505, 306.205 143.763, 310 143.778 C 313.840 143.794, 314.896 143.550, 313.500 142.971 C 310.984 141.926, 309.046 141.920, 306.500 142.948 M 347.708 143.921 C 350.077 146.151, 351 146.499, 351 145.161 C 351 144.699, 349.762 143.763, 348.250 143.082 L 345.500 141.843 347.708 143.921 M 342 145.500 C 342 146.325, 342.450 147, 343 147 C 343.550 147, 344 146.325, 344 145.500 C 344 144.675, 343.550 144, 343 144 C 342.450 144, 342 144.675, 342 145.500 M 459.139 146.033 C 457.719 147.217, 457.324 148, 458.149 148 C 458.902 148, 460.081 147.100, 460.768 146 C 462.302 143.543, 462.124 143.546, 459.139 146.033 M 262 148.500 C 263.866 150.425, 265.617 152, 265.892 152 C 266.167 152, 264.866 150.425, 263 148.500 C 261.134 146.575, 259.383 145, 259.108 145 C 258.833 145, 260.134 146.575, 262 148.500 M 327.919 145.191 C 327.459 146.940, 327.590 150.753, 328.100 150.438 C 329.251 149.727, 329.849 146.024, 328.906 145.442 C 328.408 145.134, 327.963 145.021, 327.919 145.191 M 333.118 145.927 C 332.114 146.548, 332.172 146.852, 333.384 147.317 C 334.238 147.645, 335.183 147.513, 335.484 147.025 C 336.273 145.750, 334.635 144.989, 333.118 145.927 M 445.404 147.781 C 445.508 150.244, 447.227 150.993, 447.801 148.825 C 448.057 147.861, 447.882 147.888, 447.159 148.924 C 446.367 150.061, 446.080 149.860, 445.737 147.924 C 445.347 145.724, 445.316 145.711, 445.404 147.781 M 178 147.936 C 175.525 148.304, 172.150 149.332, 170.500 150.220 C 166.004 152.640, 160.349 158.932, 158.114 164 C 155.829 169.179, 154.704 174.301, 156.030 173.481 C 156.998 172.883, 162.737 183.638, 166.055 192.268 C 167.162 195.146, 169.241 199.704, 170.676 202.397 C 172.206 205.269, 172.709 206.966, 171.892 206.500 C 170.863 205.914, 170.781 206.013, 171.579 206.882 C 172.351 207.724, 172.307 210.675, 171.425 217.279 C 170.747 222.350, 169.677 231, 169.047 236.500 C 168.417 242, 167.679 247.963, 167.406 249.750 L 166.909 253 118.955 253 C 87.652 253, 71 253.347, 71 254 C 71 254.653, 87.676 255, 119.028 255 L 167.056 255 166.431 261.250 C 166.088 264.688, 165.513 270.875, 165.153 275 L 164.500 282.500 118.040 282.760 C 89.076 282.922, 71.207 283.393, 70.590 284.010 C 69.937 284.663, 85.682 285, 116.879 285 L 164.159 285 163.620 287.750 C 163.323 289.262, 162.815 293.200, 162.490 296.500 C 162.166 299.800, 161.251 307.675, 160.457 314 C 157.053 341.119, 156 350.356, 156 353.092 L 156 356 229.500 356 C 283.002 356, 303 355.696, 303 354.882 C 303 354.267, 301.145 349.655, 298.878 344.632 C 296.611 339.609, 292.836 330.775, 290.489 325 C 286.414 314.974, 279.958 299.962, 267.479 271.500 C 264.344 264.350, 261.554 257.267, 261.278 255.760 C 261.002 254.253, 260.418 253.241, 259.981 253.512 C 259.544 253.782, 259.409 253.151, 259.681 252.111 C 260.086 250.563, 259.205 249.904, 254.838 248.487 C 247.255 246.025, 240.065 242.964, 236 240.466 C 234.075 239.283, 229.810 236.823, 226.521 235 C 223.233 233.177, 220.035 231.194, 219.416 230.593 C 218.796 229.992, 213.051 225.675, 206.650 221 C 199.634 215.876, 195.009 211.817, 195.006 210.781 C 195.002 209.620, 195.567 209.225, 196.750 209.562 C 197.713 209.837, 197.488 209.529, 196.250 208.878 C 192.843 207.086, 193.299 204.114, 196.966 204.218 C 198.597 204.264, 199.695 204.684, 199.407 205.151 C 199.118 205.618, 199.680 206, 200.655 206 C 202.265 206, 202.284 205.856, 200.862 204.433 C 200 203.571, 198.666 202.767, 197.897 202.645 C 197.129 202.524, 193.912 200.760, 190.750 198.725 C 180.334 192.023, 185.083 189.687, 197.535 195.388 C 200.541 196.764, 203.004 197.577, 203.008 197.195 C 203.013 196.813, 200.538 194.204, 197.508 191.398 C 191.812 186.122, 190.732 183.997, 193.750 184.004 C 194.713 184.005, 202.679 187.605, 211.453 192.004 C 220.228 196.402, 227.749 200, 228.168 200 C 228.587 200, 233.439 202.217, 238.950 204.927 C 244.481 207.647, 249.235 209.428, 249.560 208.903 C 249.884 208.379, 249.646 208.074, 249.031 208.225 C 247.893 208.505, 244 198.961, 244 195.892 C 244 194.009, 248.650 189.615, 254.414 186.053 C 257.678 184.036, 264.468 181.993, 268.750 181.740 C 270.467 181.639, 270.352 175.248, 268.540 170.115 C 263.691 156.371, 251.220 148.092, 237.478 149.495 L 231.456 150.110 228.610 155.547 C 225.668 161.166, 222.364 163.842, 215.761 165.953 C 212.705 166.929, 211.045 166.864, 206.687 165.597 C 199.701 163.566, 197.773 161.307, 197.207 154.485 C 196.775 149.277, 196.872 148.994, 199.126 148.875 C 200.432 148.806, 199.475 148.389, 197 147.949 C 191.704 147.007, 184.288 147.001, 178 147.936 M 65 164.059 C 65 174.510, 65.349 179.902, 66 179.500 C 66.597 179.131, 67 172.656, 67 163.441 C 67 153.814, 66.623 148, 66 148 C 65.375 148, 65 154.020, 65 164.059 M 300 149.839 C 300 150.566, 304.271 153, 305.547 153 C 306.986 153, 305.621 151.148, 303.453 150.161 C 300.416 148.777, 300 148.738, 300 149.839 M 398.762 151.803 C 398.446 153.010, 398.564 154.231, 399.025 154.515 C 400.297 155.302, 400.835 153.736, 400.043 151.554 C 399.370 149.702, 399.308 149.714, 398.762 151.803 M 283.139 154.033 C 281.767 155.176, 281.348 155.987, 282.139 155.968 C 283.650 155.933, 287 153.639, 287 152.640 C 287 151.500, 285.553 152.022, 283.139 154.033 M 332.527 152.956 C 332.202 153.482, 333.072 154.656, 334.460 155.565 C 335.847 156.475, 336.692 157.689, 336.337 158.264 C 335.974 158.851, 336.170 159.013, 336.784 158.633 C 337.385 158.262, 338.341 158.755, 338.908 159.729 C 339.475 160.703, 339.953 160.993, 339.970 160.372 C 339.986 159.752, 339.325 158.685, 338.500 158 C 337.675 157.315, 337 156.162, 337 155.437 C 337 154.711, 336.480 153.797, 335.845 153.405 C 335.089 152.937, 334.964 153.133, 335.485 153.975 C 336.017 154.837, 335.821 155.093, 334.889 154.755 C 334.125 154.477, 333.613 153.744, 333.750 153.125 C 334.055 151.751, 333.334 151.651, 332.527 152.956 M 341.638 153.500 C 341.322 154.325, 340.374 155, 339.531 155 C 338.689 155, 338 155.450, 338 156 C 338 156.550, 338.675 157, 339.500 157 C 340.325 157, 341 156.523, 341 155.941 C 341 155.359, 341.357 155.102, 341.792 155.372 C 342.228 155.641, 342.650 154.993, 342.730 153.931 C 342.904 151.621, 342.431 151.435, 341.638 153.500 M 294.015 155.250 C 294.024 156.488, 294.467 158.175, 295 159 C 295.721 160.116, 295.973 159.539, 295.985 156.750 C 295.993 154.688, 295.550 153, 295 153 C 294.450 153, 294.007 154.012, 294.015 155.250 M 345.807 157.866 C 345.088 158.892, 344.151 159.758, 343.725 159.791 C 343.299 159.823, 342.399 160.073, 341.725 160.346 C 340.813 160.715, 340.835 160.862, 341.809 160.921 C 342.529 160.964, 342.830 161.563, 342.478 162.250 C 342.127 162.938, 342.954 162.291, 344.316 160.814 C 345.679 159.336, 346.991 158.324, 347.230 158.564 C 347.470 158.804, 347.667 158.325, 347.667 157.500 C 347.667 155.554, 347.388 155.608, 345.807 157.866 M 470.500 159 C 469.163 160.478, 469.162 160.667, 470.492 160.667 C 471.317 160.667, 472.670 159.917, 473.500 159 C 474.837 157.522, 474.838 157.333, 473.508 157.333 C 472.683 157.333, 471.330 158.083, 470.500 159 M 500.741 161.332 C 500.333 162.339, 500.029 164.364, 500.063 165.832 L 500.127 168.500 501.106 166.047 C 501.645 164.698, 501.950 162.673, 501.784 161.547 C 501.504 159.647, 501.429 159.632, 500.741 161.332 M 465.590 162.901 C 464.297 164.329, 464.173 164.989, 465.089 165.555 C 465.821 166.007, 466.051 165.892, 465.666 165.268 C 464.865 163.972, 467.383 161.744, 468.502 162.759 C 468.952 163.166, 468.997 162.938, 468.601 162.250 C 467.675 160.641, 467.626 160.651, 465.590 162.901 M 406.625 164.798 C 406.354 165.237, 406.595 166.249, 407.160 167.048 C 407.980 168.206, 408.066 168.123, 407.583 166.639 C 407.127 165.238, 407.364 164.926, 408.541 165.377 C 409.439 165.722, 409.844 165.557, 409.493 164.989 C 408.757 163.797, 407.303 163.700, 406.625 164.798 M 460.069 167.427 C 458.364 169.241, 458.186 169.796, 459.365 169.623 C 461.334 169.334, 462.329 168.367, 462.607 166.471 C 462.892 164.527, 462.739 164.585, 460.069 167.427 M 283.885 167.691 C 283.822 168.136, 283.843 169.248, 283.933 170.161 C 284.022 171.075, 283.624 172.114, 283.048 172.470 C 282.472 172.827, 282.003 173.879, 282.006 174.809 C 282.010 175.986, 282.407 175.740, 283.310 174 C 285.536 169.711, 285.946 168.085, 284.956 167.473 C 284.430 167.148, 283.948 167.246, 283.885 167.691 M 412.603 167.833 C 412.320 168.292, 413.398 168.667, 415 168.667 C 416.602 168.667, 417.680 168.292, 417.397 167.833 C 417.114 167.375, 416.035 167, 415 167 C 413.965 167, 412.886 167.375, 412.603 167.833 M 456.225 171.130 C 456.376 171.834, 455.975 172.430, 455.333 172.455 C 453.651 172.520, 452.708 173.701, 453.800 174.376 C 454.313 174.693, 455.497 174.108, 456.431 173.076 C 457.575 171.812, 457.774 170.978, 457.040 170.525 C 456.441 170.154, 456.074 170.427, 456.225 171.130 M 340.597 171.844 C 340.251 172.404, 340.455 173.163, 341.050 173.531 C 342.588 174.481, 343.580 173.180, 342.296 171.896 C 341.578 171.178, 341.019 171.161, 340.597 171.844 M 301.624 172.800 C 301.307 173.313, 302.041 174.580, 303.256 175.616 C 305.424 177.464, 305.437 177.464, 303.983 175.596 C 303.167 174.549, 302.650 173.499, 302.833 173.263 C 303.017 173.027, 302.949 172.616, 302.683 172.350 C 302.418 172.084, 301.941 172.287, 301.624 172.800 M 284.583 173.866 C 284.288 174.343, 284.892 175.497, 285.924 176.431 C 287.155 177.545, 288.028 177.764, 288.460 177.065 C 289.125 175.989, 289.008 175.887, 286.750 175.580 C 286.063 175.486, 285.613 174.867, 285.750 174.205 C 286.040 172.805, 285.360 172.608, 284.583 173.866 M 445.715 178.300 C 445.124 179.841, 448.481 179.956, 449.730 178.437 C 450.153 177.922, 450.091 177.834, 449.592 178.241 C 449.093 178.649, 448.133 178.525, 447.459 177.966 C 446.603 177.255, 446.077 177.356, 445.715 178.300 M 309.441 179.555 C 307.565 181.058, 307.573 181.075, 309.678 180.059 C 310.875 179.480, 312.675 179.273, 313.678 179.598 C 315.196 180.090, 315.250 180.009, 314 179.110 C 312.031 177.693, 311.729 177.722, 309.441 179.555 M 67 180.018 C 67 180.691, 76.492 180.945, 95 180.768 C 110.399 180.621, 122.999 180.162, 123 179.750 C 123 179.338, 110.400 179, 95 179 C 76.668 179, 67 179.352, 67 180.018 M 346.069 181.573 C 348.418 184.074, 350.053 184.974, 348.207 182.750 C 347.637 182.063, 347.244 181.093, 347.335 180.595 C 347.426 180.098, 346.665 179.568, 345.644 179.418 C 343.992 179.176, 344.038 179.412, 346.069 181.573 M 412.720 182.332 C 411.606 185.165, 411.788 186.612, 413.094 185.306 C 413.695 184.705, 414.020 183.377, 413.814 182.356 C 413.454 180.566, 413.415 180.565, 412.720 182.332 M 140.403 185.270 C 138.806 187.029, 138.437 187.687, 139.581 186.732 C 140.726 185.777, 141.899 185.232, 142.189 185.522 C 142.478 185.811, 143.251 185.403, 143.906 184.613 C 146.393 181.616, 143.170 182.221, 140.403 185.270 M 94.286 187.500 C 94.294 190.250, 94.488 191.256, 94.718 189.736 C 94.947 188.216, 94.941 185.966, 94.704 184.736 C 94.467 183.506, 94.279 184.750, 94.286 187.500 M 493.337 185.250 C 491.680 187.903, 492.105 189.215, 494.052 187.453 C 495.098 186.507, 495.712 185.343, 495.417 184.866 C 494.693 183.694, 494.259 183.774, 493.337 185.250 M 339.325 190.146 C 340.329 190.716, 341.412 190.921, 341.733 190.600 C 342.054 190.280, 342.920 190.519, 343.658 191.131 C 344.645 191.950, 345 191.948, 345 191.122 C 345 190.505, 344.663 189.969, 344.250 189.931 C 343.837 189.893, 342.150 189.693, 340.500 189.485 C 338.014 189.173, 337.813 189.286, 339.325 190.146 M 484.820 194.750 C 481.803 197.912, 478.997 200.575, 478.584 200.667 C 477.190 200.976, 476.805 201.852, 478.158 201.636 C 480.154 201.318, 483.157 199.449, 483.340 198.410 C 483.428 197.910, 483.774 197.591, 484.108 197.703 C 485.069 198.023, 490.361 192.151, 490.604 190.495 C 490.724 189.673, 490.706 189, 490.564 189 C 490.421 189, 487.836 191.588, 484.820 194.750 M 99.622 191.036 C 101.890 191.485, 107.740 191.498, 112.622 191.065 L 121.500 190.279 108.500 190.249 C 99.150 190.228, 96.657 190.448, 99.622 191.036 M 276.437 193.250 L 273.500 196.500 276.750 193.563 C 279.779 190.825, 280.460 190, 279.687 190 C 279.515 190, 278.052 191.463, 276.437 193.250 M 300.032 191.939 C 299.291 193.324, 299.325 194.083, 300.152 194.594 C 300.870 195.038, 301.038 194.871, 300.595 194.155 C 300.203 193.520, 300.284 193, 300.774 193 C 301.265 193, 301.667 192.325, 301.667 191.500 C 301.667 189.505, 301.280 189.609, 300.032 191.939 M 126.628 192.500 C 127.315 194.342, 127.226 194.381, 125.495 193 C 124.285 192.034, 123.893 191.961, 124.394 192.794 C 124.828 193.515, 124.581 194.843, 123.836 195.794 C 122.633 197.331, 122.674 197.364, 124.250 196.128 C 125.733 194.964, 126.010 194.964, 126.063 196.128 C 126.098 196.882, 126.562 196.411, 127.094 195.080 C 127.749 193.442, 127.709 192.312, 126.971 191.580 C 126.186 190.802, 126.090 191.060, 126.628 192.500 M 401.500 194.582 C 388.707 203.464, 377.876 206.646, 370.678 203.639 C 367.838 202.452, 366.819 202.365, 366.532 203.283 C 366.323 203.952, 365.580 206.300, 364.881 208.500 C 364.181 210.700, 363.517 213.026, 363.405 213.670 C 363.157 215.087, 367.971 215.712, 385.829 216.582 L 399.159 217.232 398.619 219.866 C 398.322 221.315, 398.325 221.935, 398.625 221.244 C 398.925 220.553, 399.600 220.253, 400.125 220.578 C 400.703 220.934, 400.811 220.047, 400.399 218.334 C 400.025 216.775, 400.098 215.854, 400.563 216.287 C 401.027 216.719, 402.812 212.219, 404.530 206.287 C 406.248 200.354, 407.986 194.488, 408.394 193.250 C 409.449 190.047, 407.485 190.427, 401.500 194.582 M 486.437 194.250 L 483.500 197.500 486.750 194.563 C 489.779 191.825, 490.460 191, 489.687 191 C 489.515 191, 488.052 192.463, 486.437 194.250 M 141.492 194.099 C 141.045 194.869, 141.045 195.169, 141.491 194.766 C 141.937 194.362, 142.841 194.767, 143.498 195.667 C 144.498 197.034, 144.828 197.073, 145.508 195.901 C 145.955 195.131, 145.955 194.831, 145.509 195.234 C 145.063 195.638, 144.159 195.233, 143.502 194.333 C 142.502 192.966, 142.172 192.927, 141.492 194.099 M 287.386 194.270 C 286.997 194.947, 287.045 195.169, 287.491 194.766 C 287.937 194.362, 288.841 194.767, 289.498 195.667 C 290.156 196.567, 290.959 196.875, 291.283 196.352 C 291.606 195.828, 291.021 194.869, 289.982 194.221 C 288.519 193.307, 287.933 193.318, 287.386 194.270 M 102.281 197.918 C 102.116 200.111, 103.515 201.594, 104.399 200.164 C 104.694 199.686, 104.373 198.525, 103.685 197.585 C 102.532 196.007, 102.423 196.033, 102.281 197.918 M 118.469 198.050 C 117.519 199.588, 118.820 200.580, 120.104 199.296 C 120.822 198.578, 120.839 198.019, 120.156 197.597 C 119.596 197.251, 118.837 197.455, 118.469 198.050 M 504.394 199.416 C 504.095 200.194, 504.013 202.107, 504.210 203.666 C 504.504 205.979, 504.660 205.718, 505.061 202.250 C 505.567 197.877, 505.345 196.936, 504.394 199.416 M 104.415 202.138 C 103.930 202.923, 104.128 203.039, 105.015 202.490 C 105.972 201.899, 106.166 202.125, 105.714 203.304 C 105.369 204.202, 105.424 205.144, 105.836 205.399 C 106.248 205.653, 106.650 205.001, 106.729 203.950 C 106.902 201.655, 105.427 200.500, 104.415 202.138 M 120.471 202.953 C 121.028 203.854, 120.715 204.048, 119.375 203.630 C 117.097 202.920, 114.229 204.406, 115.893 205.434 C 116.502 205.810, 117 205.611, 117 204.992 C 117 204.337, 117.802 204.120, 118.916 204.473 C 121.091 205.164, 122.647 203.518, 120.862 202.415 C 120.095 201.941, 119.960 202.126, 120.471 202.953 M 55.765 264.988 L 56.031 324.785 59.265 325.142 C 61.044 325.339, 82.525 325.268, 107 324.984 L 151.500 324.469 104.250 324.234 L 57 324 57 265.059 C 57 232.641, 56.663 205.909, 56.250 205.654 C 55.837 205.399, 55.619 232.099, 55.765 264.988 M 506.272 213 C 506.272 215.475, 506.467 216.488, 506.706 215.250 C 506.944 214.012, 506.944 211.988, 506.706 210.750 C 506.467 209.512, 506.272 210.525, 506.272 213 M 423.564 215.104 C 423.880 215.615, 424.529 215.791, 425.008 215.495 C 425.486 215.200, 426.292 215.700, 426.800 216.607 C 427.356 217.600, 427.975 217.849, 428.356 217.233 C 428.704 216.670, 428.204 215.869, 427.244 215.454 C 424.455 214.245, 422.945 214.102, 423.564 215.104 M 113.600 215.838 C 113.282 216.353, 113.652 217.296, 114.422 217.935 C 115.250 218.622, 116.058 218.715, 116.400 218.162 C 116.718 217.647, 116.348 216.704, 115.578 216.065 C 114.750 215.378, 113.942 215.285, 113.600 215.838 M 331 216.893 C 331 218.310, 333.864 219.028, 334.622 217.802 C 335.038 217.129, 334.854 216.972, 334.155 217.405 C 333.520 217.797, 333 217.641, 333 217.059 C 333 216.477, 332.550 216, 332 216 C 331.450 216, 331 216.402, 331 216.893 M 151.364 218.494 C 151.048 219.316, 150.419 219.759, 149.964 219.478 C 149.510 219.197, 148.880 219.385, 148.564 219.896 C 148.249 220.407, 148.718 220.718, 149.608 220.587 C 151.098 220.368, 153.831 217, 152.518 217 C 152.199 217, 151.679 217.672, 151.364 218.494 M 281.624 219.539 C 281.281 220.432, 281.041 222.139, 281.090 223.332 C 281.154 224.868, 281.462 224.521, 282.147 222.140 C 283.143 218.679, 282.734 216.645, 281.624 219.539 M 435.654 220.750 C 435.399 221.162, 437.578 221.500, 440.496 221.500 C 443.414 221.500, 445.594 221.162, 445.341 220.750 C 445.089 220.338, 442.910 220, 440.500 220 C 438.090 220, 435.909 220.338, 435.654 220.750 M 505.252 223.500 C 505.263 225.700, 505.468 226.482, 505.707 225.238 C 505.946 223.994, 505.937 222.194, 505.687 221.238 C 505.437 220.282, 505.241 221.300, 505.252 223.500 M 142.143 222.890 C 141.197 223.490, 141.122 223.957, 141.893 224.434 C 142.502 224.810, 143 224.593, 143 223.952 C 143 223.309, 143.696 223.053, 144.552 223.382 C 145.442 223.723, 145.843 223.555, 145.493 222.989 C 144.750 221.786, 143.925 221.762, 142.143 222.890 M 507.286 227.500 C 507.294 230.250, 507.488 231.256, 507.718 229.736 C 507.947 228.216, 507.941 225.966, 507.704 224.736 C 507.467 223.506, 507.279 224.750, 507.286 227.500 M 132.264 225.718 C 133.784 225.947, 136.034 225.941, 137.264 225.704 C 138.494 225.467, 137.250 225.279, 134.500 225.286 C 131.750 225.294, 130.744 225.488, 132.264 225.718 M 349.625 229.125 C 348.791 233.293, 349.599 234.101, 350.500 230 C 350.880 228.271, 350.982 226.649, 350.727 226.394 C 350.472 226.139, 349.976 227.368, 349.625 229.125 M 291.174 229.314 C 288.168 232.515, 288.447 233.580, 291.635 231.073 C 295.318 228.175, 300.139 228.405, 304.009 231.661 C 307.486 234.587, 308.286 236.235, 311.131 246.339 C 314.851 259.551, 320.086 267.410, 327.483 270.887 C 335.999 274.890, 346.443 272.715, 350.281 266.138 C 351.342 264.321, 352.618 263.300, 353.436 263.614 C 354.353 263.966, 355.040 263.095, 355.500 260.999 C 356.329 257.224, 355.513 255.820, 354.601 259.453 C 353.602 263.433, 352 262.442, 352 257.844 C 352 248.566, 340.890 240.887, 334.223 245.557 C 331.374 247.552, 331.171 253.738, 333.852 256.830 C 336.204 259.541, 343.651 262.949, 347.285 262.978 C 349.783 262.998, 349.957 263.212, 348.971 265.054 C 347.167 268.424, 341.939 270.992, 336.872 270.996 C 324.623 271.006, 317.572 262.712, 311.391 241.023 C 308.854 232.118, 303.848 227, 297.674 227 C 294.446 227, 292.797 227.587, 291.174 229.314 M 281.517 232.334 C 281.877 234.144, 281.709 234.938, 281.052 234.532 C 280.425 234.145, 280.272 234.546, 280.660 235.558 C 281.220 237.016, 281.402 237.033, 282.149 235.698 C 282.640 234.822, 282.567 233.184, 281.977 231.838 C 281.025 229.662, 280.993 229.696, 281.517 232.334 M 506.336 242 C 506.336 246.125, 506.513 247.813, 506.728 245.750 C 506.944 243.688, 506.944 240.313, 506.728 238.250 C 506.513 236.188, 506.336 237.875, 506.336 242 M 274.440 244.098 C 273.574 245.498, 275.756 245.999, 276.871 244.656 C 277.699 243.657, 277.594 243.333, 276.440 243.333 C 275.600 243.333, 274.699 243.677, 274.440 244.098 M 352.684 246.382 C 352.308 247.362, 352.029 248.914, 352.063 249.832 C 352.105 250.937, 352.453 250.685, 353.092 249.086 C 353.623 247.758, 353.902 246.206, 353.712 245.636 C 353.522 245.067, 353.059 245.403, 352.684 246.382 M 334.536 247.960 C 330.409 252.521, 336.806 259.597, 346.045 260.692 L 351.313 261.316 350.724 257.685 C 349.286 248.824, 339.225 242.779, 334.536 247.960 M 504.155 251.245 C 503.625 251.775, 480.996 252.109, 450.203 252.041 C 414.527 251.963, 396.954 252.265, 396.523 252.963 C 396.121 253.614, 397.392 254, 399.941 254 C 402.173 254, 404 254.210, 404 254.466 C 404 255.024, 393.951 273.262, 389.380 281 C 387.593 284.025, 382.661 292.800, 378.420 300.500 C 374.179 308.200, 369.424 316.435, 367.854 318.800 C 366.284 321.165, 365 323.303, 365 323.550 C 365 323.798, 379.604 324, 397.453 324 L 429.907 324 431.547 321.750 C 432.450 320.512, 436.501 313.200, 440.550 305.500 L 447.912 291.500 448.206 307.500 L 448.500 323.500 476.500 323.500 L 504.500 323.500 504.434 320 C 504.398 318.075, 503.822 310.200, 503.154 302.500 C 502.486 294.800, 501.490 282.875, 500.941 276 C 500.392 269.125, 499.689 261.363, 499.378 258.750 C 498.867 254.463, 499.009 254, 500.835 254 C 501.947 254, 503.452 253.405, 504.179 252.679 C 504.905 251.952, 505.875 251.314, 506.333 251.262 C 507.860 251.087, 508.022 250.333, 506.533 250.333 C 505.727 250.333, 504.656 250.744, 504.155 251.245 M 84.923 260.250 C 84.881 260.387, 84.688 261.346, 84.493 262.381 C 84.229 263.779, 84.428 263.972, 85.269 263.131 C 85.891 262.509, 87.323 261.968, 88.450 261.930 C 90.480 261.860, 90.480 261.851, 88.500 261 C 86.422 260.107, 85.055 259.820, 84.923 260.250 M 110.580 261.129 C 111.319 262.326, 114.667 262.722, 114.667 261.613 C 114.667 261.001, 113.660 260.500, 112.429 260.500 C 111.198 260.500, 110.366 260.783, 110.580 261.129 M 134.515 260.977 C 134.338 261.265, 135.918 261.621, 138.026 261.769 C 140.134 261.917, 142.079 261.682, 142.348 261.246 C 142.617 260.811, 141.037 260.455, 138.837 260.455 C 136.637 260.455, 134.692 260.690, 134.515 260.977 M 355.480 265.090 C 355.111 266.769, 355.078 268.411, 355.405 268.738 C 355.732 269.066, 356 268.358, 356 267.167 C 356 264.081, 358.795 264.403, 363.772 268.064 C 367.017 270.450, 368.312 272.315, 369.630 276.497 C 371.238 281.597, 371.232 282.107, 369.499 286.683 C 367.378 292.287, 363.173 298.225, 361.889 297.431 C 361.400 297.129, 360.993 294.771, 360.985 292.191 C 360.975 289.281, 360.651 288.001, 360.132 288.821 C 359.671 289.547, 359.641 292.022, 360.065 294.321 C 360.953 299.139, 359.771 301.061, 354.678 303.073 C 345.075 306.867, 328.305 321.602, 332.135 322.878 C 332.831 323.110, 333.592 322.670, 333.826 321.900 C 334.060 321.130, 336.783 318.025, 339.876 315 C 345.450 309.549, 358.123 302.340, 360.044 303.527 C 360.570 303.852, 361 303.579, 361 302.921 C 361 302.262, 362.834 299.734, 365.076 297.301 C 370.070 291.884, 372 287.479, 372 281.500 C 372 273.302, 367.597 266.817, 359.825 263.571 L 356.151 262.036 355.480 265.090 M 60 268.441 C 60 271.434, 60.450 274.160, 61 274.500 C 61.625 274.886, 62 272.844, 62 269.059 C 62 265.686, 61.557 263, 61 263 C 60.450 263, 60 265.448, 60 268.441 M 73 265.941 C 73 267.073, 73.450 268, 74 268 C 74.550 268, 74.888 268.542, 74.750 269.205 C 74.612 269.867, 75.175 270.430, 76 270.455 C 76.825 270.480, 77.500 271.063, 77.500 271.750 C 77.500 272.438, 77.875 273.038, 78.333 273.083 C 80.155 273.266, 79.875 272.231, 77.496 269.996 C 76.123 268.707, 75 267.081, 75 266.385 C 75 265.688, 74.550 264.840, 74 264.500 C 73.450 264.160, 73 264.809, 73 265.941 M 130.394 266.567 C 130.039 267.979, 130.176 270.567, 130.698 272.317 C 131.548 275.172, 131.641 274.908, 131.598 269.750 C 131.571 266.587, 131.434 264, 131.294 264 C 131.153 264, 130.748 265.155, 130.394 266.567 M 146.776 268.606 C 147.410 271.925, 149 272.682, 149 269.666 C 149 268.317, 148.395 266.982, 147.656 266.698 C 146.692 266.328, 146.443 266.868, 146.776 268.606 M 106.225 270.176 C 106.376 270.904, 105.954 271.393, 105.286 271.262 C 104.571 271.122, 104.314 271.653, 104.660 272.555 C 104.983 273.397, 105.319 273.954, 105.407 273.793 C 105.494 273.632, 106.135 272.753, 106.832 271.839 C 107.709 270.687, 107.768 269.975, 107.024 269.515 C 106.433 269.150, 106.074 269.447, 106.225 270.176 M 119.440 274.382 C 118.817 276.864, 118.452 277, 112.392 277 C 108.876 277, 106 277.350, 106 277.779 C 106 278.486, 108.248 278.567, 116.275 278.146 C 118.283 278.040, 119.327 277.271, 120.053 275.361 C 120.605 273.910, 120.840 272.507, 120.577 272.243 C 120.313 271.980, 119.802 272.942, 119.440 274.382 M 146.256 274.216 C 146.449 276.018, 146.019 276.483, 144.217 276.417 C 141.369 276.314, 142.593 277.528, 146.189 278.375 C 147.668 278.723, 149.153 278.561, 149.491 278.015 C 149.853 277.429, 149.421 277.285, 148.436 277.663 C 147.057 278.192, 146.942 277.974, 147.777 276.402 C 148.514 275.014, 148.412 274.153, 147.399 273.216 C 146.243 272.146, 146.052 272.313, 146.256 274.216 M 134.565 276.895 C 133.869 278.021, 136.348 279.005, 139.832 278.985 C 141.916 278.973, 142.171 278.759, 141 278.008 C 140.175 277.478, 138.656 277.309, 137.625 277.630 C 136.403 278.011, 135.988 277.829, 136.434 277.107 C 136.810 276.498, 136.668 276, 136.118 276 C 135.568 276, 134.869 276.403, 134.565 276.895 M 63.426 279.694 C 63.571 280.687, 64.023 281.425, 64.429 281.333 C 65.947 280.990, 66.005 280.249, 64.604 279.087 C 63.430 278.112, 63.210 278.226, 63.426 279.694 M 363.444 318.444 C 363.068 320.451, 362.985 322.318, 363.260 322.593 C 363.535 322.868, 364.068 321.451, 364.444 319.444 C 364.821 317.438, 364.904 315.571, 364.629 315.296 C 364.354 315.021, 363.821 316.438, 363.444 318.444 M 299.199 323.744 C 303.984 323.927, 312.084 323.928, 317.199 323.746 C 322.315 323.564, 318.400 323.414, 308.500 323.413 C 298.600 323.412, 294.415 323.561, 299.199 323.744 M 329.725 328.310 C 329.072 332.331, 330.395 339.929, 332.434 343.872 C 337.225 353.138, 352.007 359.542, 360.500 356.033 C 361.851 355.475, 360.371 355.193, 355.934 355.166 C 346.005 355.104, 338.981 351.236, 334.303 343.255 C 332.185 339.640, 331.706 337.548, 331.706 331.911 C 331.706 324.643, 330.635 322.697, 329.725 328.310" stroke="none" fill="#567bef" fill-rule="evenodd"/></svg>