<svg xmlns="http://www.w3.org/2000/svg" width="563" height="443" viewBox="0 0 563 443" version="1.1"><path d="M 212.250 55.716 C 213.762 55.945, 216.238 55.945, 217.750 55.716 C 219.262 55.487, 218.025 55.300, 215 55.300 C 211.975 55.300, 210.738 55.487, 212.250 55.716 M 330.264 56.718 C 331.784 56.947, 334.034 56.941, 335.264 56.704 C 336.494 56.467, 335.250 56.279, 332.500 56.286 C 329.750 56.294, 328.744 56.488, 330.264 56.718 M 391.500 76 C 391.840 76.550, 392.766 77, 393.559 77 C 394.352 77, 395 76.550, 395 76 C 395 75.450, 394.073 75, 392.941 75 C 391.809 75, 391.160 75.450, 391.500 76 M 398.493 76.011 C 398.298 76.327, 398.999 76.650, 400.050 76.729 C 401.101 76.808, 402.204 76.479, 402.502 75.997 C 402.800 75.515, 402.099 75.192, 400.946 75.279 C 399.792 75.366, 398.688 75.695, 398.493 76.011 M 405.500 76 C 405.840 76.550, 406.740 77, 407.500 77 C 408.260 77, 409.160 76.550, 409.500 76 C 409.852 75.431, 408.991 75, 407.500 75 C 406.009 75, 405.148 75.431, 405.500 76 M 413 76 C 413 76.550, 413.648 77, 414.441 77 C 415.234 77, 416.160 76.550, 416.500 76 C 416.840 75.450, 416.191 75, 415.059 75 C 413.927 75, 413 75.450, 413 76 M 434.829 76.229 C 435.467 76.867, 436.416 76.867, 437.556 76.229 C 439.033 75.402, 438.880 75.250, 436.577 75.250 C 434.799 75.250, 434.190 75.590, 434.829 76.229 M 442.021 76.417 C 442.575 76.974, 443.833 76.907, 445.217 76.247 C 447.359 75.226, 447.302 75.169, 444.303 75.329 C 442.367 75.433, 441.467 75.862, 442.021 76.417 M 358 87.153 C 358 87.684, 357.641 87.896, 357.201 87.624 C 356.762 87.353, 354.625 88.217, 352.451 89.545 C 342.904 95.377, 333.480 97.240, 325 94.971 C 315.358 92.391, 304.563 92.946, 300.294 96.241 C 299.630 96.753, 298.618 96.882, 298.044 96.527 C 297.470 96.172, 297 96.359, 297 96.941 C 297 97.523, 296.663 97.919, 296.250 97.820 C 294.725 97.454, 288.443 101.240, 286.714 103.568 C 284.981 105.901, 285.001 106.127, 287.413 111.236 C 290.072 116.869, 290.698 121.796, 289.668 129 C 289.315 131.475, 289.289 132.915, 289.612 132.200 C 290.081 131.163, 290.673 131.211, 292.547 132.439 C 295.004 134.048, 298.031 133.603, 297.956 131.643 C 297.932 131.014, 297.483 128.475, 296.957 126 C 296.431 123.525, 295.760 118.948, 295.465 115.828 C 294.969 110.572, 295.097 110.105, 297.215 109.441 C 298.472 109.047, 304 106.474, 309.500 103.723 C 318.914 99.015, 319.939 98.725, 327 98.787 C 331.125 98.823, 338.525 99.231, 343.443 99.694 C 351.518 100.455, 352.917 100.321, 357.842 98.320 C 364.481 95.621, 364.606 95.490, 365.278 90.500 C 365.574 88.300, 365.589 87.081, 365.311 87.792 C 364.993 88.604, 364.378 88.750, 363.653 88.186 C 361.853 86.785, 358 86.081, 358 87.153 M 55.461 88.250 C 55.199 88.938, 55.101 135.850, 55.242 192.500 L 55.500 295.500 58.500 295.500 L 61.500 295.500 61.175 274 C 60.915 256.759, 61.179 251.014, 62.507 245 C 66.031 229.043, 77.503 198.836, 79.341 200.674 C 79.761 201.095, 79.780 200.591, 79.383 199.555 C 78.883 198.254, 79.018 197.893, 79.819 198.388 C 80.525 198.825, 80.788 198.596, 80.493 197.802 C 79.784 195.898, 85.845 185.786, 87.194 186.620 C 87.873 187.039, 88.028 186.855, 87.592 186.149 C 86.745 184.779, 93.807 175.763, 95.101 176.562 C 95.583 176.860, 95.718 176.428, 95.401 175.603 C 94.685 173.736, 103.811 163.713, 105.601 164.400 C 106.290 164.665, 107.392 164.233, 108.049 163.441 C 108.707 162.648, 108.923 162, 108.529 162 C 107.002 162, 116.224 152.068, 118.300 151.476 C 119.510 151.132, 123.735 149.308, 127.688 147.425 C 131.642 145.541, 135.392 144, 136.022 144 C 137.960 144, 136.697 142.375, 132 138.830 C 122.052 131.321, 118.806 122.261, 122.925 113.500 C 124.886 109.328, 134.914 98.509, 143.500 91.304 L 148.500 87.107 102.219 87.054 C 66.074 87.012, 55.833 87.274, 55.461 88.250 M 233.435 89.405 C 232.643 92.557, 233.161 94.109, 239.733 108.297 C 246.146 122.139, 247.390 129.269, 244.468 135.427 C 242.586 139.392, 237.390 143.418, 232.669 144.568 C 229.494 145.341, 228.410 147.146, 229.557 149.750 C 229.980 150.713, 230.373 151.725, 230.429 152 C 230.735 153.503, 232.256 154.960, 233.025 154.484 C 234.326 153.681, 237.302 158.688, 236.426 160.206 C 236.015 160.918, 236.050 161.164, 236.503 160.754 C 237.599 159.760, 240.508 164.629, 245.085 175.122 C 249.400 185.014, 255 201.267, 255 203.897 C 255 206.918, 260.807 223.262, 262.193 224.141 C 264.305 225.480, 264.652 225.233, 267.646 220.250 L 270.500 215.500 270 151.500 L 269.500 87.500 251.775 87.227 L 234.050 86.954 233.435 89.405 M 191.272 96 C 191.272 98.475, 191.467 99.487, 191.706 98.250 C 191.944 97.013, 191.944 94.987, 191.706 93.750 C 191.467 92.513, 191.272 93.525, 191.272 96 M 453 94.500 C 453 97.758, 454.456 97.757, 454.644 94.499 C 454.724 93.125, 454.386 92, 453.894 92 C 453.402 92, 453 93.125, 453 94.500 M 377.985 94.750 C 377.973 96.138, 377.788 96.214, 377.094 95.118 C 375.843 93.143, 370.206 94.381, 360.500 98.765 C 353.061 102.124, 351.792 102.382, 342.410 102.439 C 335.818 102.479, 331.454 102.039, 329.824 101.169 C 326.049 99.155, 317.358 101.158, 305.757 106.715 C 296.025 111.376, 295.939 111.449, 296.582 114.460 C 296.939 116.132, 297.637 118.005, 298.133 118.623 C 298.629 119.241, 298.759 120.591, 298.423 121.623 C 297.973 123.004, 298.066 123.144, 298.774 122.154 C 299.507 121.130, 300.008 121.584, 300.869 124.053 C 301.491 125.838, 302 128.113, 302 129.110 C 302 132.088, 305.309 141.905, 306.463 142.347 C 307.052 142.573, 311.576 140.931, 316.517 138.697 C 324.601 135.042, 326.301 134.634, 333.500 134.623 C 337.900 134.617, 345.884 135.047, 351.242 135.579 C 356.600 136.112, 361.100 136.312, 361.242 136.024 C 361.841 134.808, 369.228 132.023, 370.223 132.638 C 370.918 133.067, 371.017 132.836, 370.498 131.997 C 369.894 131.020, 370.238 130.829, 371.845 131.249 C 373.032 131.560, 373.773 131.442, 373.493 130.988 C 373.212 130.534, 374.305 129.872, 375.922 129.517 C 380.307 128.554, 381.394 126.696, 380.471 121.740 C 380.037 119.408, 379.640 115.137, 379.591 112.250 C 379.541 109.362, 379.097 107, 378.605 107 C 378.108 107, 377.971 103.890, 378.297 100 C 378.620 96.150, 378.685 93, 378.442 93 C 378.199 93, 377.993 93.787, 377.985 94.750 M 453 101.500 C 453 102.875, 453.388 104, 453.861 104 C 454.335 104, 454.508 102.875, 454.245 101.500 C 453.982 100.125, 453.594 99, 453.383 99 C 453.173 99, 453 100.125, 453 101.500 M 453.182 108.802 C 453.316 110.561, 453.788 112, 454.232 112 C 454.675 112, 454.741 110.763, 454.378 109.250 C 453.430 105.297, 452.900 105.099, 453.182 108.802 M 336.073 111.635 C 333.757 114.578, 333.369 119.891, 335.105 124.872 C 336.379 128.525, 338.614 130, 342.878 130 C 347.044 130, 349 126.869, 349 120.201 C 349 115.616, 348.580 114.426, 346.077 111.923 C 342.392 108.238, 338.826 108.135, 336.073 111.635 M 361.053 114.436 C 359.655 116.121, 361.246 120, 363.335 120 C 366.626 120, 368.343 114.730, 365.418 113.607 C 363.084 112.711, 362.372 112.847, 361.053 114.436 M 383.016 114.750 C 383.024 115.713, 383.631 119.047, 384.363 122.159 C 385.677 127.740, 385.662 127.833, 383.300 128.909 C 381.983 129.509, 380.331 130, 379.627 130 C 376.967 130, 373.667 134.988, 372.850 140.241 C 371.853 146.659, 370.977 150.599, 367.681 163.500 C 363.741 178.920, 360 195.447, 360 197.434 C 360 198.421, 358.848 204.014, 357.440 209.864 C 352.689 229.605, 349.185 244.461, 347.500 252 C 346.579 256.125, 345.237 261.525, 344.519 264 C 343.801 266.475, 342.194 274.021, 340.948 280.769 C 337.927 297.126, 338.532 298.183, 352.524 300.950 C 355.261 301.492, 364.025 303.320, 372 305.014 C 379.975 306.707, 388.525 308.484, 391 308.963 C 393.475 309.442, 401.800 311.454, 409.500 313.434 C 417.200 315.414, 426.087 317.315, 429.250 317.659 C 436.024 318.396, 435.618 319.892, 433.455 302.163 C 431.224 283.880, 429.390 278.182, 423.476 271.154 C 422.006 269.406, 421.175 267.526, 421.583 266.866 C 422.027 266.147, 421.878 265.958, 421.197 266.378 C 419.861 267.204, 417.432 262.829, 416.526 257.965 C 415.775 253.934, 419.359 244.486, 421.206 245.628 C 421.807 245.999, 424.095 246.464, 426.292 246.662 C 430.864 247.074, 444.638 254.235, 444.225 255.985 C 444.074 256.625, 444.440 256.846, 445.038 256.476 C 445.637 256.107, 446.982 256.579, 448.028 257.526 C 449.842 259.167, 449.977 259.136, 450.939 256.873 C 451.493 255.568, 453.545 247.750, 455.498 239.500 C 457.451 231.250, 459.475 222.700, 459.996 220.500 C 460.517 218.300, 462.072 211.775, 463.451 206 C 464.831 200.225, 466.361 193.025, 466.852 190 C 467.343 186.975, 469.907 175.725, 472.551 165 C 475.194 154.275, 477.542 143.170, 477.767 140.321 C 478.154 135.430, 478.014 135.059, 475.245 133.627 C 473.632 132.793, 470.045 131.810, 467.273 131.442 L 462.234 130.773 458.867 135.348 C 454.680 141.036, 453.550 141.113, 435.649 136.921 C 409.612 130.825, 405.483 129.765, 404.412 128.901 C 403.813 128.418, 402.770 125.551, 402.094 122.529 C 401.418 119.507, 400.408 116.752, 399.851 116.408 C 398.383 115.501, 387.891 113.077, 385.250 113.036 C 383.755 113.012, 383.005 113.587, 383.016 114.750 M 453 115.500 C 453 116.875, 453.450 118, 454 118 C 454.550 118, 455 116.875, 455 115.500 C 455 114.125, 454.550 113, 454 113 C 453.450 113, 453 114.125, 453 115.500 M 315.384 120.442 C 314.413 122.971, 315.455 125.491, 317.598 125.798 C 320.276 126.183, 322.348 123.671, 321.515 121.048 C 320.753 118.645, 316.245 118.199, 315.384 120.442 M 332.762 135.707 C 334.006 135.946, 335.806 135.937, 336.762 135.687 C 337.718 135.437, 336.700 135.241, 334.500 135.252 C 332.300 135.263, 331.518 135.468, 332.762 135.707 M 349.250 137.716 C 350.762 137.945, 353.238 137.945, 354.750 137.716 C 356.262 137.487, 355.025 137.300, 352 137.300 C 348.975 137.300, 347.738 137.487, 349.250 137.716 M 390.959 148.145 C 388.656 149.813, 387.075 150.688, 387.445 150.089 C 387.815 149.490, 387.882 149, 387.594 149 C 387.306 149, 386.560 149.954, 385.935 151.121 C 385.021 152.830, 385.062 153.106, 386.150 152.547 C 386.893 152.164, 386.667 152.530, 385.650 153.359 C 384.572 154.238, 384.115 155.376, 384.554 156.088 C 384.969 156.760, 384.902 157.057, 384.405 156.750 C 383.899 156.437, 383.573 158.685, 383.666 161.845 C 383.886 169.315, 383.865 169.202, 384.895 168.565 C 385.388 168.260, 386.057 168.707, 386.384 169.558 C 386.782 170.596, 386.570 170.872, 385.739 170.397 C 385.057 170.009, 385.833 171.122, 387.462 172.871 C 389.091 174.620, 391.014 175.825, 391.735 175.548 C 394.194 174.605, 391.280 178.550, 387.713 180.994 C 374.982 189.718, 372.156 214.119, 382.183 228.749 C 385.814 234.048, 395.315 240.454, 402.743 242.614 C 409.538 244.589, 418.993 243.990, 425.276 241.185 C 431.148 238.564, 439.563 231.667, 442.312 227.223 C 450.136 214.574, 449.947 199.646, 441.811 187.672 C 438.246 182.427, 428.891 175.451, 422.721 173.438 C 419.849 172.502, 416.987 171.331, 416.361 170.837 C 414.949 169.724, 413.960 165, 415.139 165 C 416.367 165, 416.209 159.247, 414.959 158.475 C 414.387 158.121, 414.193 156.967, 414.528 155.911 C 414.928 154.651, 414.578 153.775, 413.511 153.366 C 412.617 153.023, 412.116 152.139, 412.399 151.403 C 412.974 149.905, 411.499 148.712, 408.500 148.250 C 407.400 148.081, 406.358 147.530, 406.185 147.027 C 406.012 146.524, 405.225 146.360, 404.435 146.663 C 403.646 146.966, 403 146.811, 403 146.319 C 403 145.828, 401.233 145.355, 399.073 145.268 C 396.126 145.151, 394.100 145.869, 390.959 148.145 M 403 149.081 C 401.843 149.891, 402.044 149.977, 403.875 149.458 C 405.643 148.958, 406.051 149.108, 405.471 150.047 C 404.960 150.874, 405.095 151.059, 405.862 150.585 C 406.506 150.187, 406.774 149.443, 406.457 148.931 C 405.720 147.738, 404.866 147.775, 403 149.081 M 402.079 152.215 C 402.036 153.158, 403.012 154.420, 404.250 155.020 C 406.159 155.945, 406.259 155.912, 404.912 154.805 C 404.039 154.087, 403.062 152.825, 402.741 152 C 402.268 150.784, 402.143 150.825, 402.079 152.215 M 389.547 171.052 C 390.493 172.098, 391.696 172.688, 392.221 172.364 C 393.420 171.623, 391.622 169.709, 389.424 169.386 C 388.019 169.180, 388.034 169.380, 389.547 171.052 M 337.300 184 C 337.300 187.025, 337.487 188.262, 337.716 186.750 C 337.945 185.238, 337.945 182.762, 337.716 181.250 C 337.487 179.738, 337.300 180.975, 337.300 184 M 416 222.729 C 414.075 224.136, 413.324 224.998, 414.332 224.644 C 415.339 224.290, 416.469 224, 416.841 224 C 417.214 224, 418.081 223.100, 418.768 222 C 420.283 219.575, 420.335 219.561, 416 222.729 M 237.232 238 C 237.232 239.925, 237.438 240.713, 237.689 239.750 C 237.941 238.787, 237.941 237.213, 237.689 236.250 C 237.438 235.287, 237.232 236.075, 237.232 238 M 201.612 244.819 C 201.333 245.270, 202.432 245.443, 204.053 245.206 C 205.674 244.968, 207 244.599, 207 244.387 C 207 243.625, 202.107 244.017, 201.612 244.819 M 223.472 255.183 C 219.674 256.411, 217 260.953, 217 266.177 C 217 274.450, 224.049 278.969, 231.466 275.449 C 235.123 273.714, 236.077 271.986, 236.224 266.838 C 236.439 259.250, 224.656 257.561, 222.735 264.905 C 222.162 267.097, 224.460 271.008, 226.307 270.985 C 227.126 270.974, 227.084 270.705, 226.170 270.126 C 225.423 269.653, 224.985 268.048, 225.170 266.469 C 225.414 264.385, 226.260 263.403, 228.426 262.685 C 230.919 261.859, 231.621 262.049, 233.176 263.969 C 237.083 268.795, 233.815 274.455, 227.120 274.455 C 221.920 274.455, 219.920 272.474, 219.267 266.679 C 218.827 262.776, 219.112 261.797, 221.333 259.576 C 223.483 257.426, 224.828 257, 229.469 257 C 234.574 257, 235.179 257.246, 236.852 259.996 C 237.854 261.644, 238.891 262.776, 239.156 262.511 C 239.421 262.246, 239.350 264.272, 238.998 267.014 C 238.646 269.757, 238.665 272, 239.040 272 C 239.415 272, 239.990 269.731, 240.319 266.958 C 240.813 262.780, 240.580 261.580, 238.958 259.958 C 237.881 258.881, 237 257.622, 237 257.161 C 237 255.864, 232.217 253.988, 229.203 254.102 C 227.716 254.158, 225.137 254.645, 223.472 255.183 M 371.923 263.923 C 368.223 267.623, 367.965 272.685, 371.280 276.540 C 373.124 278.683, 375.850 279.743, 385.530 282.079 C 406.851 287.223, 414.418 288.270, 418.361 286.622 C 423.076 284.652, 424.833 279.557, 422.495 274.630 C 420.604 270.646, 418.966 269.896, 406 267.075 C 400.775 265.939, 392.675 264.118, 388 263.030 C 376.745 260.410, 375.359 260.487, 371.923 263.923 M 500.272 275 C 500.272 277.475, 500.467 278.488, 500.706 277.250 C 500.944 276.012, 500.944 273.988, 500.706 272.750 C 500.467 271.512, 500.272 272.525, 500.272 275 M 242.871 287.859 C 242.613 288.613, 228.700 289.030, 197.345 289.223 C 170.597 289.387, 152.418 289.131, 152.749 288.595 C 153.057 288.098, 152.760 288.031, 152.088 288.446 C 151.416 288.861, 151.118 289.451, 151.425 289.758 C 152.260 290.593, 149.913 293.064, 148.887 292.430 C 147.463 291.550, 147.864 292.721, 149.571 294.429 C 150.963 295.821, 157.690 296, 208.490 296 C 240.030 296, 266.548 295.727, 267.418 295.393 C 268.350 295.036, 269 293.612, 269 291.931 L 269 289.075 277.750 288.716 C 282.563 288.518, 277.118 288.568, 265.650 288.826 C 249.542 289.189, 244.624 289.009, 244.021 288.035 C 243.506 287.201, 243.116 287.142, 242.871 287.859 M 300.304 288.747 C 306.247 288.924, 315.697 288.923, 321.304 288.745 C 326.912 288.567, 322.050 288.422, 310.500 288.423 C 298.950 288.424, 294.362 288.570, 300.304 288.747 M 334.209 288.681 C 335.594 289.046, 335.983 290.588, 336.258 296.815 L 336.598 304.500 336.799 296.250 C 336.993 288.271, 336.926 288.004, 334.750 288.116 C 333.122 288.200, 332.973 288.356, 334.209 288.681 M 154 301.500 C 154 303.189, 154.458 304.014, 155.250 303.750 C 155.938 303.521, 156.500 302.508, 156.500 301.500 C 156.500 300.492, 155.938 299.479, 155.250 299.250 C 154.458 298.986, 154 299.811, 154 301.500 M 336.436 330.500 C 336.436 344.800, 336.577 350.511, 336.748 343.191 C 336.919 335.871, 336.918 324.171, 336.747 317.191 C 336.575 310.211, 336.435 316.200, 336.436 330.500 M 154 308.615 C 154 310.212, 154.468 311.011, 155.250 310.750 C 157.118 310.128, 157.322 307.338, 155.549 306.657 C 154.400 306.216, 154 306.721, 154 308.615 M 75.567 311.069 C 79.207 314.796, 81.442 316.443, 79.207 313.750 C 78.637 313.063, 78.132 312.050, 78.085 311.500 C 78.038 310.950, 77.438 310.500, 76.750 310.500 C 76.063 310.500, 75.500 309.868, 75.500 309.095 C 75.500 308.323, 74.651 307.566, 73.614 307.414 C 72.209 307.208, 72.708 308.140, 75.567 311.069 M 154 315.500 C 154 316.875, 154.173 318, 154.383 318 C 154.594 318, 154.982 316.875, 155.245 315.500 C 155.508 314.125, 155.335 313, 154.861 313 C 154.388 313, 154 314.125, 154 315.500 M 97 320.750 C 97 321.163, 98.757 321.500, 100.905 321.500 C 103.052 321.500, 104.600 321.163, 104.345 320.750 C 104.091 320.337, 102.334 320, 100.441 320 C 98.548 320, 97 320.337, 97 320.750 M 410 321 C 408.781 321.788, 408.910 321.972, 410.691 321.985 C 411.896 321.993, 413.160 321.550, 413.500 321 C 414.287 319.727, 411.970 319.727, 410 321 M 154.379 329.138 C 154.662 330.602, 158 331.216, 158 329.805 C 158 329.244, 157.354 329.034, 156.565 329.337 C 155.775 329.640, 154.909 329.452, 154.640 328.919 C 154.370 328.386, 154.253 328.484, 154.379 329.138 M 160.354 329.687 C 161.359 330.693, 165 330.807, 165 329.833 C 165 329.375, 163.800 329, 162.333 329 C 160.867 329, 159.976 329.309, 160.354 329.687 M 175 329.989 C 175 330.533, 176.125 330.884, 177.500 330.771 C 178.875 330.657, 180 330.212, 180 329.782 C 180 329.352, 178.875 329, 177.500 329 C 176.125 329, 175 329.445, 175 329.989 M 182 329.800 C 182 330.240, 183.125 330.600, 184.500 330.600 C 185.875 330.600, 187 330.240, 187 329.800 C 187 329.360, 185.875 329, 184.500 329 C 183.125 329, 182 329.360, 182 329.800 M 189 329.943 C 189 330.461, 189.961 330.700, 191.135 330.474 C 194.367 329.852, 194.674 329, 191.667 329 C 190.200 329, 189 329.424, 189 329.943 M 197 329.800 C 197 330.240, 198.125 330.600, 199.500 330.600 C 200.875 330.600, 202 330.240, 202 329.800 C 202 329.360, 200.875 329, 199.500 329 C 198.125 329, 197 329.360, 197 329.800 M 204 329.750 C 204 330.163, 205.125 330.500, 206.500 330.500 C 207.875 330.500, 209 330.163, 209 329.750 C 209 329.337, 207.875 329, 206.500 329 C 205.125 329, 204 329.337, 204 329.750 M 211 330 C 211 331.264, 213.043 331.264, 215 330 C 216.169 329.245, 215.893 329.027, 213.750 329.015 C 212.238 329.007, 211 329.450, 211 330 M 219 329.786 C 219 330.218, 219.900 330.571, 221 330.571 C 222.100 330.571, 223 330.218, 223 329.786 C 223 329.354, 222.100 329, 221 329 C 219.900 329, 219 329.354, 219 329.786 M 226 330 C 226 331.264, 228.043 331.264, 230 330 C 231.169 329.245, 230.893 329.027, 228.750 329.015 C 227.238 329.007, 226 329.450, 226 330 M 233 329.782 C 233 330.212, 234.125 330.657, 235.500 330.771 C 236.875 330.884, 238 330.533, 238 329.989 C 238 329.445, 236.875 329, 235.500 329 C 234.125 329, 233 329.352, 233 329.782 M 240 330 C 240 330.550, 241.125 331, 242.500 331 C 243.875 331, 245 330.550, 245 330 C 245 329.450, 243.875 329, 242.500 329 C 241.125 329, 240 329.450, 240 330 M 248.704 330.104 C 249.495 330.895, 250.330 330.903, 251.654 330.134 C 253.272 329.193, 253.136 329.057, 250.550 329.030 C 248.399 329.008, 247.899 329.299, 248.704 330.104 M 262 329.861 C 262 330.335, 263.125 330.508, 264.500 330.245 C 265.875 329.982, 267 329.594, 267 329.383 C 267 329.173, 265.875 329, 264.500 329 C 263.125 329, 262 329.388, 262 329.861 M 403.232 334 C 403.232 335.925, 403.438 336.712, 403.689 335.750 C 403.941 334.788, 403.941 333.212, 403.689 332.250 C 403.438 331.288, 403.232 332.075, 403.232 334 M 505.286 340.500 C 505.294 343.250, 505.488 344.256, 505.718 342.736 C 505.947 341.216, 505.941 338.966, 505.704 337.736 C 505.467 336.506, 505.279 337.750, 505.286 340.500 M 401.272 341 C 401.272 343.475, 401.467 344.488, 401.706 343.250 C 401.944 342.012, 401.944 339.988, 401.706 338.750 C 401.467 337.512, 401.272 338.525, 401.272 341 M 507.328 347.500 C 507.333 351.350, 507.513 352.802, 507.730 350.728 C 507.946 348.653, 507.943 345.503, 507.722 343.728 C 507.501 341.952, 507.324 343.650, 507.328 347.500" stroke="none" fill="#e2eafa" fill-rule="evenodd"/><path d="M 321 56.017 C 318.525 56.447, 314.475 57.549, 312 58.465 C 309.525 59.382, 306.600 60.399, 305.500 60.725 C 296.840 63.293, 281.614 78.118, 277.232 88.250 C 275.106 93.166, 277.422 91.145, 280.361 85.519 C 284.256 78.066, 296.162 66.898, 304.241 63.121 C 319.732 55.879, 335.091 54.643, 350.438 59.405 C 366.744 64.465, 378.123 74.166, 386.346 90.017 C 388.906 94.951, 391 99.478, 391 100.076 C 391 100.674, 389.425 100.190, 387.500 99 C 382.812 96.102, 383.069 97.095, 388.024 101.019 C 391.200 103.534, 392.342 103.961, 393.446 103.045 C 395.232 101.563, 397.222 96, 395.967 96 C 395.456 96, 394.756 97.125, 394.411 98.500 C 393.694 101.357, 392.016 101.872, 391.968 99.250 C 391.916 96.377, 384.827 83.408, 380 77.357 C 366.945 60.987, 342.757 52.238, 321 56.017 M 198 58.117 C 194.425 59.203, 190.150 60.468, 188.500 60.929 C 184.726 61.982, 171.729 69.188, 167.116 72.784 C 165.200 74.278, 162.393 76.175, 160.878 77 C 157.125 79.044, 140.064 93.939, 131.669 102.500 C 123.978 110.344, 121.054 115.575, 121.022 121.554 C 120.983 128.687, 128.444 138.004, 137.500 142.133 L 141.500 143.956 138.230 143.978 C 133.094 144.013, 119.256 151.244, 112 157.684 C 95.215 172.584, 87.120 182.935, 78.497 200.525 C 71.882 214.019, 65.324 232.220, 62.582 244.697 C 61.557 249.360, 61.058 256.051, 61.165 263.697 L 61.330 275.500 62.064 262 C 62.807 248.348, 64.674 238.951, 69.313 225.500 C 72.707 215.657, 79.328 200.382, 82.673 194.677 C 84.228 192.024, 86.006 188.958, 86.624 187.863 C 87.242 186.768, 88.863 184.664, 90.227 183.186 C 91.590 181.709, 94.123 178.392, 95.856 175.815 C 102.149 166.457, 120.854 151.237, 130.665 147.490 C 134.494 146.028, 135.379 145.969, 136.179 147.124 C 137.459 148.974, 136.336 168.664, 134.445 177.500 C 133.621 181.350, 132.343 187.650, 131.604 191.500 C 129.916 200.298, 125.972 213.663, 117.027 240.895 C 113.162 252.662, 110 262.666, 110 263.125 C 110 263.584, 113.037 262.014, 116.750 259.637 C 123.151 255.538, 127.732 253.006, 150 241.261 C 158.584 236.733, 174.890 229.981, 184 227.181 C 197.157 223.138, 225.340 221.482, 228.429 224.571 C 230.163 226.305, 230.462 229.722, 229.072 231.918 C 228.029 233.566, 220.376 234.823, 210.750 234.927 C 206.649 234.971, 204 235.422, 204 236.075 C 204 236.773, 205.791 236.956, 209.107 236.598 L 214.214 236.047 213.518 239.774 C 213.135 241.823, 212.749 243.546, 212.661 243.601 C 212.572 243.657, 210.025 244.181, 207 244.766 L 201.500 245.829 206.500 245.724 C 211.188 245.625, 211.483 245.766, 211.232 247.979 C 210.815 251.648, 209.107 252.987, 204.628 253.157 L 200.500 253.314 205.082 253.907 L 209.663 254.500 208.303 257.813 C 206.897 261.237, 202.227 264, 197.846 264 C 194.574 264, 183.098 267.020, 178.500 269.090 C 176.300 270.081, 171.800 273.459, 168.500 276.598 C 165.200 279.736, 160.099 283.849, 157.165 285.737 C 154.230 287.625, 151.064 289.920, 150.128 290.835 C 148.031 292.887, 135.100 303.130, 132.878 304.500 C 131.986 305.050, 128.611 307.351, 125.378 309.613 C 117.007 315.471, 109.383 319.259, 103.015 320.725 L 97.500 321.995 102.915 321.441 C 110.016 320.715, 119.773 315.917, 130.170 308.039 C 132.739 306.092, 137.316 302.760, 140.341 300.633 C 143.366 298.505, 147.660 295.018, 149.882 292.883 L 153.923 289 198.568 289 L 243.212 289 242.513 280.161 C 242.128 275.299, 241.451 269.786, 241.009 267.911 L 240.205 264.500 240.102 268.250 C 240.046 270.313, 239.631 272, 239.179 272 C 238.728 272, 238.646 269.757, 238.998 267.014 C 239.350 264.272, 239.421 262.246, 239.156 262.511 C 238.891 262.776, 237.854 261.644, 236.852 259.996 C 235.179 257.246, 234.574 257, 229.469 257 C 224.828 257, 223.483 257.426, 221.333 259.576 C 219.112 261.797, 218.827 262.776, 219.267 266.679 C 219.920 272.474, 221.920 274.455, 227.120 274.455 C 233.815 274.455, 237.083 268.795, 233.176 263.969 C 231.621 262.049, 230.919 261.859, 228.426 262.685 C 226.260 263.403, 225.414 264.385, 225.170 266.469 C 224.985 268.048, 225.423 269.653, 226.170 270.126 C 227.084 270.705, 227.126 270.974, 226.307 270.985 C 224.460 271.008, 222.162 267.097, 222.735 264.905 C 224.656 257.561, 236.439 259.250, 236.224 266.838 C 236.077 271.986, 235.123 273.714, 231.466 275.449 C 221.445 280.204, 212.902 269.302, 218.714 259.175 C 222.463 252.643, 235.020 252.358, 237.927 258.739 C 240.080 263.464, 240.308 260.038, 238.691 247.263 C 237.802 240.244, 236.591 229.775, 235.998 224 C 235.406 218.225, 234.311 209.450, 233.564 204.500 C 232.818 199.550, 231.444 190.100, 230.513 183.500 C 229.581 176.900, 228.185 167.483, 227.409 162.574 C 225.170 148.393, 225.510 147.577, 231.261 153.327 C 237.965 160.031, 250.619 189.419, 255.019 208.500 C 256.033 212.900, 257.813 219.825, 258.975 223.890 C 261.057 231.178, 261.060 231.309, 259.169 233.390 C 257.340 235.403, 252 244.494, 252 245.594 C 252 246.940, 253.983 244.646, 255.751 241.255 C 257.886 237.162, 266 225.297, 266 226.269 C 266 226.599, 265.579 227.978, 265.064 229.331 C 264.425 231.011, 264.505 232.303, 265.314 233.399 C 266.317 234.758, 269.457 235.051, 285.714 235.300 C 296.282 235.462, 305.162 235.828, 305.447 236.114 C 305.733 236.399, 303.225 244.028, 299.876 253.066 C 296.526 262.105, 292.365 273.775, 290.629 279 L 287.472 288.500 278.236 288.788 L 269 289.075 269 322.538 L 269 356 302.500 356 L 336 356 336 330.500 C 336 306.458, 336.105 305, 337.830 305 C 338.836 305, 345.024 306.314, 351.580 307.919 C 358.136 309.525, 368.675 312.022, 375 313.468 C 381.325 314.914, 388.975 316.730, 392 317.503 C 395.025 318.276, 398.722 319.158, 400.215 319.464 C 401.745 319.778, 402.763 320.561, 402.548 321.260 C 402.339 321.942, 401.951 330.375, 401.688 340 C 401.396 350.655, 401.536 355.935, 402.046 353.500 C 402.507 351.300, 402.913 346.575, 402.948 343 C 402.983 339.425, 403.293 332.885, 403.638 328.466 L 404.263 320.432 407.882 320.696 C 411.065 320.927, 410.899 320.793, 406.500 319.581 C 403.750 318.823, 393.400 316.340, 383.500 314.062 C 373.600 311.785, 363.025 309.279, 360 308.494 C 348.710 305.564, 341.293 304, 338.686 304 C 336.010 304, 336 303.972, 336 296.500 C 336 290.500, 335.700 289, 334.500 289 C 333.675 289, 333 288.709, 333 288.352 C 333 287.996, 334.843 280.009, 337.097 270.602 C 339.350 261.196, 341.772 250.350, 342.480 246.500 C 343.814 239.246, 345.865 230.423, 353.522 199 C 356.001 188.825, 359.356 173.975, 360.978 166 C 364.985 146.291, 367.776 135.769, 369.259 134.776 C 369.942 134.319, 371.727 133.679, 373.228 133.352 C 374.728 133.026, 376.470 132.138, 377.100 131.379 C 377.730 130.621, 378.844 130, 379.575 130 C 380.307 130, 381.972 129.514, 383.275 128.921 L 385.644 127.841 383.942 120.171 C 383.006 115.952, 381.912 111.263, 381.511 109.750 C 380.648 106.490, 381.038 106.429, 389.500 108.499 C 392.800 109.307, 400 110.878, 405.500 111.990 C 434.408 117.839, 452.984 122.535, 453.007 124 C 453.023 125.045, 453.257 125.144, 453.777 124.326 C 454.329 123.459, 458.287 124.013, 468.934 126.451 C 483.977 129.895, 486.711 131.386, 485.514 135.500 C 485.194 136.600, 484.242 141.325, 483.397 146 C 482.553 150.675, 479.465 164.400, 476.535 176.500 C 468.068 211.468, 464.999 224.700, 465.018 226.149 C 465.033 227.290, 457.595 259.780, 456.386 263.851 C 456.125 264.732, 453.965 263.340, 450.179 259.851 C 444.061 254.214, 432.726 247.694, 427.250 246.662 C 422.774 245.819, 419.395 247.335, 417.475 251.048 C 415.303 255.248, 416.276 260.547, 420.325 266.562 C 422.071 269.157, 424.755 273.130, 426.289 275.390 C 430.060 280.948, 431.652 287.032, 433.515 303 C 434.381 310.425, 435.717 318.413, 436.484 320.750 L 437.879 325 435.130 325 C 433.618 325, 428.693 324.067, 424.186 322.928 C 419.678 321.788, 415.205 321.024, 414.245 321.231 C 412.560 321.594, 433.957 327.027, 437 327.009 C 437.825 327.004, 439.785 328.611, 441.356 330.579 C 444.663 334.724, 449.624 338.008, 452.500 337.956 C 453.876 337.932, 453.270 337.307, 450.557 335.953 C 440.842 331.106, 437.819 324.882, 435.032 303.994 C 432.180 282.619, 430.444 277.311, 423.642 269.170 C 421.728 266.879, 419.424 262.783, 418.522 260.067 C 417.044 255.616, 417.032 254.838, 418.404 252.186 C 421.216 246.748, 426.247 246.591, 436.275 251.631 C 444.590 255.809, 458.831 268.994, 464.752 277.995 C 469.381 285.032, 477 294.485, 477 293.191 C 477 292.645, 474.862 289.422, 472.250 286.030 C 469.637 282.637, 466.944 278.833, 466.265 277.577 C 465.586 276.320, 463.287 273.327, 461.156 270.925 L 457.280 266.558 458.717 260.529 C 459.506 257.213, 460.299 253.825, 460.477 253 C 460.655 252.175, 461.970 246.775, 463.399 241 C 464.828 235.225, 465.998 229.344, 465.999 227.932 C 466 226.519, 466.629 223.144, 467.397 220.432 C 468.165 217.719, 471.178 205.493, 474.093 193.263 C 479.976 168.576, 479.885 168.671, 483.390 183.585 C 484.284 187.388, 485.895 193.691, 486.970 197.590 C 489.239 205.818, 494.104 230.050, 496.388 244.500 C 497.257 250, 498.650 258.831, 499.484 264.124 C 500.318 269.417, 501.014 276.392, 501.031 279.624 C 501.048 282.856, 501.467 288.650, 501.963 292.500 C 502.458 296.350, 503.131 303.100, 503.457 307.500 C 503.784 311.900, 504.489 321.303, 505.025 328.395 C 505.561 335.488, 506 344.600, 506 348.645 C 506 352.690, 506.337 356.001, 506.750 356.001 C 508.344 356.004, 507.161 334.372, 502.949 286.500 C 500.118 254.311, 495.107 223.710, 488.293 197 C 484.317 181.413, 482.146 173.515, 481.031 170.581 C 480.332 168.743, 480.298 166.577, 480.929 164.155 C 484.056 152.159, 487.426 133.552, 486.778 131.863 C 485.860 129.472, 480.117 127.328, 466 124.107 C 432.634 116.495, 416.520 112.875, 403.500 110.068 C 381.138 105.247, 380.744 105.090, 379.348 100.462 C 376.989 92.637, 378.010 100.910, 380.980 113.684 C 383.738 125.546, 383.835 126.593, 382.289 127.750 C 381.370 128.438, 380.066 129, 379.391 129 C 378.716 129, 375.990 130.075, 373.332 131.389 C 364.118 135.944, 355.555 138.263, 350.332 137.616 C 347.674 137.287, 341.569 136.734, 336.764 136.387 C 327.219 135.698, 323.384 136.719, 310.671 143.331 C 303.985 146.809, 303.906 146.761, 302.072 138.169 C 301.406 135.051, 299.743 127.837, 298.375 122.139 C 297.008 116.440, 296.027 111.645, 296.195 111.484 C 296.363 111.323, 300.775 109.128, 306 106.607 C 318.695 100.482, 324.477 99.461, 334.618 101.556 C 344.127 103.520, 351.287 102.866, 359 99.327 C 362.025 97.939, 366.975 95.963, 370 94.934 C 375.106 93.198, 375.589 93.183, 376.750 94.723 C 377.851 96.185, 378 96.062, 378 93.691 C 378 90.613, 375.734 90.130, 372.559 92.532 C 369.269 95.020, 368.304 94.221, 367.080 88 C 366.431 84.700, 365.668 82, 365.386 82 C 365.103 82, 362.415 83.124, 359.412 84.497 C 340.185 93.292, 335.069 94.466, 325.083 92.377 C 321.463 91.620, 316.672 91, 314.438 91 C 309.856 91, 296.157 95.413, 288.245 99.437 C 283.876 101.659, 283.070 102.481, 283.467 104.305 C 286.240 117.068, 289.499 129.152, 289.787 127.747 C 289.986 126.783, 288.989 121.281, 287.574 115.519 C 286.158 109.757, 285 104.624, 285 104.113 C 285 102.513, 297.193 96.460, 304.156 94.603 C 310.800 92.832, 313.589 92.823, 331.033 94.517 C 336.836 95.081, 338.434 94.807, 345.342 92.063 C 349.619 90.364, 355.327 87.854, 358.026 86.487 C 360.725 85.119, 363.378 84, 363.921 84 C 364.465 84, 365.194 85.687, 365.542 87.750 C 365.890 89.813, 366.350 92.175, 366.565 93 C 366.836 94.042, 364.945 95.360, 360.364 97.320 C 354.866 99.673, 352.210 100.171, 344.351 100.320 C 338.119 100.439, 334.686 100.108, 334.213 99.343 C 333.751 98.597, 331.012 98.291, 326.499 98.481 C 320.427 98.736, 318.176 99.434, 309.500 103.750 C 304 106.486, 298.472 109.047, 297.215 109.441 C 295.099 110.104, 294.969 110.576, 295.456 115.828 C 296.022 121.934, 297.695 129.437, 299.114 132.231 C 299.822 133.625, 299.231 134.352, 296.090 135.954 L 292.186 137.946 291.196 134.223 C 290.237 130.615, 290.204 130.592, 290.119 133.500 C 289.967 138.673, 291.171 139.549, 295.856 137.674 L 299.911 136.052 301.587 142.026 C 302.509 145.312, 303.441 148, 303.657 148 C 303.874 148, 308.312 145.982, 313.521 143.516 C 325.669 137.763, 330.520 136.559, 337.765 137.499 C 347.326 138.740, 359.039 138.883, 362.157 137.795 C 363.777 137.231, 365.320 136.987, 365.587 137.254 C 365.854 137.520, 364.969 141.960, 363.622 147.119 C 362.274 152.279, 360.869 158.525, 360.500 161 C 360.130 163.475, 358.499 171.125, 356.874 178 C 355.250 184.875, 353.019 194.325, 351.917 199 C 350.815 203.675, 348.372 213.800, 346.488 221.500 C 344.604 229.200, 342.781 237.525, 342.437 240 C 342.092 242.475, 341.208 246.975, 340.471 250 C 339.735 253.025, 337.728 261.350, 336.010 268.500 C 334.293 275.650, 332.445 283.188, 331.904 285.250 L 330.920 289 310.627 289 C 299.465 289, 290.086 288.752, 289.783 288.450 C 289.026 287.692, 290.334 282.798, 293.511 274.500 C 297.776 263.363, 303.032 249.033, 305.356 242.201 C 307.228 236.700, 308.475 235.017, 315.193 228.921 C 323.868 221.049, 330.353 211.307, 334.417 200.042 C 336.451 194.402, 337 191.024, 337 184.137 C 337 175.941, 336.807 175.131, 333.913 171.197 L 330.827 167 310.985 167 C 288.974 167, 289.156 166.949, 286.928 173.741 C 286.249 175.808, 283.464 182.675, 280.738 189 C 278.011 195.325, 274.533 204.139, 273.009 208.587 C 268.815 220.823, 261.033 231.571, 260.988 225.191 C 260.981 224.261, 259.631 219.491, 257.988 214.590 C 256.345 209.690, 255 204.878, 255 203.897 C 255 201.524, 249.782 186.052, 245.883 176.863 C 238.821 160.222, 231.873 150.239, 226.149 148.511 C 223.122 147.597, 224.289 146.694, 230.500 145.146 C 247.519 140.905, 250.031 130.403, 239.433 107.797 C 233.144 94.381, 232.708 91.747, 235.328 83 C 239.013 70.702, 236.784 62.566, 228.617 58.496 C 224.281 56.336, 222.322 56.010, 214.054 56.071 C 207.580 56.120, 202.404 56.779, 198 58.117 M 449 76.214 C 449 76.646, 449.900 77, 451 77 C 452.100 77, 453 76.646, 453 76.214 C 453 75.782, 452.100 75.429, 451 75.429 C 449.900 75.429, 449 75.782, 449 76.214 M 453 80.059 C 453 81.191, 453.450 81.840, 454 81.500 C 454.550 81.160, 455 80.234, 455 79.441 C 455 78.648, 454.550 78, 454 78 C 453.450 78, 453 78.927, 453 80.059 M 197.396 86.033 C 192.665 88.375, 191 91.332, 191 97.392 C 191 104.183, 184.713 108.057, 183.828 101.811 C 183.411 98.870, 179.563 98.181, 176.918 100.575 C 174.850 102.446, 174.316 108.368, 175.978 111 C 176.498 111.825, 178.794 112.957, 181.080 113.516 C 184.881 114.444, 185.399 114.973, 187.168 119.714 C 190.963 129.888, 198.959 134.715, 206.677 131.491 C 214.636 128.165, 217.490 123.084, 219.454 108.739 C 220.696 99.672, 221.463 88.848, 221.119 85.250 C 221.033 84.344, 218.320 84, 211.250 84.001 C 203.464 84.001, 200.673 84.411, 197.396 86.033 M 180.996 107.496 C 182.286 108.869, 183.562 109.772, 183.831 109.502 C 184.495 108.838, 180.948 105, 179.671 105 C 179.110 105, 179.707 106.123, 180.996 107.496 M 172.964 121.943 C 166.914 146.386, 166.755 144.747, 175.500 148.030 C 179.350 149.475, 185.812 152.309, 189.860 154.329 C 193.908 156.348, 197.845 158, 198.610 158 C 199.719 158, 200 155.592, 200 146.089 L 200 134.178 195.437 131.969 C 190.683 129.668, 187.227 125.302, 185.151 118.977 C 184.150 115.926, 183.397 115.315, 179.538 114.419 L 175.081 113.385 172.964 121.943 M 393.441 146.574 C 392.374 147.440, 392.098 147.842, 392.828 147.467 C 393.559 147.092, 395.359 146.422, 396.828 145.979 C 398.972 145.331, 399.093 145.155, 397.441 145.086 C 396.309 145.039, 394.509 145.708, 393.441 146.574 M 392.641 149.898 C 388.371 152.713, 386.014 156.922, 386.007 161.747 C 386.001 165.214, 386.653 166.717, 389.556 169.930 C 395.472 176.478, 403.354 176.625, 409.495 170.302 C 412.478 167.231, 412.998 166.008, 412.985 162.097 C 412.977 159.568, 412.408 156.389, 411.721 155.030 C 410.151 151.929, 404.381 147.971, 401.602 148.090 C 400.103 148.154, 400.404 148.442, 402.648 149.092 C 404.380 149.594, 407.193 151.594, 408.898 153.537 C 417.946 163.842, 405.113 179.245, 393.420 172.114 C 384.359 166.589, 385.867 153.149, 396 149.121 C 397.375 148.574, 397.825 148.101, 397 148.070 C 396.175 148.039, 394.214 148.861, 392.641 149.898 M 400.493 152.250 C 400.104 153.213, 399.175 154, 398.428 154 C 397.681 154, 396.569 154.937, 395.955 156.083 C 394.818 158.209, 396.039 160.500, 400 163.666 C 401.183 164.612, 401.242 165.127, 400.277 166.106 C 399.336 167.060, 398.473 167.081, 396.527 166.194 C 394.445 165.245, 394 165.303, 394 166.521 C 394 167.335, 394.450 168, 395 168 C 395.550 168, 396 168.675, 396 169.500 C 396 171.401, 396.487 171.382, 399.576 169.358 C 404.052 166.425, 404.371 164.492, 401.010 160.665 C 397.149 156.266, 397.222 155.612, 401.500 156.306 C 403.425 156.619, 405 156.453, 405 155.937 C 405 155.422, 404.535 155, 403.968 155 C 403.400 155, 402.545 153.988, 402.068 152.750 C 401.297 150.751, 401.121 150.695, 400.493 152.250 M 415.232 162 C 415.232 163.925, 415.438 164.713, 415.689 163.750 C 415.941 162.787, 415.941 161.213, 415.689 160.250 C 415.438 159.287, 415.232 160.075, 415.232 162 M 413.617 168.389 C 413.288 169.702, 411.423 172.177, 409.474 173.889 C 406.422 176.568, 405.163 177, 400.399 177 C 394.598 177, 392.161 176.144, 387.954 172.628 C 386.553 171.458, 386.963 172.035, 388.864 173.911 L 392.321 177.321 389.911 179.216 C 382.233 185.249, 379.993 188.415, 377.432 196.852 C 374.427 206.755, 376.458 220.397, 382.183 228.749 C 385.814 234.048, 395.315 240.454, 402.743 242.614 C 409.538 244.589, 418.993 243.990, 425.276 241.185 C 439.300 234.925, 448 222.116, 448 207.727 C 448 191.927, 437.336 178.122, 421.087 172.889 C 414.968 170.918, 414.375 170.491, 414.783 168.357 C 415.372 165.271, 414.393 165.298, 413.617 168.389 M 330.122 173.278 C 328.581 174.819, 328.717 178.077, 330.500 182.346 C 331.363 184.411, 331.945 188.605, 331.871 192.218 L 331.742 198.500 330.810 191 C 329.833 183.134, 327.385 177.500, 324.944 177.500 C 323.319 177.500, 323.139 181.810, 324.381 191 L 325.125 196.500 322.614 190.601 C 319.637 183.610, 318.700 182.518, 316.425 183.390 C 314.928 183.965, 314.800 185.046, 315.388 192.103 C 315.758 196.534, 316.342 202.219, 316.687 204.736 C 317.375 209.754, 315.750 210.150, 314.537 205.259 C 313.842 202.459, 310.334 198, 308.826 198 C 307.565 198, 307.835 204.001, 309.579 214.761 C 310.447 220.117, 310.922 225.980, 310.635 227.789 L 310.113 231.079 313.909 228.072 C 321.955 221.699, 331.110 207.413, 334.417 196.068 C 336.177 190.029, 336.531 177.861, 335.028 175.052 C 333.757 172.677, 331.529 171.871, 330.122 173.278 M 407.791 190.388 C 404.101 191.046, 400.851 191.816, 400.568 192.099 C 400.285 192.382, 403.529 193.437, 407.777 194.445 C 412.025 195.452, 417.865 196.922, 420.755 197.711 C 429.436 200.080, 429.873 198.939, 422.270 193.750 C 418.443 191.137, 415.129 189.043, 414.906 189.096 C 414.683 189.149, 411.481 189.730, 407.791 190.388 M 397 194.721 C 397 195.501, 403.690 197.148, 420.278 200.451 C 429.429 202.273, 430.320 202.326, 429.500 201 C 429.160 200.450, 427.671 199.996, 426.191 199.991 C 424.711 199.986, 419.225 198.913, 414 197.606 C 401.605 194.506, 397 193.724, 397 194.721 M 324.228 201.967 C 324.105 207.366, 324.733 208.200, 325.546 203.717 C 325.799 202.326, 325.632 200.180, 325.176 198.948 C 324.545 197.242, 324.319 197.962, 324.228 201.967 M 399.630 199.083 C 399.155 200.633, 397.449 207.894, 396.537 212.250 C 396.123 214.228, 396.360 215, 397.381 215 C 399.281 215, 402.670 200.270, 401.125 198.725 C 400.379 197.979, 399.937 198.085, 399.630 199.083 M 413.285 200.803 C 411.877 201.697, 408.657 214.664, 409.377 216.540 C 409.643 217.235, 408.880 218.098, 407.681 218.460 C 405.546 219.103, 405.542 219.135, 407.500 219.988 C 410.912 221.475, 411.597 221.109, 411.686 217.750 C 411.733 215.963, 412.429 211.238, 413.232 207.250 C 414.035 203.262, 414.648 200.007, 414.596 200.015 C 414.543 200.024, 413.953 200.378, 413.285 200.803 M 422.607 209.385 C 421.635 213.298, 420.620 217.287, 420.352 218.250 C 420.049 219.340, 420.416 220, 421.324 220 C 422.564 220, 424.569 215.773, 424.215 213.904 C 424.154 213.577, 424.700 211.326, 425.429 208.902 C 426.454 205.497, 426.485 204.242, 425.564 203.383 C 424.658 202.536, 423.951 203.970, 422.607 209.385 M 395.500 217 C 395.840 217.550, 397.018 218, 398.118 218 C 399.218 218, 399.840 217.550, 399.500 217 C 399.160 216.450, 397.982 216, 396.882 216 C 395.782 216, 395.160 216.450, 395.500 217 M 392 218.599 C 392 219.604, 395.964 220.808, 401.500 221.485 C 402.801 221.643, 407.365 222.843, 413 224.506 C 419.557 226.441, 425 227.219, 425 226.222 C 425 225.744, 423.313 224.842, 421.250 224.217 C 417.706 223.144, 417.679 223.105, 420.750 223.516 C 424.460 224.012, 425.135 222.368, 421.750 221.079 C 420.159 220.473, 418.982 220.679, 417.732 221.782 C 416.121 223.204, 414.902 223.078, 403.982 220.358 C 395.483 218.241, 392 217.730, 392 218.599 M 371.923 263.923 C 368.223 267.623, 367.965 272.685, 371.280 276.540 C 373.124 278.683, 375.850 279.743, 385.530 282.079 C 406.851 287.223, 414.418 288.270, 418.361 286.622 C 423.076 284.652, 424.833 279.557, 422.495 274.630 C 420.604 270.646, 418.966 269.896, 406 267.075 C 400.775 265.939, 392.675 264.118, 388 263.030 C 376.745 260.410, 375.359 260.487, 371.923 263.923 M 61.367 283.561 C 61.683 291.768, 66.229 300.486, 74.696 309.120 C 81.627 316.187, 87.634 319.815, 93.728 320.612 C 97.343 321.086, 97.292 321.027, 92.500 319.212 C 89.750 318.170, 85.995 316.538, 84.156 315.584 C 79.869 313.363, 70.320 303.538, 68.037 299 C 66.187 295.325, 62.452 284.261, 61.621 280 C 61.353 278.625, 61.239 280.227, 61.367 283.561 M 318.786 303.237 C 317.309 304.379, 314.233 309.218, 308.764 319 C 302.134 330.857, 300.718 333, 299.511 333 C 298.772 333, 295.694 330.266, 292.670 326.925 C 288.061 321.831, 286.717 320.903, 284.345 321.175 C 282.790 321.354, 281.394 322.175, 281.244 323 C 280.953 324.594, 295.381 340.063, 298.930 341.962 C 300.743 342.933, 301.444 342.638, 304.016 339.821 C 305.657 338.024, 307 336.106, 307 335.558 C 307 335.010, 310.913 328.100, 315.696 320.204 C 322.506 308.962, 324.172 305.496, 323.375 304.233 C 321.980 302.021, 320.712 301.746, 318.786 303.237" stroke="none" fill="#3f58a6" fill-rule="evenodd"/></svg>